<?xml version="1.0" encoding="UTF-8"?>
<!DOCTYPE svg PUBLIC "-//W3C//DTD SVG 1.1//EN" "http://www.w3.org/Graphics/SVG/1.1/DTD/svg11.dtd">
<svg xmlns="http://www.w3.org/2000/svg" version="1.1" width="2560px" height="640px" style="shape-rendering:geometricPrecision; text-rendering:geometricPrecision; image-rendering:optimizeQuality; fill-rule:evenodd; clip-rule:evenodd" xmlns:xlink="http://www.w3.org/1999/xlink">
<g><path style="opacity:0.998" fill="#ee0000" d="M 922.5,-0.5 C 1317.17,-0.5 1711.83,-0.5 2106.5,-0.5C 2027.03,79.4654 1947.37,159.299 1867.5,239C 1564.17,239.333 1260.83,239.667 957.5,240C 908.614,239.879 860.28,244.879 812.5,255C 774.392,265.22 740.058,282.553 709.5,307C 701.167,314 692.833,321 684.5,328C 576.027,430.973 468.36,534.806 361.5,639.5C 240.833,639.5 120.167,639.5 -0.5,639.5C -0.5,639.167 -0.5,638.833 -0.5,638.5C 152.326,486.507 305.326,334.674 458.5,183C 491.164,151.862 525.498,122.862 561.5,96C 635.951,43.3979 718.951,13.7312 810.5,7C 847.919,3.41201 885.252,0.912012 922.5,-0.5 Z"/></g>
<g><path style="opacity:0.998" fill="#ee0000" d="M 2174.5,-0.5 C 2302.83,-0.5 2431.17,-0.5 2559.5,-0.5C 2559.5,-0.166667 2559.5,0.166667 2559.5,0.5C 2346.17,213.167 2133.17,426.167 1920.5,639.5C 1791.5,639.5 1662.5,639.5 1533.5,639.5C 1651.17,521.167 1769.17,403.167 1887.5,285.5C 1890.9,283.612 1893.9,281.112 1896.5,278C 1896.27,277.601 1895.94,277.435 1895.5,277.5C 1918.83,253.5 1942.5,229.833 1966.5,206.5C 2036.45,138.216 2105.78,69.2156 2174.5,-0.5 Z"/></g>
<g><path style="opacity:0.682" fill="#f20000" d="M 2172.5,-0.5 C 2173.17,-0.5 2173.83,-0.5 2174.5,-0.5C 2105.78,69.2156 2036.45,138.216 1966.5,206.5C 2035.17,137.5 2103.83,68.5 2172.5,-0.5 Z"/></g>
<g><path style="opacity:0.998" fill="#ed0000" d="M 763.5,639.5 C 650.833,639.5 538.167,639.5 425.5,639.5C 519.632,545.534 613.966,451.701 708.5,358C 751.757,317.379 803.09,293.379 862.5,286C 892.71,282.104 923.043,279.771 953.5,279C 1107.83,277.875 1262.16,277.375 1416.5,277.5C 1553.83,277.667 1691.17,277.833 1828.5,278C 1754.17,352.333 1679.83,426.667 1605.5,501C 1405.17,501.333 1204.83,501.667 1004.5,502C 975.861,501.62 947.528,504.287 919.5,510C 895.609,517.107 874.609,529.107 856.5,546C 825.298,577.035 794.298,608.201 763.5,639.5 Z"/></g>
<g><path style="opacity:0.678" fill="#f20000" d="M 1895.5,277.5 C 1895.94,277.435 1896.27,277.601 1896.5,278C 1893.9,281.112 1890.9,283.612 1887.5,285.5C 1889.83,282.5 1892.5,279.833 1895.5,277.5 Z"/></g>
<g><path style="opacity:0.975" fill="#ee0000" d="M 2122.5,639.5 C 2117.5,639.5 2112.5,639.5 2107.5,639.5C 2107.5,617.167 2107.5,594.833 2107.5,572.5C 2098.83,572.5 2090.17,572.5 2081.5,572.5C 2081.5,568.167 2081.5,563.833 2081.5,559.5C 2103.5,559.5 2125.5,559.5 2147.5,559.5C 2147.5,563.833 2147.5,568.167 2147.5,572.5C 2139.17,572.5 2130.83,572.5 2122.5,572.5C 2122.5,594.833 2122.5,617.167 2122.5,639.5 Z"/></g>
<g><path style="opacity:0.954" fill="#ee0000" d="M 2239.5,639.5 C 2234.83,639.5 2230.17,639.5 2225.5,639.5C 2225.67,619.831 2225.5,600.164 2225,580.5C 2217.86,600.089 2211.03,619.756 2204.5,639.5C 2199.83,639.5 2195.17,639.5 2190.5,639.5C 2183.97,619.756 2177.14,600.089 2170,580.5C 2169.5,600.164 2169.33,619.831 2169.5,639.5C 2164.83,639.5 2160.17,639.5 2155.5,639.5C 2155.5,612.833 2155.5,586.167 2155.5,559.5C 2162.53,559.17 2169.53,559.503 2176.5,560.5C 2183.77,580.462 2190.93,600.462 2198,620.5C 2205.14,600.243 2211.97,579.909 2218.5,559.5C 2225.5,559.5 2232.5,559.5 2239.5,559.5C 2239.5,586.167 2239.5,612.833 2239.5,639.5 Z"/></g>
</svg>
