<?xml version="1.0" encoding="UTF-8"?>
<!DOCTYPE svg PUBLIC "-//W3C//DTD SVG 1.1//EN" "http://www.w3.org/Graphics/SVG/1.1/DTD/svg11.dtd">
<svg xmlns="http://www.w3.org/2000/svg" version="1.1" width="2560px" height="849px" style="shape-rendering:geometricPrecision; text-rendering:geometricPrecision; image-rendering:optimizeQuality; fill-rule:evenodd; clip-rule:evenodd" xmlns:xlink="http://www.w3.org/1999/xlink">
<g><path style="opacity:0.993" fill="#e6002c" d="M 503.5,3.5 C 639.142,-1.04063 751.975,46.9594 842,147.5C 930.807,256.451 960.807,380.118 932,518.5C 904.565,630.202 842.732,717.035 746.5,779C 651.849,836.276 550.182,853.943 441.5,832C 314.979,801.442 221.145,728.942 160,614.5C 148.735,591.703 139.235,568.203 131.5,544C 89.168,543.5 46.8346,543.333 4.5,543.5C 4.37201,541.345 4.87201,539.345 6,537.5C 23.0402,507.252 40.2068,477.085 57.5,447C 76.4318,445.538 95.4318,445.038 114.5,445.5C 110.325,313.416 155.658,201.916 250.5,111C 322.48,46.6919 406.813,10.8585 503.5,3.5 Z M 526.5,99.5 C 617.158,100.849 693.825,133.849 756.5,198.5C 705.495,285.84 654.995,373.507 605,461.5C 597.39,452.498 587.557,447.665 575.5,447C 561.51,445.466 547.51,445.299 533.5,446.5C 516.039,478.587 498.706,510.754 481.5,543C 498.872,543.088 516.205,543.754 533.5,545C 544.044,550.248 547.878,558.748 545,570.5C 530.501,598.175 515.334,625.509 499.5,652.5C 536.167,653.833 572.833,653.833 609.5,652.5C 678.414,530.338 747.58,408.338 817,286.5C 856.466,374.706 857.466,463.372 820,552.5C 774.807,649.348 700.307,710.848 596.5,737C 485.864,757.935 389.531,730.268 307.5,654C 337.172,653.833 366.839,653.333 396.5,652.5C 482.333,499.5 568.167,346.5 654,193.5C 654.49,192.207 654.657,190.873 654.5,189.5C 617.832,189.333 581.165,189.5 544.5,190C 496.293,274.915 447.96,359.748 399.5,444.5C 336.504,445.5 273.504,445.833 210.5,445.5C 205.665,339.398 241.998,250.565 319.5,179C 378.956,128.009 447.956,101.509 526.5,99.5 Z M 233.5,544.5 C 269.664,543.336 305.998,543.169 342.5,544C 324.621,574.255 307.121,604.755 290,635.5C 266.607,608.057 247.773,577.724 233.5,544.5 Z"/></g>
<g><path style="opacity:0.992" fill="#e6002d" d="M 1142.5,70.5 C 1164.17,70.5 1185.83,70.5 1207.5,70.5C 1207.5,121.167 1207.5,171.833 1207.5,222.5C 1293.17,222.5 1378.83,222.5 1464.5,222.5C 1464.5,171.833 1464.5,121.167 1464.5,70.5C 1485.83,70.5 1507.17,70.5 1528.5,70.5C 1528.5,199.167 1528.5,327.833 1528.5,456.5C 1507.17,456.5 1485.83,456.5 1464.5,456.5C 1464.5,396.833 1464.5,337.167 1464.5,277.5C 1378.83,277.5 1293.17,277.5 1207.5,277.5C 1207.5,337.167 1207.5,396.833 1207.5,456.5C 1185.83,456.5 1164.17,456.5 1142.5,456.5C 1142.5,327.833 1142.5,199.167 1142.5,70.5 Z"/></g>
<g><path style="opacity:0.987" fill="#e6002c" d="M 1709.5,153.5 C 1738.36,152.919 1766.69,156.419 1794.5,164C 1813.14,169.558 1828.64,179.724 1841,194.5C 1847.96,204.372 1851.96,215.372 1853,227.5C 1853.02,283.212 1853.68,338.878 1855,394.5C 1856.93,399.428 1860.43,402.594 1865.5,404C 1876.24,404.814 1886.9,404.314 1897.5,402.5C 1897.5,417.167 1897.5,431.833 1897.5,446.5C 1877.25,449.201 1856.92,450.035 1836.5,449C 1816.84,446.512 1804.51,435.679 1799.5,416.5C 1780.22,433.476 1757.88,444.643 1732.5,450C 1693.1,459.432 1654.1,458.099 1615.5,446C 1575.79,429.441 1557.96,399.607 1562,356.5C 1565.43,328.392 1580.27,308.892 1606.5,298C 1626.8,290.008 1647.8,284.674 1669.5,282C 1694.82,279.187 1720.15,276.52 1745.5,274C 1755.64,273.149 1765.64,271.483 1775.5,269C 1792.56,263.045 1798.73,251.212 1794,233.5C 1790.84,222.012 1783.67,214.179 1772.5,210C 1754.67,204.146 1736.34,201.312 1717.5,201.5C 1699.01,201.393 1681.01,204.227 1663.5,210C 1642.56,218.353 1631.9,233.853 1631.5,256.5C 1612.17,256.5 1592.83,256.5 1573.5,256.5C 1576.64,207.017 1601.97,175.517 1649.5,162C 1669.35,157.045 1689.35,154.212 1709.5,153.5 Z M 1794.5,306.5 C 1801.73,350.863 1784.4,381.363 1742.5,398C 1712.96,409.12 1682.96,410.787 1652.5,403C 1640.21,398.703 1631.04,390.87 1625,379.5C 1619.26,358.807 1626.1,343.974 1645.5,335C 1655.54,331.24 1665.87,328.573 1676.5,327C 1707.55,323.365 1738.55,319.365 1769.5,315C 1778.52,313.829 1786.85,310.996 1794.5,306.5 Z"/></g>
<g><path style="opacity:0.987" fill="#e6002c" d="M 2061.5,153.5 C 2088.95,152.978 2115.95,156.145 2142.5,163C 2161.62,168.136 2177.79,177.969 2191,192.5C 2197.85,201.364 2202.18,211.364 2204,222.5C 2204.47,279.662 2205.14,336.329 2206,392.5C 2207.26,398.885 2211.1,402.719 2217.5,404C 2227.9,404.796 2238.24,404.296 2248.5,402.5C 2248.5,417.167 2248.5,431.833 2248.5,446.5C 2228.59,449.22 2208.59,450.053 2188.5,449C 2168.26,447.098 2155.76,436.264 2151,416.5C 2130.46,434.478 2106.62,445.978 2079.5,451C 2048.9,457.878 2018.23,458.212 1987.5,452C 1924.74,436.219 1901.91,397.052 1919,334.5C 1927.9,316.619 1941.73,304.119 1960.5,297C 1980.19,289.46 2000.53,284.46 2021.5,282C 2055.59,278.658 2089.59,274.658 2123.5,270C 2145.05,263.725 2151.89,249.892 2144,228.5C 2137.7,217.21 2128.2,210.044 2115.5,207C 2082.65,199.272 2049.98,199.938 2017.5,209C 1995.23,217.04 1983.9,232.873 1983.5,256.5C 1963.83,256.667 1944.16,256.5 1924.5,256C 1926.07,227.585 1937.07,203.585 1957.5,184C 1977.35,169.153 1999.69,160.153 2024.5,157C 2036.95,155.465 2049.29,154.298 2061.5,153.5 Z M 2145.5,306.5 C 2153.71,348.923 2138.04,378.756 2098.5,396C 2069.52,408.068 2039.69,410.901 2009,404.5C 1994.85,400.997 1984.18,392.997 1977,380.5C 1970.42,358.169 1977.92,342.669 1999.5,334C 2008.92,330.65 2018.58,328.316 2028.5,327C 2059.53,323.246 2090.53,319.246 2121.5,315C 2130.13,313.626 2138.13,310.793 2145.5,306.5 Z"/></g>
<g><path style="opacity:0.986" fill="#e6002c" d="M 2395.5,153.5 C 2424.73,152.557 2453.07,157.057 2480.5,167C 2518.43,183.348 2538.77,212.181 2541.5,253.5C 2521.5,253.5 2501.5,253.5 2481.5,253.5C 2481.52,244.396 2479.02,236.063 2474,228.5C 2460.03,212.931 2442.53,204.431 2421.5,203C 2399.27,200.248 2377.6,202.581 2356.5,210C 2335.61,219.688 2329.44,235.188 2338,256.5C 2346.33,264.076 2356.16,268.576 2367.5,270C 2398.49,274.415 2429.49,278.749 2460.5,283C 2485.41,286.185 2508.07,294.852 2528.5,309C 2546.48,326.393 2553.32,347.559 2549,372.5C 2543.74,406.17 2525.24,429.336 2493.5,442C 2466.08,451.989 2437.75,456.823 2408.5,456.5C 2381.13,456.662 2354.47,452.496 2328.5,444C 2287.34,427.551 2266.01,397.051 2264.5,352.5C 2284.17,352.5 2303.83,352.5 2323.5,352.5C 2324.37,375.724 2335.71,391.557 2357.5,400C 2388.85,410.079 2420.52,411.079 2452.5,403C 2464.14,400.103 2473.97,394.27 2482,385.5C 2490.77,370.683 2488.94,357.516 2476.5,346C 2468.6,341.812 2460.27,338.812 2451.5,337C 2417.87,332.053 2384.21,327.387 2350.5,323C 2324.63,319.321 2303.46,307.488 2287,287.5C 2270.72,259.447 2270.38,231.114 2286,202.5C 2297.26,185.58 2312.43,173.413 2331.5,166C 2352.34,158.532 2373.67,154.365 2395.5,153.5 Z"/></g>
<g><path style="opacity:0.982" fill="#000000" d="M 1142.5,522.5 C 1204.17,522.5 1265.83,522.5 1327.5,522.5C 1327.5,535.167 1327.5,547.833 1327.5,560.5C 1279.5,560.5 1231.5,560.5 1183.5,560.5C 1183.5,582.5 1183.5,604.5 1183.5,626.5C 1229.5,626.5 1275.5,626.5 1321.5,626.5C 1321.5,639.167 1321.5,651.833 1321.5,664.5C 1275.5,664.5 1229.5,664.5 1183.5,664.5C 1183.5,701.167 1183.5,737.833 1183.5,774.5C 1169.83,774.5 1156.17,774.5 1142.5,774.5C 1142.5,690.5 1142.5,606.5 1142.5,522.5 Z"/></g>
<g><path style="opacity:0.965" fill="#000000" d="M 1442.5,522.5 C 1454.5,522.5 1466.5,522.5 1478.5,522.5C 1478.33,525.85 1478.5,529.183 1479,532.5C 1483.55,523.752 1490.71,520.585 1500.5,523C 1511.85,529.081 1514.68,537.914 1509,549.5C 1501.47,557.338 1492.97,558.504 1483.5,553C 1481.38,551.269 1479.88,549.102 1479,546.5C 1478.5,622.499 1478.33,698.499 1478.5,774.5C 1463.5,774.5 1448.5,774.5 1433.5,774.5C 1433.5,716.5 1433.5,658.5 1433.5,600.5C 1409.17,600.5 1384.83,600.5 1360.5,600.5C 1360.5,589.5 1360.5,578.5 1360.5,567.5C 1378.53,568.044 1396.2,565.877 1413.5,561C 1431.4,554.278 1441.07,541.444 1442.5,522.5 Z M 1503.5,549.5 C 1496.55,555.09 1490.05,554.424 1484,547.5C 1479.17,536.153 1482.67,528.82 1494.5,525.5C 1505.14,527.422 1509.31,533.755 1507,544.5C 1505.97,546.346 1504.8,548.013 1503.5,549.5 Z M 1491.5,532.5 C 1494.66,531.964 1497.33,532.797 1499.5,535C 1497.35,537.165 1494.68,537.998 1491.5,537.5C 1491.5,535.833 1491.5,534.167 1491.5,532.5 Z"/></g>
<g><path style="opacity:0.989" fill="#000000" d="M 1594.5,522.5 C 1667.5,522.5 1740.5,522.5 1813.5,522.5C 1813.5,535.167 1813.5,547.833 1813.5,560.5C 1783.83,560.5 1754.17,560.5 1724.5,560.5C 1724.5,631.833 1724.5,703.167 1724.5,774.5C 1710.83,774.5 1697.17,774.5 1683.5,774.5C 1683.5,703.167 1683.5,631.833 1683.5,560.5C 1653.83,560.5 1624.17,560.5 1594.5,560.5C 1594.5,547.833 1594.5,535.167 1594.5,522.5 Z"/></g>
<g><path style="opacity:0.722" fill="#000000" d="M 1503.5,549.5 C 1502.13,549.657 1500.79,549.49 1499.5,549C 1497.83,546.667 1496.17,544.333 1494.5,542C 1493.55,541.517 1492.55,541.351 1491.5,541.5C 1491.5,544.167 1491.5,546.833 1491.5,549.5C 1490.17,549.5 1488.83,549.5 1487.5,549.5C 1487.5,542.833 1487.5,536.167 1487.5,529.5C 1491.85,529.334 1496.18,529.501 1500.5,530C 1504.9,534.728 1504.23,538.395 1498.5,541C 1500.57,543.642 1502.23,546.475 1503.5,549.5 Z M 1491.5,532.5 C 1491.5,534.167 1491.5,535.833 1491.5,537.5C 1494.68,537.998 1497.35,537.165 1499.5,535C 1497.33,532.797 1494.66,531.964 1491.5,532.5 Z"/></g>
<g><path style="opacity:0.972" fill="#000000" d="M 1882.5,589.5 C 1912.35,586.031 1939.68,592.531 1964.5,609C 1982.17,624.17 1992.67,643.336 1996,666.5C 1997.18,675.796 1997.68,685.13 1997.5,694.5C 1944.5,694.5 1891.5,694.5 1838.5,694.5C 1841.84,712.678 1851.84,725.845 1868.5,734C 1893.28,744.247 1916.95,742.247 1939.5,728C 1944.27,723.232 1948.27,717.899 1951.5,712C 1965.83,711.333 1980.17,711.333 1994.5,712C 1979.98,746.841 1953.98,767.174 1916.5,773C 1887.79,776.901 1860.79,771.901 1835.5,758C 1805.79,737.398 1792.62,708.898 1796,672.5C 1799.93,636.122 1818.76,610.955 1852.5,597C 1862.42,593.655 1872.42,591.155 1882.5,589.5 Z M 1890.5,622.5 C 1912.02,620.408 1930.18,627.075 1945,642.5C 1949.5,648.509 1952.67,655.176 1954.5,662.5C 1916.17,663.833 1877.83,663.833 1839.5,662.5C 1844.38,646.115 1854.72,634.615 1870.5,628C 1877.13,625.513 1883.8,623.679 1890.5,622.5 Z"/></g>
<g><path style="opacity:0.966" fill="#000000" d="M 2088.5,589.5 C 2107.64,588.67 2126.64,589.836 2145.5,593C 2160.28,595.967 2172.45,603.133 2182,614.5C 2186.02,620.548 2188.35,627.215 2189,634.5C 2189.33,667.833 2189.67,701.167 2190,734.5C 2190.83,737.333 2192.67,739.167 2195.5,740C 2201.94,740.769 2208.28,740.269 2214.5,738.5C 2215.5,748.478 2215.83,758.478 2215.5,768.5C 2206.51,769.286 2197.51,769.953 2188.5,770.5C 2172.37,772.528 2161.21,766.195 2155,751.5C 2136.78,765.911 2115.94,773.411 2092.5,774C 2075.65,775.136 2059.32,772.803 2043.5,767C 2020.07,755.455 2010.24,736.622 2014,710.5C 2017.74,692.087 2028.58,679.921 2046.5,674C 2052.41,672.022 2058.41,670.355 2064.5,669C 2089.48,665.469 2114.48,662.136 2139.5,659C 2146.96,657.205 2151.3,652.539 2152.5,645C 2152.03,636.385 2148.03,630.052 2140.5,626C 2121.8,619.982 2102.8,618.982 2083.5,623C 2066.71,626.285 2058.05,636.451 2057.5,653.5C 2045.17,653.5 2032.83,653.5 2020.5,653.5C 2021.08,626.787 2033.42,607.954 2057.5,597C 2067.74,593.525 2078.07,591.025 2088.5,589.5 Z M 2151.5,684.5 C 2155.42,710.141 2145.09,727.641 2120.5,737C 2101.42,744.174 2082.42,744.174 2063.5,737C 2051.93,729.506 2049.43,719.673 2056,707.5C 2062.36,701.74 2069.86,698.24 2078.5,697C 2101.27,694.32 2123.94,690.987 2146.5,687C 2148.49,686.626 2150.16,685.793 2151.5,684.5 Z"/></g>
<g><path style="opacity:0.972" fill="#000000" d="M 2337.5,589.5 C 2360.96,586.115 2381.96,591.615 2400.5,606C 2404.75,609.581 2408.25,613.748 2411,618.5C 2435,593.532 2464.17,584.365 2498.5,591C 2526.72,596.555 2543.55,613.388 2549,641.5C 2549.5,685.832 2549.67,730.165 2549.5,774.5C 2536.5,774.5 2523.5,774.5 2510.5,774.5C 2510.67,742.832 2510.5,711.165 2510,679.5C 2515.14,635.302 2495.97,617.469 2452.5,626C 2433.73,630.771 2422.56,642.605 2419,661.5C 2418.5,699.165 2418.33,736.832 2418.5,774.5C 2405.17,774.5 2391.83,774.5 2378.5,774.5C 2378.67,733.499 2378.5,692.499 2378,651.5C 2373.15,632.549 2360.82,623.216 2341,623.5C 2322.91,623.412 2307.91,630.078 2296,643.5C 2291.94,649.952 2289.28,656.952 2288,664.5C 2287.5,701.165 2287.33,737.832 2287.5,774.5C 2274.17,774.5 2260.83,774.5 2247.5,774.5C 2247.5,714.833 2247.5,655.167 2247.5,595.5C 2260.83,595.5 2274.17,595.5 2287.5,595.5C 2287.33,601.842 2287.5,608.175 2288,614.5C 2301.48,600.177 2317.98,591.844 2337.5,589.5 Z"/></g>
</svg>
