<?xml version="1.0" encoding="UTF-8"?>
<!DOCTYPE svg PUBLIC "-//W3C//DTD SVG 1.1//EN" "http://www.w3.org/Graphics/SVG/1.1/DTD/svg11.dtd">
<svg xmlns="http://www.w3.org/2000/svg" version="1.1" width="1280px" height="741px" style="shape-rendering:geometricPrecision; text-rendering:geometricPrecision; image-rendering:optimizeQuality; fill-rule:evenodd; clip-rule:evenodd" xmlns:xlink="http://www.w3.org/1999/xlink">
<g><path style="opacity:0.979" fill="#005ba7" d="M 235.5,-0.5 C 236.5,-0.5 237.5,-0.5 238.5,-0.5C 284.447,26.1457 330.78,52.3124 377.5,78C 412.758,99.0063 429.258,130.173 427,171.5C 419.722,217.111 393.555,244.944 348.5,255C 340.178,256.47 331.844,256.636 323.5,255.5C 281.918,267.566 246.418,257.899 217,226.5C 205.362,212.216 198.362,195.883 196,177.5C 195.167,119.497 195.333,61.4971 196.5,3.5C 209.167,10.1667 221.833,16.8333 234.5,23.5C 235.498,15.5277 235.831,7.52766 235.5,-0.5 Z M 210.5,28.5 C 225.053,36.3609 239.553,44.3609 254,52.5C 254.333,92.1667 254.667,131.833 255,171.5C 259.614,189.941 271.447,199.941 290.5,201.5C 315.665,198.169 327.498,183.835 326,158.5C 322.946,144.447 314.613,135.113 301,130.5C 300.5,115.837 300.333,101.17 300.5,86.5C 331.948,91.2346 353.615,108.401 365.5,138C 377.194,180.27 364.527,212.936 327.5,236C 287.851,253.114 254.018,245.281 226,212.5C 218.874,202.576 214.207,191.576 212,179.5C 210.533,129.196 210.033,78.8624 210.5,28.5 Z"/></g>
<g><path style="opacity:0.989" fill="#005ca7" d="M 473.5,51.5 C 512.501,51.3333 551.501,51.5 590.5,52C 615.35,56.5173 630.85,71.0173 637,95.5C 640.142,118.253 632.642,136.586 614.5,150.5C 645.172,166.656 655.005,191.322 644,224.5C 634.864,241.654 620.697,251.82 601.5,255C 558.835,255.5 516.168,255.667 473.5,255.5C 473.5,187.5 473.5,119.5 473.5,51.5 Z M 535.5,102.5 C 543.253,102.104 550.92,102.604 558.5,104C 567.396,111.533 567.729,119.533 559.5,128C 551.585,129.401 543.585,129.901 535.5,129.5C 535.5,120.5 535.5,111.5 535.5,102.5 Z M 536.5,181.5 C 547.172,181.333 557.839,181.5 568.5,182C 576.465,187.245 578.632,194.411 575,203.5C 573.833,206 572,207.833 569.5,209C 558.505,209.5 547.505,209.667 536.5,209.5C 536.5,200.167 536.5,190.833 536.5,181.5 Z"/></g>
<g><path style="opacity:0.987" fill="#005ba7" d="M 632.5,51.5 C 657.842,51.1669 683.175,51.5002 708.5,52.5C 718.568,81.2045 728.735,109.871 739,138.5C 747.302,109.623 755.136,80.6233 762.5,51.5C 781.5,51.5 800.5,51.5 819.5,51.5C 826.84,80.6782 834.673,109.678 843,138.5C 852.888,109.726 863.055,81.0596 873.5,52.5C 898.833,51.1667 924.167,51.1667 949.5,52.5C 926.099,119.871 902.599,187.204 879,254.5C 858.242,255.493 837.409,255.827 816.5,255.5C 808.16,223.143 799.66,190.809 791,158.5C 782.34,190.809 773.84,223.143 765.5,255.5C 744.591,255.827 723.758,255.493 703,254.5C 679.193,186.911 655.693,119.244 632.5,51.5 Z"/></g>
<g><path style="opacity:0.983" fill="#005ca7" d="M 957.5,51.5 C 999.5,51.5 1041.5,51.5 1083.5,51.5C 1083.5,73.5 1083.5,95.5 1083.5,117.5C 1070.83,117.5 1058.17,117.5 1045.5,117.5C 1045.5,163.5 1045.5,209.5 1045.5,255.5C 1020.5,255.5 995.5,255.5 970.5,255.5C 970.5,209.5 970.5,163.5 970.5,117.5C 958.482,117.832 946.482,117.499 934.5,116.5C 941.978,94.7293 949.645,73.0627 957.5,51.5 Z"/></g>
<g><path style="opacity:0.955" fill="#000000" d="M -0.5,465.5 C -0.5,464.833 -0.5,464.167 -0.5,463.5C 33.8114,426.187 68.1448,388.853 102.5,351.5C 137.323,389.157 171.989,426.991 206.5,465C 194.5,465.667 182.5,465.667 170.5,465C 164.5,458.333 158.5,451.667 152.5,445C 119.167,444.333 85.8333,444.333 52.5,445C 46.5,451.667 40.5,458.333 34.5,465C 22.8381,465.5 11.1714,465.667 -0.5,465.5 Z M 101.5,389.5 C 104.056,390.543 106.223,392.21 108,394.5C 116.5,404.333 125,414.167 133.5,424C 112.833,424.667 92.1667,424.667 71.5,424C 81.7091,412.628 91.7091,401.128 101.5,389.5 Z"/></g>
<g><path style="opacity:0.948" fill="#000000" d="M 269.5,355.5 C 279.833,355.5 290.167,355.5 300.5,355.5C 300.5,385.167 300.5,414.833 300.5,444.5C 338.169,444.744 375.836,445.244 413.5,446C 410.429,451.977 407.762,458.143 405.5,464.5C 360.172,465.5 314.838,465.833 269.5,465.5C 269.5,428.833 269.5,392.167 269.5,355.5 Z"/></g>
<g><path style="opacity:0.965" fill="#000000" d="M 474.5,355.5 C 521.835,355.333 569.168,355.5 616.5,356C 645.879,362.252 656.046,379.752 647,408.5C 639.47,420.337 628.637,426.837 614.5,428C 578.168,428.5 541.835,428.667 505.5,428.5C 505.5,440.833 505.5,453.167 505.5,465.5C 495.167,465.5 484.833,465.5 474.5,465.5C 474.5,428.833 474.5,392.167 474.5,355.5 Z M 505.5,375.5 C 537.502,375.333 569.502,375.5 601.5,376C 615.731,377.917 620.564,385.75 616,399.5C 611.682,404.576 606.182,407.409 599.5,408C 568.168,408.5 536.835,408.667 505.5,408.5C 505.5,397.5 505.5,386.5 505.5,375.5 Z"/></g>
<g><path style="opacity:0.978" fill="#000000" d="M 727.5,355.5 C 737.5,355.5 747.5,355.5 757.5,355.5C 757.5,392.167 757.5,428.833 757.5,465.5C 747.5,465.5 737.5,465.5 727.5,465.5C 727.5,428.833 727.5,392.167 727.5,355.5 Z"/></g>
<g><path style="opacity:0.958" fill="#000000" d="M 851.5,355.5 C 862.172,355.333 872.839,355.5 883.5,356C 923.167,377.833 962.833,399.667 1002.5,421.5C 1003.5,399.51 1003.83,377.51 1003.5,355.5C 1013.17,355.5 1022.83,355.5 1032.5,355.5C 1032.83,393.173 1032.5,430.839 1031.5,468.5C 981.006,441.087 930.673,413.421 880.5,385.5C 879.5,412.158 879.167,438.825 879.5,465.5C 870.167,465.5 860.833,465.5 851.5,465.5C 851.5,428.833 851.5,392.167 851.5,355.5 Z"/></g>
<g><path style="opacity:0.955" fill="#000000" d="M 1279.5,444.5 C 1279.5,446.167 1279.5,447.833 1279.5,449.5C 1277.93,454.6 1276.26,459.767 1274.5,465C 1224.83,465.5 1175.17,465.667 1125.5,465.5C 1125.5,428.833 1125.5,392.167 1125.5,355.5C 1175.83,355.5 1226.17,355.5 1276.5,355.5C 1276.5,362.167 1276.5,368.833 1276.5,375.5C 1236.17,375.5 1195.83,375.5 1155.5,375.5C 1155.5,383.167 1155.5,390.833 1155.5,398.5C 1195.83,398.5 1236.17,398.5 1276.5,398.5C 1276.5,405.5 1276.5,412.5 1276.5,419.5C 1236.17,419.5 1195.83,419.5 1155.5,419.5C 1155.5,427.833 1155.5,436.167 1155.5,444.5C 1196.83,444.5 1238.17,444.5 1279.5,444.5 Z"/></g>
<g><path style="opacity:0.62" fill="#000000" d="M 497.5,553.5 C 507.05,552.722 512.384,557.055 513.5,566.5C 510.807,578.459 503.807,581.959 492.5,577C 487.052,571.477 486.219,565.31 490,558.5C 492.17,556.177 494.67,554.51 497.5,553.5 Z M 506.5,573.5 C 505.758,571.574 504.758,569.741 503.5,568C 506.167,565.333 506.167,562.667 503.5,560C 500.518,559.502 497.518,559.335 494.5,559.5C 499.12,555.421 503.62,555.755 508,560.5C 511.265,565.291 510.765,569.625 506.5,573.5 Z M 494.5,559.5 C 494.5,564.167 494.5,568.833 494.5,573.5C 489.167,568.833 489.167,564.167 494.5,559.5 Z M 497.5,562.5 C 504.167,563.5 504.167,564.5 497.5,565.5C 497.5,564.5 497.5,563.5 497.5,562.5 Z M 506.5,573.5 C 502.5,577.5 498.5,577.5 494.5,573.5C 495.5,573.5 496.5,573.5 497.5,573.5C 497.568,567.326 499.235,566.993 502.5,572.5C 503.689,573.429 505.022,573.762 506.5,573.5 Z"/></g>
<g><path style="opacity:0.894" fill="#000000" d="M 340.5,555.5 C 358.167,555.5 375.833,555.5 393.5,555.5C 393.5,558.833 393.5,562.167 393.5,565.5C 379.5,565.5 365.5,565.5 351.5,565.5C 351.5,572.833 351.5,580.167 351.5,587.5C 363.5,587.5 375.5,587.5 387.5,587.5C 387.5,590.833 387.5,594.167 387.5,597.5C 375.5,597.5 363.5,597.5 351.5,597.5C 351.5,608.833 351.5,620.167 351.5,631.5C 347.833,631.5 344.167,631.5 340.5,631.5C 340.5,606.167 340.5,580.833 340.5,555.5 Z"/></g>
<g><path style="opacity:0.883" fill="#000000" d="M 425.5,555.5 C 434.833,555.5 444.167,555.5 453.5,555.5C 453.5,580.833 453.5,606.167 453.5,631.5C 449.833,631.5 446.167,631.5 442.5,631.5C 442.5,609.5 442.5,587.5 442.5,565.5C 436.833,565.5 431.167,565.5 425.5,565.5C 425.5,562.167 425.5,558.833 425.5,555.5 Z"/></g>
<g><path style="opacity:0.884" fill="#000000" d="M 577.5,555.5 C 597.5,555.5 617.5,555.5 637.5,555.5C 637.5,558.833 637.5,562.167 637.5,565.5C 629.5,565.5 621.5,565.5 613.5,565.5C 613.5,587.5 613.5,609.5 613.5,631.5C 609.833,631.5 606.167,631.5 602.5,631.5C 602.5,609.5 602.5,587.5 602.5,565.5C 594.167,565.5 585.833,565.5 577.5,565.5C 577.5,562.167 577.5,558.833 577.5,555.5 Z"/></g>
<g><path style="opacity:0.885" fill="#000000" d="M 674.5,555.5 C 691.167,555.5 707.833,555.5 724.5,555.5C 724.5,558.833 724.5,562.167 724.5,565.5C 711.167,565.5 697.833,565.5 684.5,565.5C 684.5,572.833 684.5,580.167 684.5,587.5C 697.167,587.5 709.833,587.5 722.5,587.5C 722.5,590.833 722.5,594.167 722.5,597.5C 709.833,597.5 697.167,597.5 684.5,597.5C 684.5,605.5 684.5,613.5 684.5,621.5C 698.5,621.5 712.5,621.5 726.5,621.5C 726.5,624.833 726.5,628.167 726.5,631.5C 709.167,631.5 691.833,631.5 674.5,631.5C 674.5,606.167 674.5,580.833 674.5,555.5 Z"/></g>
<g><path style="opacity:0.888" fill="#000000" d="M 784.5,555.5 C 788.555,555.176 792.555,555.509 796.5,556.5C 807.128,581.418 817.462,606.418 827.5,631.5C 823.233,631.797 819.066,631.464 815,630.5C 812.167,623.5 809.333,616.5 806.5,609.5C 796.183,608.334 785.849,608.168 775.5,609C 772.335,616.329 769.668,623.829 767.5,631.5C 763.5,631.5 759.5,631.5 755.5,631.5C 764.771,606.022 774.437,580.689 784.5,555.5 Z M 789.5,567.5 C 794.039,577.599 798.373,587.932 802.5,598.5C 794.521,599.665 786.521,599.832 778.5,599C 783.066,588.803 786.732,578.303 789.5,567.5 Z"/></g>
<g><path style="opacity:0.894" fill="#000000" d="M 861.5,555.5 C 867.206,555.171 872.872,555.505 878.5,556.5C 885.715,576.982 893.215,597.316 901,617.5C 908.402,597.128 915.902,576.795 923.5,556.5C 928.456,555.506 933.456,555.173 938.5,555.5C 938.5,580.833 938.5,606.167 938.5,631.5C 934.833,631.5 931.167,631.5 927.5,631.5C 927.667,611.831 927.5,592.164 927,572.5C 920,591.5 913,610.5 906,629.5C 904.302,630.733 902.302,631.4 900,631.5C 897.698,631.4 895.698,630.733 894,629.5C 887,609.833 880,590.167 873,570.5C 872.5,590.831 872.333,611.164 872.5,631.5C 868.833,631.5 865.167,631.5 861.5,631.5C 861.5,606.167 861.5,580.833 861.5,555.5 Z"/></g>
<g><path style="opacity:0.65" fill="#000000" d="M 494.5,559.5 C 497.518,559.335 500.518,559.502 503.5,560C 506.167,562.667 506.167,565.333 503.5,568C 504.758,569.741 505.758,571.574 506.5,573.5C 505.022,573.762 503.689,573.429 502.5,572.5C 499.235,566.993 497.568,567.326 497.5,573.5C 496.5,573.5 495.5,573.5 494.5,573.5C 494.5,568.833 494.5,564.167 494.5,559.5 Z M 497.5,562.5 C 497.5,563.5 497.5,564.5 497.5,565.5C 504.167,564.5 504.167,563.5 497.5,562.5 Z"/></g>
<g><path style="opacity:0.978" fill="#016fba" d="M 628.5,721.5 C 619.987,727.591 611.654,733.924 603.5,740.5C 575.5,740.5 547.5,740.5 519.5,740.5C 527.766,734.354 536.099,728.188 544.5,722C 572.498,721.5 600.498,721.333 628.5,721.5 Z"/></g>
<g><path style="opacity:0.985" fill="#fefdfe" d="M 628.5,721.5 C 644.167,721.5 659.833,721.5 675.5,721.5C 667.346,728.076 659.013,734.409 650.5,740.5C 634.833,740.5 619.167,740.5 603.5,740.5C 611.654,733.924 619.987,727.591 628.5,721.5 Z"/></g>
<g><path style="opacity:0.98" fill="#db0a0a" d="M 675.5,721.5 C 703.502,721.333 731.502,721.5 759.5,722C 750.743,727.7 742.409,733.867 734.5,740.5C 706.5,740.5 678.5,740.5 650.5,740.5C 659.013,734.409 667.346,728.076 675.5,721.5 Z"/></g>
</svg>
