<?xml version="1.0" encoding="UTF-8"?>
<!DOCTYPE svg PUBLIC "-//W3C//DTD SVG 1.1//EN" "http://www.w3.org/Graphics/SVG/1.1/DTD/svg11.dtd">
<svg xmlns="http://www.w3.org/2000/svg" version="1.1" width="3356px" height="2543px" style="shape-rendering:geometricPrecision; text-rendering:geometricPrecision; image-rendering:optimizeQuality; fill-rule:evenodd; clip-rule:evenodd" xmlns:xlink="http://www.w3.org/1999/xlink">
<g><path style="opacity:0.063" fill="#fefffe" d="M 0.5,-0.5 C 0.833333,-0.5 1.16667,-0.5 1.5,-0.5C 1.31468,0.170143 0.981346,0.170143 0.5,-0.5 Z"/></g>
<g><path style="opacity:0.996" fill="#00a0dd" d="M 1682.5,-0.5 C 1684.5,-0.5 1686.5,-0.5 1688.5,-0.5C 1689.02,2.89876 1689.85,6.23209 1691,9.5C 1698.59,23.677 1705.92,38.0104 1713,52.5C 2021.94,688.711 2330.61,1325.04 2639,1961.5C 2641.43,1971.07 2640.76,1980.41 2637,1989.5C 2558.72,2172.38 2480.72,2355.38 2403,2538.5C 2402.44,2539.02 2401.77,2539.36 2401,2539.5C 2397.84,2535.19 2395.17,2530.52 2393,2525.5C 2155.26,2023.68 1917.26,1522.01 1679,1020.5C 1447.77,1526.62 1216.27,2032.62 984.5,2538.5C 983.5,2539.83 982.5,2539.83 981.5,2538.5C 893.787,2353.74 806.62,2168.74 720,1983.5C 717.518,1972.05 718.852,1961.05 724,1950.5C 809.938,1777.62 895.605,1604.62 981,1431.5C 1182.12,1021.25 1383.79,611.254 1586,201.5C 1617.47,135.89 1649.47,70.5567 1682,5.5C 1682.5,3.5273 1682.66,1.5273 1682.5,-0.5 Z"/></g>
<g><path style="opacity:0.345" fill="#fefffe" d="M 3344.5,-0.5 C 3345.17,-0.5 3345.83,-0.5 3346.5,-0.5C 3345.83,0.833333 3345.17,0.833333 3344.5,-0.5 Z"/></g>
<g><path style="opacity:0.251" fill="#fefffe" d="M 3348.5,0.5 C 3349.83,1.16667 3349.83,1.16667 3348.5,0.5 Z"/></g>
<g><path style="opacity:0.376" fill="#fefffe" d="M -0.5,1.5 C 0.833333,2.16667 0.833333,2.16667 -0.5,1.5 Z"/></g>
<g><path style="opacity:0.063" fill="#fefffe" d="M 3351.5,2.5 C 3350.83,1.16667 3350.83,1.16667 3351.5,2.5 Z"/></g>
<g><path style="opacity:0.188" fill="#fefffe" d="M 3351.5,2.5 C 3352.17,2.5 3352.5,2.83333 3352.5,3.5C 3352.17,3.16667 3351.83,2.83333 3351.5,2.5 Z"/></g>
<g><path style="opacity:0.063" fill="#fefffe" d="M 3352.5,3.5 C 3353.83,4.16667 3353.83,4.16667 3352.5,3.5 Z"/></g>
<g><path style="opacity:0.251" fill="#fefffe" d="M 3353.5,5.5 C 3354.53,5.89657 3354.69,6.56323 3354,7.5C 3353.54,6.90558 3353.37,6.23891 3353.5,5.5 Z"/></g>
<g><path style="opacity:0.345" fill="#fefffe" d="M 3355.5,9.5 C 3355.5,10.1667 3355.5,10.8333 3355.5,11.5C 3354.17,10.8333 3354.17,10.1667 3355.5,9.5 Z"/></g>
<g><path style="opacity:0.997" fill="#009fdd" d="M 2771.5,31.5 C 2965.16,32.44 3158.83,32.7733 3352.5,32.5C 3139.31,615.58 2925.81,1198.58 2712,1781.5C 2710.89,1785.2 2709.22,1788.53 2707,1791.5C 2692.43,1764.69 2678.09,1737.69 2664,1710.5C 2568.84,1522.19 2473.18,1334.19 2377,1146.5C 2374.52,1137.14 2375.52,1128.14 2380,1119.5C 2507,759.833 2634,400.167 2761,40.5C 2762.88,35.4386 2766.38,32.4386 2771.5,31.5 Z"/></g>
<g><path style="opacity:0.996" fill="#009fdd" d="M -0.5,76.5 C -0.5,72.8333 -0.5,69.1667 -0.5,65.5C 164.167,65.8222 328.834,65.9889 493.5,66C 507.165,64.0238 520.832,63.6904 534.5,65C 546.869,68.367 555.035,76.2003 559,88.5C 567.736,119.374 578.069,149.707 590,179.5C 708.333,493.167 826.667,806.833 945,1120.5C 949.609,1131.85 949.609,1143.18 945,1154.5C 839.579,1366.01 735.246,1578.01 632,1790.5C 630.817,1791.73 629.651,1791.73 628.5,1790.5C 419.448,1220.51 211.281,650.178 4,79.5C 2.87099,77.8588 1.37099,76.8588 -0.5,76.5 Z"/></g>
<g><path style="opacity:0.345" fill="#fefffe" d="M 3355.5,2531.5 C 3355.5,2532.17 3355.5,2532.83 3355.5,2533.5C 3354.17,2532.83 3354.17,2532.17 3355.5,2531.5 Z"/></g>
<g><path style="opacity:0.251" fill="#fefffe" d="M -0.5,2533.5 C 0.833333,2534.17 0.833333,2534.17 -0.5,2533.5 Z"/></g>
<g><path style="opacity:0.251" fill="#fefffe" d="M 3353.5,2537.5 C 3353.37,2536.76 3353.54,2536.09 3354,2535.5C 3354.69,2536.44 3354.53,2537.1 3353.5,2537.5 Z"/></g>
<g><path style="opacity:0.125" fill="#fefffe" d="M 1.5,2537.5 C 0.833333,2536.17 0.833333,2536.17 1.5,2537.5 Z"/></g>
<g><path style="opacity:0.439" fill="#fefffe" d="M 1.5,2537.5 C 2.83333,2538.17 2.83333,2538.17 1.5,2537.5 Z"/></g>
<g><path style="opacity:0.439" fill="#fefffe" d="M 3353.5,2537.5 C 3352.83,2538.17 3352.83,2538.17 3353.5,2537.5 Z"/></g>
<g><path style="opacity:0.439" fill="#fefffe" d="M 4.5,2540.5 C 3.83333,2539.17 3.83333,2539.17 4.5,2540.5 Z"/></g>
<g><path style="opacity:0.125" fill="#fefffe" d="M 4.5,2540.5 C 5.83333,2541.17 5.83333,2541.17 4.5,2540.5 Z"/></g>
<g><path style="opacity:0.251" fill="#fefffe" d="M 3349.5,2540.5 C 3350.83,2541.17 3350.83,2541.17 3349.5,2540.5 Z"/></g>
<g><path style="opacity:0.251" fill="#fefffe" d="M 8.5,2542.5 C 7.83333,2541.17 7.83333,2541.17 8.5,2542.5 Z"/></g>
<g><path style="opacity:0.188" fill="#fefffe" d="M 3346.5,2542.5 C 3347.17,2541.17 3347.83,2541.17 3348.5,2542.5C 3347.83,2542.5 3347.17,2542.5 3346.5,2542.5 Z"/></g>
</svg>
