<?xml version="1.0" encoding="UTF-8"?>
<!DOCTYPE svg PUBLIC "-//W3C//DTD SVG 1.1//EN" "http://www.w3.org/Graphics/SVG/1.1/DTD/svg11.dtd">
<svg xmlns="http://www.w3.org/2000/svg" version="1.1" width="1920px" height="1080px" style="shape-rendering:geometricPrecision; text-rendering:geometricPrecision; image-rendering:optimizeQuality; fill-rule:evenodd; clip-rule:evenodd" xmlns:xlink="http://www.w3.org/1999/xlink">
<g><path style="opacity:1" fill="#00584e" d="M -0.5,-0.5 C 639.5,-0.5 1279.5,-0.5 1919.5,-0.5C 1919.5,359.5 1919.5,719.5 1919.5,1079.5C 1279.5,1079.5 639.5,1079.5 -0.5,1079.5C -0.5,719.5 -0.5,359.5 -0.5,-0.5 Z"/></g>
<g><path style="opacity:1" fill="#74b8af" d="M 978.5,259.5 C 980.402,262.337 981.069,265.671 980.5,269.5C 979.833,269.167 979.167,268.833 978.5,268.5C 978.5,265.5 978.5,262.5 978.5,259.5 Z"/></g>
<g><path style="opacity:1" fill="#1e4b46" d="M 429.5,291.5 C 333.833,291.333 238.166,291.5 142.5,292C 136.998,294.347 134.664,298.514 135.5,304.5C 133.928,299.572 134.928,295.072 138.5,291C 236.237,290.168 333.237,290.335 429.5,291.5 Z"/></g>
<g><path style="opacity:1" fill="#f0fbfa" d="M 429.5,291.5 C 438,294.495 444.167,300.162 448,308.5C 449.214,310.049 450.714,311.215 452.5,312C 460.833,312.167 469.167,312.333 477.5,312.5C 486.904,312.626 496.237,312.126 505.5,311C 509.019,305.635 513.019,300.635 517.5,296C 519.888,294.139 522.554,292.806 525.5,292C 621.5,291.333 717.5,291.333 813.5,292C 819.172,294.34 821.339,298.507 820,304.5C 817.366,310.272 813.866,315.439 809.5,320C 807.285,321.044 804.952,321.71 802.5,322C 798.586,327.159 794.92,332.493 791.5,338C 787.965,339.706 784.298,341.04 780.5,342C 776.933,348.236 772.6,353.903 767.5,359C 765.5,360 763.5,361 761.5,362C 725.107,372.464 688.774,383.131 652.5,394C 650.004,395.08 647.67,396.414 645.5,398C 640.452,406.049 633.785,412.382 625.5,417C 588.949,427.47 552.282,437.303 515.5,446.5C 510.635,446.49 506.302,444.99 502.5,442C 495.691,435.102 488.691,428.436 481.5,422C 479.167,420 476.833,420 474.5,422C 467.309,428.436 460.309,435.102 453.5,442C 449.57,444.588 445.236,446.088 440.5,446.5C 404.266,437.923 368.266,428.423 332.5,418C 323.268,413.435 315.935,406.769 310.5,398C 308.33,396.414 305.996,395.08 303.5,394C 267.833,383.667 232.167,373.333 196.5,363C 191.036,361.186 186.536,358.02 183,353.5C 180.873,349.411 178.373,345.577 175.5,342C 171.659,341.124 167.993,339.791 164.5,338C 161.08,332.493 157.414,327.159 153.5,322C 148.573,321.786 144.739,319.619 142,315.5C 139.807,311.77 137.64,308.103 135.5,304.5C 134.664,298.514 136.998,294.347 142.5,292C 238.166,291.5 333.833,291.333 429.5,291.5 Z"/></g>
<g><path style="opacity:1" fill="#e3fefe" d="M 427.5,298.5 C 332.763,298.169 238.096,298.503 143.5,299.5C 190.495,298.167 237.829,297.5 285.5,297.5C 333.001,297.5 380.335,297.833 427.5,298.5 Z"/></g>
<g><path style="opacity:1" fill="#085b50" d="M 811.5,299.5 C 810.209,301.949 809.209,304.616 808.5,307.5C 806.838,308.327 805.505,309.493 804.5,311C 801.5,311.333 798.5,311.667 795.5,312C 701.763,312.831 608.097,312.664 514.5,311.5C 517.01,305.491 521.343,301.324 527.5,299C 622.334,298.168 717.001,298.334 811.5,299.5 Z"/></g>
<g><path style="opacity:1" fill="#085b50" d="M 427.5,298.5 C 434.05,300.714 438.717,305.047 441.5,311.5C 345.402,312.164 249.402,312.831 153.5,313.5C 148.91,312.079 145.744,309.079 144,304.5C 143.506,302.866 143.34,301.199 143.5,299.5C 238.096,298.503 332.763,298.169 427.5,298.5 Z"/></g>
<g><path style="opacity:1" fill="#1b4c46" d="M 441.5,311.5 C 441.611,312.117 441.944,312.617 442.5,313C 346.167,313.5 249.834,313.667 153.5,313.5C 249.402,312.831 345.402,312.164 441.5,311.5 Z"/></g>
<g><path style="opacity:1" fill="#1c4d47" d="M 811.5,299.5 C 812.309,305.297 809.976,309.797 804.5,313C 707.5,313.667 610.5,313.667 513.5,313C 514.056,312.617 514.389,312.117 514.5,311.5C 608.097,312.664 701.763,312.831 795.5,312C 798.5,311.667 801.5,311.333 804.5,311C 805.505,309.493 806.838,308.327 808.5,307.5C 809.209,304.616 810.209,301.949 811.5,299.5 Z"/></g>
<g><path style="opacity:1" fill="#d9fcfb" d="M 319.5,319.5 C 266.823,318.838 214.489,319.504 162.5,321.5C 161.596,320.791 161.263,319.791 161.5,318.5C 214.336,318.168 267.003,318.501 319.5,319.5 Z"/></g>
<g><path style="opacity:1" fill="#dafdfc" d="M 792.5,319.5 C 740.5,319.5 688.5,319.5 636.5,319.5C 636.5,321.833 636.5,324.167 636.5,326.5C 635.527,324.052 635.194,321.385 635.5,318.5C 688.003,318.168 740.336,318.501 792.5,319.5 Z"/></g>
<g><path style="opacity:1" fill="#115b51" d="M 319.5,319.5 C 319.5,321.833 319.5,324.167 319.5,326.5C 270.844,329.45 222.177,331.95 173.5,334C 172.167,333.333 170.833,332.667 169.5,332C 166.771,328.692 164.438,325.192 162.5,321.5C 214.489,319.504 266.823,318.838 319.5,319.5 Z"/></g>
<g><path style="opacity:1" fill="#08584e" d="M 628.5,319.5 C 628.5,334.833 628.5,350.167 628.5,365.5C 527.43,365.831 426.43,365.498 325.5,364.5C 325.5,349.5 325.5,334.5 325.5,319.5C 426.5,319.5 527.5,319.5 628.5,319.5 Z"/></g>
<g><path style="opacity:1" fill="#125c52" d="M 792.5,319.5 C 790.635,330.462 783.801,335.462 772,334.5C 726.861,331.252 681.694,328.585 636.5,326.5C 636.5,324.167 636.5,321.833 636.5,319.5C 688.5,319.5 740.5,319.5 792.5,319.5 Z"/></g>
<g><path style="opacity:1" fill="#517e78" d="M 579.5,329.5 C 572.167,329.5 564.833,329.5 557.5,329.5C 557.5,330.833 557.5,332.167 557.5,333.5C 558.833,333.5 560.167,333.5 561.5,333.5C 560.081,334.451 558.415,334.784 556.5,334.5C 556.5,332.5 556.5,330.5 556.5,328.5C 564.352,328.175 572.018,328.508 579.5,329.5 Z"/></g>
<g><path style="opacity:1" fill="#f4fefe" d="M 380.5,329.5 C 388.167,329.5 395.833,329.5 403.5,329.5C 403.5,330.833 403.5,332.167 403.5,333.5C 400.5,333.5 397.5,333.5 394.5,333.5C 394.5,341.5 394.5,349.5 394.5,357.5C 392.833,357.5 391.167,357.5 389.5,357.5C 389.5,349.5 389.5,341.5 389.5,333.5C 386.5,333.5 383.5,333.5 380.5,333.5C 380.5,332.167 380.5,330.833 380.5,329.5 Z"/></g>
<g><path style="opacity:1" fill="#eaf9f8" d="M 346.5,328.5 C 347.675,328.281 348.675,328.614 349.5,329.5C 353.43,338.125 357.264,346.792 361,355.5C 361.495,353.527 361.662,351.527 361.5,349.5C 364.114,349.277 365.781,350.444 366.5,353C 369.835,355.291 372.668,354.791 375,351.5C 375.711,349.633 375.211,348.133 373.5,347C 365.696,345.559 362.196,341.059 363,333.5C 367.158,328.497 372.325,327.164 378.5,329.5C 378.799,331.604 378.466,333.604 377.5,335.5C 375.408,332.848 372.742,332.014 369.5,333C 366.833,335 366.833,337 369.5,339C 373.363,340.181 376.863,342.014 380,344.5C 382.093,353.251 378.593,357.918 369.5,358.5C 367.05,358.239 364.717,357.572 362.5,356.5C 360.232,357.544 357.899,357.711 355.5,357C 354.601,354.808 353.601,352.642 352.5,350.5C 348.893,349.511 345.226,349.177 341.5,349.5C 341.244,351.937 340.577,354.271 339.5,356.5C 337.833,357.833 336.167,357.833 334.5,356.5C 338.701,347.225 342.701,337.891 346.5,328.5 Z"/></g>
<g><path style="opacity:1" fill="#e4f5f3" d="M 435.5,329.5 C 436.873,329.343 438.207,329.51 439.5,330C 445.033,335.198 450.2,340.698 455,346.5C 455.499,340.843 455.666,335.176 455.5,329.5C 457.167,329.5 458.833,329.5 460.5,329.5C 460.5,338.833 460.5,348.167 460.5,357.5C 459.022,357.762 457.689,357.429 456.5,356.5C 451.149,350.983 445.982,345.316 441,339.5C 440.501,345.491 440.334,351.491 440.5,357.5C 438.833,357.5 437.167,357.5 435.5,357.5C 435.5,348.167 435.5,338.833 435.5,329.5 Z"/></g>
<g><path style="opacity:1" fill="#effbfa" d="M 502.5,329.5 C 502.861,338.578 503.861,347.578 505.5,356.5C 504.167,356.5 502.833,356.5 501.5,356.5C 501.666,352.486 501.499,348.486 501,344.5C 500.722,343.584 500.222,342.918 499.5,342.5C 499.19,341.262 498.69,341.262 498,342.5C 495.827,347.521 493.16,352.188 490,356.5C 486.76,351.695 483.76,346.695 481,341.5C 479.661,346.736 479.161,352.07 479.5,357.5C 477.833,357.5 476.167,357.5 474.5,357.5C 475.5,348.169 476.5,338.836 477.5,329.5C 478.978,329.238 480.311,329.571 481.5,330.5C 484.16,336.49 487.326,342.156 491,347.5C 494.255,341.992 497.255,336.325 500,330.5C 500.671,329.748 501.504,329.414 502.5,329.5 Z"/></g>
<g><path style="opacity:1" fill="#ebf9f8" d="M 520.5,328.5 C 521.675,328.281 522.675,328.614 523.5,329.5C 527.371,338.74 531.371,347.907 535.5,357C 533.19,357.497 530.857,357.663 528.5,357.5C 527.833,354.833 527.167,352.167 526.5,349.5C 522.774,349.177 519.107,349.511 515.5,350.5C 514.423,352.729 513.756,355.063 513.5,357.5C 511.833,357.5 510.167,357.5 508.5,357.5C 512.218,347.73 516.218,338.063 520.5,328.5 Z"/></g>
<g><path style="opacity:1" fill="#edfbfb" d="M 548.5,329.5 C 554.623,330.796 556.79,334.463 555,340.5C 553.842,342.491 552.342,344.158 550.5,345.5C 553.122,349.457 556.122,353.124 559.5,356.5C 557.167,357.833 554.833,357.833 552.5,356.5C 549.959,352.748 546.959,349.415 543.5,346.5C 542.511,350.107 542.177,353.774 542.5,357.5C 540.833,357.5 539.167,357.5 537.5,357.5C 537.5,348.167 537.5,338.833 537.5,329.5C 541.167,329.5 544.833,329.5 548.5,329.5 Z"/></g>
<g><path style="opacity:1" fill="#e5f7f5" d="M 582.5,329.5 C 584.5,329.5 586.5,329.5 588.5,329.5C 588.5,338.833 588.5,348.167 588.5,357.5C 586.5,357.5 584.5,357.5 582.5,357.5C 582.5,348.167 582.5,338.833 582.5,329.5 Z"/></g>
<g><path style="opacity:1" fill="#e6f6f5" d="M 612.5,346.5 C 612.56,347.043 612.893,347.376 613.5,347.5C 614.496,341.537 614.829,335.537 614.5,329.5C 615.833,329.5 617.167,329.5 618.5,329.5C 618.5,338.833 618.5,348.167 618.5,357.5C 617.022,357.762 615.689,357.429 614.5,356.5C 609.149,350.983 603.982,345.316 599,339.5C 598.501,345.491 598.334,351.491 598.5,357.5C 596.833,357.5 595.167,357.5 593.5,357.5C 593.5,348.167 593.5,338.833 593.5,329.5C 594.873,329.343 596.207,329.51 597.5,330C 603.076,335.071 608.076,340.571 612.5,346.5 Z"/></g>
<g><path style="opacity:1" fill="#b4c6c5" d="M 614.5,329.5 C 614.829,335.537 614.496,341.537 613.5,347.5C 612.893,347.376 612.56,347.043 612.5,346.5C 613.167,340.833 613.833,335.167 614.5,329.5 Z"/></g>
<g><path style="opacity:1" fill="#9abab6" d="M 312.5,332.5 C 314.948,331.527 317.615,331.194 320.5,331.5C 320.806,334.385 320.473,337.052 319.5,339.5C 319.5,337.167 319.5,334.833 319.5,332.5C 317.167,332.5 314.833,332.5 312.5,332.5 Z"/></g>
<g><path style="opacity:1" fill="#f5fefe" d="M 579.5,329.5 C 579.5,330.833 579.5,332.167 579.5,333.5C 576.833,333.5 574.167,333.5 571.5,333.5C 570.508,340.982 570.175,348.648 570.5,356.5C 569.167,356.5 567.833,356.5 566.5,356.5C 566.825,348.648 566.492,340.982 565.5,333.5C 564.167,333.5 562.833,333.5 561.5,333.5C 560.167,333.5 558.833,333.5 557.5,333.5C 557.5,332.167 557.5,330.833 557.5,329.5C 564.833,329.5 572.167,329.5 579.5,329.5 Z"/></g>
<g><path style="opacity:1" fill="#c3e8e5" d="M 649.5,332.5 C 669.878,332.453 690.211,333.286 710.5,335C 714.465,335.108 718.132,335.941 721.5,337.5C 697.344,335.908 673.344,334.241 649.5,332.5 Z"/></g>
<g><path style="opacity:1" fill="#0e5a4f" d="M 312.5,332.5 C 314.833,332.5 317.167,332.5 319.5,332.5C 319.5,334.833 319.5,337.167 319.5,339.5C 279.675,343.536 239.842,347.536 200,351.5C 192.129,352.477 186.963,349.144 184.5,341.5C 186.833,340.833 189.167,340.167 191.5,339.5C 231.83,337.122 272.164,334.789 312.5,332.5 Z"/></g>
<g><path style="opacity:1" fill="#86bdb5" d="M 640.5,332.5 C 639.167,332.5 637.833,332.5 636.5,332.5C 636.5,334.833 636.5,337.167 636.5,339.5C 635.527,337.052 635.194,334.385 635.5,331.5C 637.415,331.216 639.081,331.549 640.5,332.5 Z"/></g>
<g><path style="opacity:1" fill="#0b584e" d="M 640.5,332.5 C 643.5,332.5 646.5,332.5 649.5,332.5C 673.344,334.241 697.344,335.908 721.5,337.5C 735.173,338.076 748.839,338.743 762.5,339.5C 765.5,340.167 768.5,340.833 771.5,341.5C 768.479,350.014 762.479,353.347 753.5,351.5C 714.462,347.827 675.462,343.827 636.5,339.5C 636.5,337.167 636.5,334.833 636.5,332.5C 637.833,332.5 639.167,332.5 640.5,332.5 Z"/></g>
<g><path style="opacity:1" fill="#e9f8f7" d="M 412.5,328.5 C 426.491,327.326 432.991,333.659 432,347.5C 426.489,358.447 418.323,360.947 407.5,355C 403.652,349.452 402.485,343.285 404,336.5C 406.074,332.923 408.907,330.256 412.5,328.5 Z"/></g>
<g><path style="opacity:1" fill="#0a594e" d="M 414.5,332.5 C 419.439,331.352 422.939,333.019 425,337.5C 425.667,341.167 425.667,344.833 425,348.5C 422.523,354.45 418.357,355.95 412.5,353C 409.637,348.219 408.804,343.052 410,337.5C 411.025,335.313 412.525,333.646 414.5,332.5 Z"/></g>
<g><path style="opacity:1" fill="#90b3ae" d="M 548.5,329.5 C 544.833,329.5 541.167,329.5 537.5,329.5C 537.5,338.833 537.5,348.167 537.5,357.5C 536.506,348.014 536.173,338.348 536.5,328.5C 540.702,328.183 544.702,328.517 548.5,329.5 Z"/></g>
<g><path style="opacity:1" fill="#c0ddd9" d="M 565.5,333.5 C 566.492,340.982 566.825,348.648 566.5,356.5C 567.833,356.5 569.167,356.5 570.5,356.5C 570.175,348.648 570.508,340.982 571.5,333.5C 571.5,341.5 571.5,349.5 571.5,357.5C 569.5,357.5 567.5,357.5 565.5,357.5C 565.5,349.5 565.5,341.5 565.5,333.5 Z"/></g>
<g><path style="opacity:1" fill="#6aa89f" d="M 191.5,339.5 C 189.167,340.167 186.833,340.833 184.5,341.5C 183.957,341.44 183.624,341.107 183.5,340.5C 186.086,339.52 188.753,339.187 191.5,339.5 Z"/></g>
<g><path style="opacity:1" fill="#235a53" d="M 542.5,332.5 C 546.733,331.742 549.399,333.409 550.5,337.5C 549.183,341.166 546.517,342.832 542.5,342.5C 542.5,339.167 542.5,335.833 542.5,332.5 Z"/></g>
<g><path style="opacity:1" fill="#7fb1aa" d="M 762.5,339.5 C 765.898,339.18 769.232,339.513 772.5,340.5C 772.376,341.107 772.043,341.44 771.5,341.5C 768.5,340.833 765.5,340.167 762.5,339.5 Z"/></g>
<g><path style="opacity:1" fill="#1d564d" d="M 520.5,338.5 C 522.448,340.32 523.448,342.654 523.5,345.5C 521.833,345.5 520.167,345.5 518.5,345.5C 518.767,343.035 519.434,340.701 520.5,338.5 Z"/></g>
<g><path style="opacity:1" fill="#1f5750" d="M 346.5,338.5 C 348.447,340.216 349.781,342.383 350.5,345C 348.527,345.495 346.527,345.662 344.5,345.5C 344.878,343.079 345.545,340.746 346.5,338.5 Z"/></g>
<g><path style="opacity:1" fill="#105a50" d="M 319.5,353.5 C 292.669,357.541 265.835,361.541 239,365.5C 227.669,364.459 216.836,361.792 206.5,357.5C 244.122,353.126 281.789,349.126 319.5,345.5C 319.5,348.167 319.5,350.833 319.5,353.5 Z"/></g>
<g><path style="opacity:1" fill="#115a50" d="M 636.5,345.5 C 673.905,348.971 711.238,353.138 748.5,358C 737.497,362.085 726.163,364.585 714.5,365.5C 688.429,361.933 662.429,357.933 636.5,353.5C 636.5,350.833 636.5,348.167 636.5,345.5 Z"/></g>
<g><path style="opacity:1" fill="#f0f8f8" d="M 982.5,668.5 C 982.462,712.511 981.795,756.511 980.5,800.5C 979.833,801.167 979.167,801.833 978.5,802.5C 978.167,785.833 977.833,769.167 977.5,752.5C 976.844,717.833 976.178,683.166 975.5,648.5C 975.264,548.83 975.597,449.163 976.5,349.5C 977.332,339.524 977.666,329.524 977.5,319.5C 978.151,318.909 978.818,318.243 979.5,317.5C 981.967,434.487 982.967,551.487 982.5,668.5 Z"/></g>
<g><path style="opacity:1" fill="#daf7f6" d="M 319.5,353.5 C 319.5,350.833 319.5,348.167 319.5,345.5C 281.789,349.126 244.122,353.126 206.5,357.5C 206.953,356.542 207.619,355.708 208.5,355C 245.802,350.95 283.135,347.45 320.5,344.5C 320.81,347.713 320.477,350.713 319.5,353.5 Z"/></g>
<g><path style="opacity:1" fill="#cff0ee" d="M 502.5,329.5 C 503.117,329.611 503.617,329.944 504,330.5C 505.164,339.477 505.997,348.477 506.5,357.5C 504.5,357.5 502.5,357.5 500.5,357.5C 500.587,352.463 500.254,347.463 499.5,342.5C 500.222,342.918 500.722,343.584 501,344.5C 501.499,348.486 501.666,352.486 501.5,356.5C 502.833,356.5 504.167,356.5 505.5,356.5C 503.861,347.578 502.861,338.578 502.5,329.5 Z"/></g>
<g><path style="opacity:1" fill="#0f594f" d="M 316.5,359.5 C 317.5,359.5 318.5,359.5 319.5,359.5C 319.736,362.609 319.403,365.609 318.5,368.5C 305.22,372.425 291.72,375.425 278,377.5C 268.643,376.203 259.477,374.036 250.5,371C 272.304,366.478 294.304,362.645 316.5,359.5 Z"/></g>
<g><path style="opacity:1" fill="#a3bab7" d="M 316.5,359.5 C 317.568,358.566 318.901,358.232 320.5,358.5C 321.069,362.329 320.402,365.663 318.5,368.5C 319.403,365.609 319.736,362.609 319.5,359.5C 318.5,359.5 317.5,359.5 316.5,359.5 Z"/></g>
<g><path style="opacity:1" fill="#87beb6" d="M 638.5,359.5 C 636.631,361.635 635.964,364.302 636.5,367.5C 635.523,364.713 635.19,361.713 635.5,358.5C 636.791,358.263 637.791,358.596 638.5,359.5 Z"/></g>
<g><path style="opacity:1" fill="#0c584e" d="M 638.5,359.5 C 660.555,363.009 682.555,366.842 704.5,371C 695.221,374.195 685.721,376.362 676,377.5C 662.408,375.462 649.241,372.129 636.5,367.5C 635.964,364.302 636.631,361.635 638.5,359.5 Z"/></g>
<g><path style="opacity:1" fill="#366860" d="M 628.5,319.5 C 630.485,335.132 631.151,351.132 630.5,367.5C 528.833,367.5 427.167,367.5 325.5,367.5C 325.5,366.5 325.5,365.5 325.5,364.5C 426.43,365.498 527.43,365.831 628.5,365.5C 628.5,350.167 628.5,334.833 628.5,319.5 Z"/></g>
<g><path style="opacity:1" fill="#15584f" d="M 978.5,259.5 C 978.5,262.5 978.5,265.5 978.5,268.5C 978.5,285.508 978.166,302.508 977.5,319.5C 977.666,329.524 977.332,339.524 976.5,349.5C 975.67,359.992 975.17,370.659 975,381.5C 974.168,470.668 974.334,559.668 975.5,648.5C 976.178,683.166 976.844,717.833 977.5,752.5C 976.862,748.573 976.029,744.573 975,740.5C 974.667,729.833 974.333,719.167 974,708.5C 973.333,594.833 973.333,481.167 974,367.5C 974.645,333.49 975.645,299.49 977,265.5C 977.191,263.292 977.691,261.292 978.5,259.5 Z"/></g>
<g><path style="opacity:1" fill="#11594f" d="M 321.5,372.5 C 331.839,372.334 342.172,372.5 352.5,373C 342.067,378.217 331.401,382.883 320.5,387C 310.014,388.055 300.014,386.388 290.5,382C 301.037,379.096 311.37,375.929 321.5,372.5 Z"/></g>
<g><path style="opacity:1" fill="#0c594f" d="M 365.5,372.5 C 372.841,372.334 380.174,372.5 387.5,373C 371.381,385.116 354.714,396.449 337.5,407C 334.134,408.879 330.8,408.879 327.5,407C 323.833,402.667 320.167,398.333 316.5,394C 322.022,392.937 327.356,391.27 332.5,389C 343.592,383.454 354.592,377.954 365.5,372.5 Z"/></g>
<g><path style="opacity:1" fill="#09584e" d="M 397.5,372.5 C 403.842,372.334 410.175,372.5 416.5,373C 402.446,387.054 388.446,401.054 374.5,415C 371.317,417.178 367.817,418.344 364,418.5C 356.197,416.672 348.363,414.838 340.5,413C 360.236,400.472 379.236,386.972 397.5,372.5 Z"/></g>
<g><path style="opacity:1" fill="#0a594e" d="M 424.5,372.5 C 430.176,372.334 435.843,372.501 441.5,373C 431.458,388.918 421.291,404.752 411,420.5C 409.167,422.333 407.333,424.167 405.5,426C 402.925,426.958 400.259,427.458 397.5,427.5C 390.043,426.241 382.709,424.408 375.5,422C 392.649,406.351 408.982,389.851 424.5,372.5 Z"/></g>
<g><path style="opacity:1" fill="#08584e" d="M 448.5,372.5 C 453.167,372.5 457.833,372.5 462.5,372.5C 456.308,391.909 449.808,411.243 443,430.5C 441.021,434.819 437.687,437.152 433,437.5C 425.028,435.882 417.194,433.715 409.5,431C 412.667,429.167 415.167,426.667 417,423.5C 427.522,406.444 438.022,389.444 448.5,372.5 Z"/></g>
<g><path style="opacity:1" fill="#06584e" d="M 493.5,372.5 C 498.214,372.173 502.88,372.507 507.5,373.5C 518.25,389.998 528.75,406.665 539,423.5C 540.833,426.667 543.333,429.167 546.5,431C 538.646,433.175 530.812,435.342 523,437.5C 519.145,437.405 516.145,435.738 514,432.5C 506.662,412.651 499.828,392.651 493.5,372.5 Z"/></g>
<g><path style="opacity:1" fill="#07584e" d="M 514.5,373.5 C 519.985,372.348 525.651,372.182 531.5,373C 542.667,384.833 553.833,396.667 565,408.5C 569.575,413.746 574.742,418.246 580.5,422C 574.167,423.667 567.833,425.333 561.5,427C 554.42,428.877 548.92,426.711 545,420.5C 534.809,404.768 524.643,389.102 514.5,373.5 Z"/></g>
<g><path style="opacity:1" fill="#09584e" d="M 539.5,373.5 C 545.653,372.347 551.986,372.18 558.5,373C 577.009,387.083 596.009,400.416 615.5,413C 608.754,414.353 602.087,416.02 595.5,418C 591.739,418.738 588.072,418.405 584.5,417C 582.167,415.333 579.833,413.667 577.5,412C 565.327,398.661 552.661,385.828 539.5,373.5 Z"/></g>
<g><path style="opacity:1" fill="#0a594e" d="M 568.5,373.5 C 575.655,372.345 582.988,372.178 590.5,373C 602.044,378.939 613.711,384.606 625.5,390C 629.981,391.954 634.648,393.287 639.5,394C 635.833,398.333 632.167,402.667 628.5,407C 625.97,408.422 623.303,408.755 620.5,408C 616.941,406.772 613.608,405.106 610.5,403C 596.62,392.947 582.62,383.114 568.5,373.5 Z"/></g>
<g><path style="opacity:1" fill="#0d584e" d="M 603.5,373.5 C 613.325,372.342 623.325,372.175 633.5,373C 644.113,376.205 654.78,379.205 665.5,382C 655.943,386.378 645.943,388.045 635.5,387C 624.707,382.769 614.04,378.269 603.5,373.5 Z"/></g>
<g><path style="opacity:1" fill="#0a594f" d="M 469.5,372.5 C 475.206,372.171 480.872,372.505 486.5,373.5C 493.992,394.477 501.158,415.477 508,436.5C 500.5,429.667 493,422.833 485.5,416C 480.5,412.667 475.5,412.667 470.5,416C 463.197,422.302 456.197,428.968 449.5,436C 448.668,436.688 448.002,436.521 447.5,435.5C 455.242,414.605 462.576,393.605 469.5,372.5 Z"/></g>
<g><path style="opacity:1" fill="#ceefec" d="M 978.5,268.5 C 979.167,268.833 979.833,269.167 980.5,269.5C 983.515,402.65 984.182,535.65 982.5,668.5C 982.967,551.487 981.967,434.487 979.5,317.5C 978.818,318.243 978.151,318.909 977.5,319.5C 978.166,302.508 978.5,285.508 978.5,268.5 Z"/></g>
<g><path style="opacity:1" fill="#1a4c46" d="M 976.5,349.5 C 975.597,449.163 975.264,548.83 975.5,648.5C 974.334,559.668 974.168,470.668 975,381.5C 975.17,370.659 975.67,359.992 976.5,349.5 Z"/></g>
<g><path style="opacity:1" fill="#fdfefe" d="M 1584.5,497.5 C 1586.97,502.956 1588.8,508.623 1590,514.5C 1590.5,540.831 1590.67,567.165 1590.5,593.5C 1581.5,593.5 1572.5,593.5 1563.5,593.5C 1563.97,568.102 1563.47,542.769 1562,517.5C 1560.17,513 1557,509.833 1552.5,508C 1545.14,507.364 1537.81,507.531 1530.5,508.5C 1529.17,508.5 1527.83,508.5 1526.5,508.5C 1526.52,510.927 1527.02,513.26 1528,515.5C 1528.5,541.498 1528.67,567.498 1528.5,593.5C 1519.5,593.5 1510.5,593.5 1501.5,593.5C 1501.83,568.994 1501.5,544.661 1500.5,520.5C 1500.29,516.879 1499.29,513.546 1497.5,510.5C 1497.28,509.265 1496.61,508.265 1495.5,507.5C 1490.67,507.167 1485.83,506.833 1481,506.5C 1475.66,506.552 1470.49,507.219 1465.5,508.5C 1464.5,536.492 1464.17,564.492 1464.5,592.5C 1456.17,592.5 1447.83,592.5 1439.5,592.5C 1439.17,558.827 1439.5,525.16 1440.5,491.5C 1441.52,491.145 1442.19,490.478 1442.5,489.5C 1444.99,488.677 1447.32,487.677 1449.5,486.5C 1466.68,482.442 1484.01,481.608 1501.5,484C 1505.73,485.369 1509.9,486.869 1514,488.5C 1533.37,481.247 1552.87,480.747 1572.5,487C 1575.17,488.667 1577.83,490.333 1580.5,492C 1582.46,493.451 1583.8,495.284 1584.5,497.5 Z"/></g>
<g><path style="opacity:1" fill="#fbfdfd" d="M 1694.5,491.5 C 1695.09,494.596 1694.09,496.929 1691.5,498.5C 1689.79,502.75 1687.46,506.583 1684.5,510C 1683.21,510.49 1681.87,510.657 1680.5,510.5C 1672.1,507.59 1663.44,506.757 1654.5,508C 1640.46,513.225 1633.79,523.392 1634.5,538.5C 1635.18,565.66 1648.84,576.16 1675.5,570C 1678.41,568.627 1681.25,567.127 1684,565.5C 1689.11,570.9 1693.61,576.733 1697.5,583C 1695.68,586.251 1693.02,588.585 1689.5,590C 1686.98,591.341 1684.31,592.174 1681.5,592.5C 1674.37,593.351 1667.2,594.017 1660,594.5C 1655.83,594.333 1651.67,594.167 1647.5,594C 1640.87,591.504 1634.2,589.004 1627.5,586.5C 1614.14,577.118 1606.97,564.118 1606,547.5C 1603.14,518.711 1614.64,498.211 1640.5,486C 1655.93,481.292 1671.26,481.625 1686.5,487C 1689.39,488.274 1692.06,489.774 1694.5,491.5 Z"/></g>
<g><path style="opacity:1" fill="#fcfefe" d="M 1210.5,505.5 C 1213.07,514.314 1214.9,523.314 1216,532.5C 1216.5,553.164 1216.67,573.831 1216.5,594.5C 1196.83,594.5 1177.17,594.5 1157.5,594.5C 1124.4,590.897 1108.07,572.397 1108.5,539C 1111.25,503.581 1130.42,485.081 1166,483.5C 1182.84,482.366 1196.84,488.033 1208,500.5C 1208.85,502.193 1209.68,503.86 1210.5,505.5 Z"/></g>
<g><path style="opacity:1" fill="#fdfefe" d="M 1310.5,484.5 C 1311.52,489.911 1310.35,494.911 1307,499.5C 1306.5,502.482 1306.34,505.482 1306.5,508.5C 1298.98,506.577 1291.31,506.077 1283.5,507C 1282.94,507.383 1282.61,507.883 1282.5,508.5C 1282.17,508.5 1281.83,508.5 1281.5,508.5C 1271.22,510.611 1265.06,516.944 1263,527.5C 1262.5,530.146 1262.34,532.813 1262.5,535.5C 1261.5,554.326 1261.17,573.326 1261.5,592.5C 1252.83,592.5 1244.17,592.5 1235.5,592.5C 1235.5,570.833 1235.5,549.167 1235.5,527.5C 1235.94,520.512 1237.61,513.845 1240.5,507.5C 1247.12,496.494 1256.79,489.327 1269.5,486C 1283.08,483.361 1296.75,482.861 1310.5,484.5 Z"/></g>
<g><path style="opacity:1" fill="#fcfefe" d="M 1410.5,500.5 C 1415.68,510.508 1418.84,521.174 1420,532.5C 1420.5,553.164 1420.67,573.831 1420.5,594.5C 1401.5,594.667 1382.5,594.5 1363.5,594C 1356.5,592.751 1349.5,591.584 1342.5,590.5C 1323.32,583.171 1313.15,569.171 1312,548.5C 1309.25,513.129 1325.08,491.629 1359.5,484C 1376.15,481.799 1391.48,485.133 1405.5,494C 1407.79,495.777 1409.46,497.944 1410.5,500.5 Z"/></g>
<g><path style="opacity:1" fill="#fbfefd" d="M 1802.5,507.5 C 1806.52,515.873 1809.69,524.54 1812,533.5C 1812.47,545.945 1809.64,557.612 1803.5,568.5C 1798.84,574.824 1793.84,580.824 1788.5,586.5C 1785.09,589.54 1781.09,591.54 1776.5,592.5C 1770.8,593.882 1764.96,594.549 1759,594.5C 1750.78,593.905 1742.62,592.905 1734.5,591.5C 1709.52,578.959 1698.35,558.626 1701,530.5C 1708.37,501.624 1726.87,485.957 1756.5,483.5C 1776.11,483.636 1791.44,491.636 1802.5,507.5 Z"/></g>
<g><path style="opacity:1" fill="#184e48" d="M 1449.5,486.5 C 1447.32,487.677 1444.99,488.677 1442.5,489.5C 1441.42,489.539 1440.42,489.873 1439.5,490.5C 1438.5,525.16 1438.17,559.827 1438.5,594.5C 1447.83,594.5 1457.17,594.5 1466.5,594.5C 1456.76,595.829 1446.93,595.829 1437,594.5C 1436.17,559.495 1436.33,524.495 1437.5,489.5C 1441.26,487.559 1445.26,486.559 1449.5,486.5 Z"/></g>
<g><path style="opacity:1" fill="#1f5850" d="M 848.5,503.5 C 844.5,503.5 840.5,503.5 836.5,503.5C 833.5,503.5 830.5,503.5 827.5,503.5C 752.173,502.263 676.84,501.596 601.5,501.5C 442.322,499.91 282.988,500.576 123.5,503.5C 117.074,502.88 111.074,503.547 105.5,505.5C 104.596,504.791 104.263,503.791 104.5,502.5C 160.482,500.821 216.482,499.655 272.5,499C 428.956,498.588 585.122,498.421 741,498.5C 764.077,500.19 787.244,501.357 810.5,502C 822.409,502.821 834.243,502.654 846,501.5C 846.995,502.066 847.828,502.733 848.5,503.5 Z"/></g>
<g><path style="opacity:1" fill="#ceefed" d="M 1310.5,484.5 C 1311.5,484.5 1312.5,484.5 1313.5,484.5C 1311.21,492.757 1309.21,501.09 1307.5,509.5C 1299.19,508.76 1290.85,508.427 1282.5,508.5C 1282.61,507.883 1282.94,507.383 1283.5,507C 1291.31,506.077 1298.98,506.577 1306.5,508.5C 1306.34,505.482 1306.5,502.482 1307,499.5C 1310.35,494.911 1311.52,489.911 1310.5,484.5 Z"/></g>
<g><path style="opacity:1" fill="#f9fdfd" d="M 601.5,501.5 C 676.84,501.596 752.173,502.263 827.5,503.5C 781.764,504.169 735.931,504.836 690,505.5C 689.586,505.043 689.086,504.709 688.5,504.5C 685.891,505.23 683.224,505.73 680.5,506C 547.5,506.5 414.5,506.667 281.5,506.5C 275.631,505.795 269.631,505.129 263.5,504.5C 262.914,504.709 262.414,505.043 262,505.5C 246.241,504.675 230.407,504.175 214.5,504C 343.491,501.927 472.491,501.093 601.5,501.5 Z"/></g>
<g><path style="opacity:1" fill="#def2f1" d="M 601.5,501.5 C 472.491,501.093 343.491,501.927 214.5,504C 230.407,504.175 246.241,504.675 262,505.5C 262.414,505.043 262.914,504.709 263.5,504.5C 269.631,505.129 275.631,505.795 281.5,506.5C 268.323,506.171 255.323,506.505 242.5,507.5C 203.831,506.934 165.165,506.268 126.5,505.5C 125.5,504.833 124.5,504.167 123.5,503.5C 282.988,500.576 442.322,499.91 601.5,501.5 Z"/></g>
<g><path style="opacity:1" fill="#8ec9c1" d="M 123.5,503.5 C 124.5,504.167 125.5,504.833 126.5,505.5C 119.5,505.5 112.5,505.5 105.5,505.5C 111.074,503.547 117.074,502.88 123.5,503.5 Z"/></g>
<g><path style="opacity:1" fill="#7abbb2" d="M 836.5,503.5 C 840.5,503.5 844.5,503.5 848.5,503.5C 849.376,503.369 850.043,503.702 850.5,504.5C 844.202,505.496 837.868,505.83 831.5,505.5C 833.167,504.833 834.833,504.167 836.5,503.5 Z"/></g>
<g><path style="opacity:1" fill="#d6f5f3" d="M 827.5,503.5 C 830.5,503.5 833.5,503.5 836.5,503.5C 834.833,504.167 833.167,504.833 831.5,505.5C 635.177,508.609 438.843,509.276 242.5,507.5C 255.323,506.505 268.323,506.171 281.5,506.5C 414.5,506.667 547.5,506.5 680.5,506C 683.224,505.73 685.891,505.23 688.5,504.5C 689.086,504.709 689.586,505.043 690,505.5C 735.931,504.836 781.764,504.169 827.5,503.5 Z"/></g>
<g><path style="opacity:1" fill="#04594e" d="M 1158.5,507.5 C 1175.14,505.992 1184.97,513.326 1188,529.5C 1188.5,543.496 1188.67,557.496 1188.5,571.5C 1179.16,571.666 1169.83,571.5 1160.5,571C 1143.12,566.777 1135.12,555.61 1136.5,537.5C 1137.06,522.338 1144.39,512.338 1158.5,507.5 Z"/></g>
<g><path style="opacity:1" fill="#06594f" d="M 1362.5,507.5 C 1380.49,505.663 1390.66,513.663 1393,531.5C 1393.5,544.829 1393.67,558.163 1393.5,571.5C 1382.44,571.906 1371.44,571.406 1360.5,570C 1352.95,567.978 1347.45,563.478 1344,556.5C 1337.27,540.28 1339.77,525.78 1351.5,513C 1355.02,510.674 1358.68,508.84 1362.5,507.5 Z"/></g>
<g><path style="opacity:1" fill="#dbf7f6" d="M 1694.5,491.5 C 1695.64,491.908 1696.64,492.575 1697.5,493.5C 1693.57,500.364 1689.41,507.031 1685,513.5C 1683.33,512.652 1681.83,511.652 1680.5,510.5C 1681.87,510.657 1683.21,510.49 1684.5,510C 1687.46,506.583 1689.79,502.75 1691.5,498.5C 1694.09,496.929 1695.09,494.596 1694.5,491.5 Z"/></g>
<g><path style="opacity:1" fill="#e7fefd" d="M 1442.5,489.5 C 1442.19,490.478 1441.52,491.145 1440.5,491.5C 1439.5,525.16 1439.17,558.827 1439.5,592.5C 1447.83,592.5 1456.17,592.5 1464.5,592.5C 1464.17,564.492 1464.5,536.492 1465.5,508.5C 1470.49,507.219 1475.66,506.552 1481,506.5C 1485.83,506.833 1490.67,507.167 1495.5,507.5C 1496.61,508.265 1497.28,509.265 1497.5,510.5C 1492.54,508.04 1487.2,507.04 1481.5,507.5C 1476.68,507.305 1472.01,507.972 1467.5,509.5C 1466.5,537.825 1466.17,566.159 1466.5,594.5C 1457.17,594.5 1447.83,594.5 1438.5,594.5C 1438.17,559.827 1438.5,525.16 1439.5,490.5C 1440.42,489.873 1441.42,489.539 1442.5,489.5 Z"/></g>
<g><path style="opacity:1" fill="#04594e" d="M 1750.5,509.5 C 1776.01,508.846 1788.18,521.18 1787,546.5C 1781.18,564.833 1768.68,572.666 1749.5,570C 1731.91,563.665 1724.41,551.165 1727,532.5C 1730.88,520.67 1738.71,513.004 1750.5,509.5 Z"/></g>
<g><path style="opacity:1" fill="#c5e7e5" d="M 1530.5,508.5 C 1529.91,509.151 1529.24,509.818 1528.5,510.5C 1529.49,538.456 1529.82,566.456 1529.5,594.5C 1519.83,594.5 1510.17,594.5 1500.5,594.5C 1500.5,569.833 1500.5,545.167 1500.5,520.5C 1501.5,544.661 1501.83,568.994 1501.5,593.5C 1510.5,593.5 1519.5,593.5 1528.5,593.5C 1528.67,567.498 1528.5,541.498 1528,515.5C 1527.02,513.26 1526.52,510.927 1526.5,508.5C 1527.83,508.5 1529.17,508.5 1530.5,508.5 Z"/></g>
<g><path style="opacity:1" fill="#cdf0ee" d="M 1281.5,508.5 C 1272.11,512.911 1266.28,520.245 1264,530.5C 1263.83,552.004 1263.33,573.337 1262.5,594.5C 1262.5,574.833 1262.5,555.167 1262.5,535.5C 1262.34,532.813 1262.5,530.146 1263,527.5C 1265.06,516.944 1271.22,510.611 1281.5,508.5 Z"/></g>
<g><path style="opacity:1" fill="#d9fcfb" d="M 1584.5,497.5 C 1587.97,501.453 1590.14,506.12 1591,511.5C 1591.5,539.165 1591.67,566.831 1591.5,594.5C 1581.99,594.827 1572.65,594.494 1563.5,593.5C 1572.5,593.5 1581.5,593.5 1590.5,593.5C 1590.67,567.165 1590.5,540.831 1590,514.5C 1588.8,508.623 1586.97,502.956 1584.5,497.5 Z"/></g>
<g><path style="opacity:1" fill="#d8faf9" d="M 1210.5,505.5 C 1213.93,511.288 1216.1,517.621 1217,524.5C 1217.5,548.164 1217.67,571.831 1217.5,595.5C 1197.33,595.83 1177.33,595.497 1157.5,594.5C 1177.17,594.5 1196.83,594.5 1216.5,594.5C 1216.67,573.831 1216.5,553.164 1216,532.5C 1214.9,523.314 1213.07,514.314 1210.5,505.5 Z"/></g>
<g><path style="opacity:1" fill="#185049" d="M 1240.5,507.5 C 1237.61,513.845 1235.94,520.512 1235.5,527.5C 1234.5,549.66 1234.17,571.994 1234.5,594.5C 1233.88,594.389 1233.38,594.056 1233,593.5C 1232.54,568.878 1232.37,544.378 1232.5,520C 1234.39,516.379 1235.89,512.546 1237,508.5C 1238.01,507.663 1239.18,507.33 1240.5,507.5 Z"/></g>
<g><path style="opacity:1" fill="#d9faf9" d="M 1410.5,500.5 C 1416.41,507.328 1419.91,515.328 1421,524.5C 1421.5,548.164 1421.67,571.831 1421.5,595.5C 1401.16,595.667 1380.83,595.5 1360.5,595C 1354.15,594.413 1348.15,592.913 1342.5,590.5C 1349.5,591.584 1356.5,592.751 1363.5,594C 1382.5,594.5 1401.5,594.667 1420.5,594.5C 1420.67,573.831 1420.5,553.164 1420,532.5C 1418.84,521.174 1415.68,510.508 1410.5,500.5 Z"/></g>
<g><path style="opacity:1" fill="#e5fcfa" d="M 1235.5,527.5 C 1235.5,549.167 1235.5,570.833 1235.5,592.5C 1244.17,592.5 1252.83,592.5 1261.5,592.5C 1261.17,573.326 1261.5,554.326 1262.5,535.5C 1262.5,555.167 1262.5,574.833 1262.5,594.5C 1253.17,594.5 1243.83,594.5 1234.5,594.5C 1234.17,571.994 1234.5,549.66 1235.5,527.5 Z"/></g>
<g><path style="opacity:1" fill="#f4fcfb" d="M 505.5,547.5 C 514.53,547.358 518.363,551.692 517,560.5C 514.103,565.155 509.937,566.655 504.5,565C 499.845,562.103 498.345,557.937 500,552.5C 501.73,550.598 503.563,548.931 505.5,547.5 Z"/></g>
<g><path style="opacity:1" fill="#fafefe" d="M 809.5,555.5 C 809.5,562.833 809.5,570.167 809.5,577.5C 815.645,578.49 821.978,578.823 828.5,578.5C 828.5,582.5 828.5,586.5 828.5,590.5C 821.833,590.5 815.167,590.5 808.5,590.5C 808.333,606.17 808.5,621.837 809,637.5C 809.383,638.056 809.883,638.389 810.5,638.5C 814.868,646.086 821.535,649.086 830.5,647.5C 830.5,652.167 830.5,656.833 830.5,661.5C 812.417,662.81 801.084,654.81 796.5,637.5C 796.5,610.167 796.5,582.833 796.5,555.5C 800.833,555.5 805.167,555.5 809.5,555.5 Z"/></g>
<g><path style="opacity:1" fill="#b0c7c3" d="M 809.5,555.5 C 805.167,555.5 800.833,555.5 796.5,555.5C 796.5,582.833 796.5,610.167 796.5,637.5C 795.502,610.005 795.169,582.338 795.5,554.5C 800.363,554.181 805.03,554.514 809.5,555.5 Z"/></g>
<g><path style="opacity:1" fill="#a3ded7" d="M 836.5,547.5 C 848.052,548.44 851.052,553.94 845.5,564C 839.882,567.81 835.049,566.977 831,561.5C 829.018,555.083 830.851,550.416 836.5,547.5 Z"/></g>
<g><path style="opacity:1" fill="#d8f6f4" d="M 1802.5,507.5 C 1812.91,521.163 1816.08,536.496 1812,553.5C 1808.21,567.446 1800.37,578.446 1788.5,586.5C 1793.84,580.824 1798.84,574.824 1803.5,568.5C 1809.64,557.612 1812.47,545.945 1812,533.5C 1809.69,524.54 1806.52,515.873 1802.5,507.5 Z"/></g>
<g><path style="opacity:1" fill="#185850" d="M 835.5,549.5 C 846.446,548.925 849.446,553.425 844.5,563C 835.457,566.292 831.29,563.126 832,553.5C 833.032,551.973 834.199,550.64 835.5,549.5 Z"/></g>
<g><path style="opacity:1" fill="#c9f3f0" d="M 841.5,552.5 C 842.66,554.169 842.66,556.003 841.5,558C 841.759,559.261 842.426,560.261 843.5,561C 842.365,561.749 841.365,561.583 840.5,560.5C 838.608,556.53 837.608,556.863 837.5,561.5C 836.523,558.713 836.19,555.713 836.5,552.5C 838.167,552.5 839.833,552.5 841.5,552.5 Z"/></g>
<g><path style="opacity:1" fill="#315c56" d="M 837.5,553.5 C 838.5,553.5 839.5,553.5 840.5,553.5C 840.5,554.5 840.5,555.5 840.5,556.5C 839.5,556.5 838.5,556.5 837.5,556.5C 837.5,555.5 837.5,554.5 837.5,553.5 Z"/></g>
<g><path style="opacity:1" fill="#a3c6c1" d="M 841.5,552.5 C 839.833,552.5 838.167,552.5 836.5,552.5C 836.19,555.713 836.523,558.713 837.5,561.5C 837.44,562.043 837.107,562.376 836.5,562.5C 835.511,558.893 835.177,555.226 835.5,551.5C 837.735,551.205 839.735,551.539 841.5,552.5 Z"/></g>
<g><path style="opacity:1" fill="#f6fcfc" d="M 163.5,575.5 C 186.014,575.051 201.68,585.051 210.5,605.5C 205.533,606.662 200.533,606.829 195.5,606C 184.997,589.874 170.997,585.874 153.5,594C 140.204,603.557 136.371,616.057 142,631.5C 153.906,650.199 169.406,653.699 188.5,642C 191.026,638.974 193.36,635.807 195.5,632.5C 200.5,631.167 205.5,631.167 210.5,632.5C 201.026,655.24 184.026,665.073 159.5,662C 130.624,651.415 120.457,631.249 129,601.5C 136.384,587.272 147.884,578.605 163.5,575.5 Z"/></g>
<g><path style="opacity:1" fill="#f7fdfc" d="M 254.5,575.5 C 290.923,576.75 307.09,595.417 303,631.5C 293.731,654.888 276.564,665.055 251.5,662C 226.697,653.839 215.53,636.672 218,610.5C 223.203,591.461 235.37,579.795 254.5,575.5 Z"/></g>
<g><path style="opacity:1" fill="#f7fdfc" d="M 347.5,575.5 C 361.457,574.358 373.624,578.358 384,587.5C 384.498,584.183 384.665,580.85 384.5,577.5C 389.167,577.5 393.833,577.5 398.5,577.5C 398.667,605.835 398.5,634.169 398,662.5C 392.917,686.915 377.917,699.915 353,701.5C 333.736,700.061 320.57,690.395 313.5,672.5C 318.467,671.338 323.467,671.171 328.5,672C 338.327,687.273 351.66,691.273 368.5,684C 380.77,676.624 385.937,665.79 384,651.5C 371.585,662.144 357.418,665.31 341.5,661C 327.333,656.167 317.833,646.667 313,632.5C 307.676,603.126 319.176,584.126 347.5,575.5 Z"/></g>
<g><path style="opacity:1" fill="#fafefe" d="M 488.5,660.5 C 484.167,660.5 479.833,660.5 475.5,660.5C 475.83,643.658 475.497,626.992 474.5,610.5C 469.927,594.045 459.26,587.545 442.5,591C 436.746,593.595 432.079,597.428 428.5,602.5C 426.665,603.122 425.498,604.456 425,606.5C 424.5,624.164 424.333,641.83 424.5,659.5C 420.833,659.5 417.167,659.5 413.5,659.5C 413.5,632.5 413.5,605.5 413.5,578.5C 417.167,578.5 420.833,578.5 424.5,578.5C 424.34,580.199 424.506,581.866 425,583.5C 425.977,584.774 426.811,584.774 427.5,583.5C 447.163,571.2 464.997,573.533 481,590.5C 484.137,595.108 486.47,600.108 488,605.5C 488.5,623.83 488.667,642.164 488.5,660.5 Z"/></g>
<g><path style="opacity:1" fill="#f9fdfd" d="M 676.5,585.5 C 677.183,587.176 678.517,587.843 680.5,587.5C 680.5,584.5 680.5,581.5 680.5,578.5C 684.5,578.5 688.5,578.5 692.5,578.5C 692.5,605.5 692.5,632.5 692.5,659.5C 688.5,659.5 684.5,659.5 680.5,659.5C 680.806,656.615 680.473,653.948 679.5,651.5C 664.234,663.559 647.567,665.726 629.5,658C 605.655,641.439 600.488,620.272 614,594.5C 630.915,574.118 651.082,570.284 674.5,583C 675.381,583.708 676.047,584.542 676.5,585.5 Z"/></g>
<g><path style="opacity:1" fill="#fafefd" d="M 783.5,608.5 C 783.5,625.833 783.5,643.167 783.5,660.5C 779.167,660.5 774.833,660.5 770.5,660.5C 770.83,643.325 770.497,626.325 769.5,609.5C 767.285,598.452 760.619,591.952 749.5,590C 740.368,588.9 732.701,591.734 726.5,598.5C 725.265,598.721 724.265,599.388 723.5,600.5C 722.813,602.274 721.98,603.941 721,605.5C 720.5,623.83 720.333,642.164 720.5,660.5C 716.167,660.5 711.833,660.5 707.5,660.5C 707.5,632.833 707.5,605.167 707.5,577.5C 712.167,577.5 716.833,577.5 721.5,577.5C 721.337,579.857 721.503,582.19 722,584.5C 737.083,573.079 752.583,572.579 768.5,583C 777.101,589.423 782.101,597.923 783.5,608.5 Z"/></g>
<g><path style="opacity:1" fill="#fcfefe" d="M 514.5,577.5 C 514.5,605.167 514.5,632.833 514.5,660.5C 510.167,660.5 505.833,660.5 501.5,660.5C 501.5,632.833 501.5,605.167 501.5,577.5C 505.833,577.5 510.167,577.5 514.5,577.5 Z"/></g>
<g><path style="opacity:1" fill="#c2f2ec" d="M 514.5,577.5 C 515.498,605.328 515.831,633.328 515.5,661.5C 510.637,661.819 505.97,661.486 501.5,660.5C 505.833,660.5 510.167,660.5 514.5,660.5C 514.5,632.833 514.5,605.167 514.5,577.5 Z"/></g>
<g><path style="opacity:1" fill="#fafefe" d="M 529.5,578.5 C 552.167,578.5 574.833,578.5 597.5,578.5C 597.666,582.514 597.499,586.514 597,590.5C 592.682,595.319 588.182,599.985 583.5,604.5C 582.571,605.689 582.238,607.022 582.5,608.5C 571.409,621.762 559.743,634.595 547.5,647C 564.497,647.5 581.497,647.667 598.5,647.5C 598.5,651.833 598.5,656.167 598.5,660.5C 575.5,660.5 552.5,660.5 529.5,660.5C 529.334,655.821 529.501,651.155 530,646.5C 532.782,644.229 534.949,641.563 536.5,638.5C 550.207,625.128 563.207,611.128 575.5,596.5C 577.296,595.207 578.963,593.707 580.5,592C 563.503,591.5 546.503,591.333 529.5,591.5C 529.5,587.167 529.5,582.833 529.5,578.5 Z"/></g>
<g><path style="opacity:1" fill="#d8f5f4" d="M 679.5,651.5 C 680.473,653.948 680.806,656.615 680.5,659.5C 684.5,659.5 688.5,659.5 692.5,659.5C 692.5,632.5 692.5,605.5 692.5,578.5C 688.5,578.5 684.5,578.5 680.5,578.5C 680.5,581.5 680.5,584.5 680.5,587.5C 678.517,587.843 677.183,587.176 676.5,585.5C 677.496,585.414 678.329,585.748 679,586.5C 679.498,583.518 679.665,580.518 679.5,577.5C 684.167,577.5 688.833,577.5 693.5,577.5C 693.5,605.5 693.5,633.5 693.5,661.5C 688.833,661.5 684.167,661.5 679.5,661.5C 679.5,658.167 679.5,654.833 679.5,651.5 Z"/></g>
<g><path style="opacity:1" fill="#04594e" d="M 254.5,589.5 C 279.006,589.172 290.84,601.172 290,625.5C 284.045,643.572 271.545,651.072 252.5,648C 236.516,641.54 229.683,629.707 232,612.5C 235.658,601.01 243.158,593.343 254.5,589.5 Z"/></g>
<g><path style="opacity:1" fill="#04594e" d="M 348.5,589.5 C 372.047,588.884 383.88,600.217 384,623.5C 377.542,645.314 363.376,652.814 341.5,646C 325.802,635.72 321.635,621.886 329,604.5C 333.665,596.988 340.165,591.988 348.5,589.5 Z"/></g>
<g><path style="opacity:1" fill="#04594e" d="M 645.5,589.5 C 668.952,590.117 680.118,602.117 679,625.5C 673.607,642.956 661.774,650.456 643.5,648C 626.055,642.632 618.555,630.799 621,612.5C 624.899,600.095 633.066,592.429 645.5,589.5 Z"/></g>
<g><path style="opacity:1" fill="#e0fdfd" d="M 809.5,577.5 C 816.5,577.5 823.5,577.5 830.5,577.5C 830.5,582.167 830.5,586.833 830.5,591.5C 823.5,591.5 816.5,591.5 809.5,591.5C 809.197,607.214 809.531,622.881 810.5,638.5C 809.883,638.389 809.383,638.056 809,637.5C 808.5,621.837 808.333,606.17 808.5,590.5C 815.167,590.5 821.833,590.5 828.5,590.5C 828.5,586.5 828.5,582.5 828.5,578.5C 821.978,578.823 815.645,578.49 809.5,577.5 Z"/></g>
<g><path style="opacity:1" fill="#d8f5f4" d="M 1627.5,586.5 C 1634.2,589.004 1640.87,591.504 1647.5,594C 1651.67,594.167 1655.83,594.333 1660,594.5C 1667.2,594.017 1674.37,593.351 1681.5,592.5C 1667.37,597.653 1653.04,597.819 1638.5,593C 1634.44,591.311 1630.77,589.144 1627.5,586.5 Z"/></g>
<g><path style="opacity:1" fill="#ddf9f8" d="M 1734.5,591.5 C 1742.62,592.905 1750.78,593.905 1759,594.5C 1764.96,594.549 1770.8,593.882 1776.5,592.5C 1762.35,598.061 1748.35,597.727 1734.5,591.5 Z"/></g>
<g><path style="opacity:1" fill="#1d554d" d="M 575.5,596.5 C 563.207,611.128 550.207,625.128 536.5,638.5C 536.34,636.801 536.506,635.134 537,633.5C 537.333,633.833 537.667,634.167 538,634.5C 540.667,630.5 544,627.167 548,624.5C 551.681,620.44 554.848,616.107 557.5,611.5C 558.675,611.719 559.675,611.386 560.5,610.5C 563.492,606.508 566.826,602.842 570.5,599.5C 571.386,598.675 571.719,597.675 571.5,596.5C 572.833,596.5 574.167,596.5 575.5,596.5 Z"/></g>
<g><path style="opacity:1" fill="#d6f0ee" d="M 529.5,578.5 C 552.661,577.502 575.994,577.169 599.5,577.5C 599.666,582.179 599.499,586.845 599,591.5C 593.996,597.67 588.496,603.337 582.5,608.5C 582.238,607.022 582.571,605.689 583.5,604.5C 588.182,599.985 592.682,595.319 597,590.5C 597.499,586.514 597.666,582.514 597.5,578.5C 574.833,578.5 552.167,578.5 529.5,578.5 Z"/></g>
<g><path style="opacity:1" fill="#e7fdfc" d="M 427.5,583.5 C 426.811,584.774 425.977,584.774 425,583.5C 424.506,581.866 424.34,580.199 424.5,578.5C 420.833,578.5 417.167,578.5 413.5,578.5C 413.5,605.5 413.5,632.5 413.5,659.5C 417.167,659.5 420.833,659.5 424.5,659.5C 424.333,641.83 424.5,624.164 425,606.5C 425.498,604.456 426.665,603.122 428.5,602.5C 427.629,605.112 426.963,607.779 426.5,610.5C 425.503,626.992 425.17,643.658 425.5,660.5C 421.167,660.5 416.833,660.5 412.5,660.5C 412.5,632.833 412.5,605.167 412.5,577.5C 417.167,577.5 421.833,577.5 426.5,577.5C 426.205,579.735 426.539,581.735 427.5,583.5 Z"/></g>
<g><path style="opacity:1" fill="#96cdc8" d="M 426.5,610.5 C 426.5,627.5 426.5,644.5 426.5,661.5C 421.637,661.819 416.97,661.486 412.5,660.5C 416.833,660.5 421.167,660.5 425.5,660.5C 425.17,643.658 425.503,626.992 426.5,610.5 Z"/></g>
<g><path style="opacity:1" fill="#cbf4f2" d="M 726.5,598.5 C 724.74,601.689 723.24,605.022 722,608.5C 721.5,626.164 721.333,643.83 721.5,661.5C 716.637,661.819 711.97,661.486 707.5,660.5C 711.833,660.5 716.167,660.5 720.5,660.5C 720.333,642.164 720.5,623.83 721,605.5C 721.98,603.941 722.813,602.274 723.5,600.5C 724.265,599.388 725.265,598.721 726.5,598.5 Z"/></g>
<g><path style="opacity:1" fill="#79aca6" d="M 783.5,608.5 C 784.497,625.992 784.83,643.659 784.5,661.5C 779.5,661.5 774.5,661.5 769.5,661.5C 769.5,644.167 769.5,626.833 769.5,609.5C 770.497,626.325 770.83,643.325 770.5,660.5C 774.833,660.5 779.167,660.5 783.5,660.5C 783.5,643.167 783.5,625.833 783.5,608.5 Z"/></g>
<g><path style="opacity:1" fill="#9abfbb" d="M 474.5,610.5 C 475.497,626.992 475.83,643.658 475.5,660.5C 479.833,660.5 484.167,660.5 488.5,660.5C 484.03,661.486 479.363,661.819 474.5,661.5C 474.5,644.5 474.5,627.5 474.5,610.5 Z"/></g>
<g><path style="opacity:1" fill="#89beb8" d="M 598.5,647.5 C 599.486,651.97 599.819,656.637 599.5,661.5C 575.994,661.831 552.661,661.498 529.5,660.5C 552.5,660.5 575.5,660.5 598.5,660.5C 598.5,656.167 598.5,651.833 598.5,647.5 Z"/></g>
<g><path style="opacity:1" fill="#f0fbfa" d="M 177.5,742.5 C 200.111,741.421 210.277,752.087 208,774.5C 200.292,791.516 187.792,796.35 170.5,789C 159.266,780.052 156.432,768.886 162,755.5C 165.869,749.452 171.035,745.118 177.5,742.5 Z"/></g>
<g><path style="opacity:1" fill="#f0fbfa" d="M 487.5,742.5 C 510.097,741.376 520.263,752.043 518,774.5C 510.292,791.516 497.792,796.35 480.5,789C 469.266,780.052 466.432,768.886 472,755.5C 475.843,749.482 481.01,745.149 487.5,742.5 Z"/></g>
<g><path style="opacity:1" fill="#c0e6e2" d="M 611.5,743.5 C 614.572,743.183 617.572,743.516 620.5,744.5C 619.675,745.386 618.675,745.719 617.5,745.5C 617.5,748.833 617.5,752.167 617.5,755.5C 616.5,755.5 615.5,755.5 614.5,755.5C 614.5,752.167 614.5,748.833 614.5,745.5C 612.821,745.715 611.821,745.048 611.5,743.5 Z"/></g>
<g><path style="opacity:1" fill="#f3fcfb" d="M 134.5,749.5 C 133.513,754.305 133.179,759.305 133.5,764.5C 139.5,764.5 145.5,764.5 151.5,764.5C 151.5,766.5 151.5,768.5 151.5,770.5C 145.833,770.5 140.167,770.5 134.5,770.5C 134.5,777.167 134.5,783.833 134.5,790.5C 131.5,790.5 128.5,790.5 125.5,790.5C 125.5,774.833 125.5,759.167 125.5,743.5C 134.833,743.5 144.167,743.5 153.5,743.5C 153.5,745.5 153.5,747.5 153.5,749.5C 147.167,749.5 140.833,749.5 134.5,749.5 Z"/></g>
<g><path style="opacity:1" fill="#f2fcfb" d="M 234.5,743.5 C 246.737,746.971 249.904,754.304 244,765.5C 241.749,767.377 239.249,768.877 236.5,770C 242.5,776.667 248.5,783.333 254.5,790C 250.833,790.667 247.167,790.667 243.5,790C 238.313,784.314 233.313,778.481 228.5,772.5C 227.311,771.571 225.978,771.238 224.5,771.5C 224.5,777.833 224.5,784.167 224.5,790.5C 220.988,791.055 217.988,790.388 215.5,788.5C 215.5,773.5 215.5,758.5 215.5,743.5C 221.833,743.5 228.167,743.5 234.5,743.5 Z"/></g>
<g><path style="opacity:1" fill="#f5fdfd" d="M 359.5,743.5 C 359.801,754.706 359.468,765.872 358.5,777C 357.091,778.983 356.091,781.15 355.5,783.5C 353.198,784.802 351.198,786.468 349.5,788.5C 346.616,789.209 343.949,790.209 341.5,791.5C 332.514,792.094 326.014,788.427 322,780.5C 320.606,768.22 320.106,755.886 320.5,743.5C 323.5,743.5 326.5,743.5 329.5,743.5C 329.333,754.838 329.5,766.172 330,777.5C 334.42,785.969 340.92,787.802 349.5,783C 350.46,781.581 351.293,780.081 352,778.5C 353.412,766.896 353.912,755.229 353.5,743.5C 355.5,743.5 357.5,743.5 359.5,743.5 Z"/></g>
<g><path style="opacity:1" fill="#f2fbfa" d="M 371.5,743.5 C 374.5,743.5 377.5,743.5 380.5,743.5C 380.5,757.167 380.5,770.833 380.5,784.5C 386.833,784.5 393.167,784.5 399.5,784.5C 399.5,786.5 399.5,788.5 399.5,790.5C 390.167,790.5 380.833,790.5 371.5,790.5C 371.5,774.833 371.5,759.167 371.5,743.5 Z"/></g>
<g><path style="opacity:1" fill="#f0fafa" d="M 422.5,742.5 C 423.978,742.238 425.311,742.571 426.5,743.5C 433.313,758.957 439.98,774.457 446.5,790C 443.167,790.667 439.833,790.667 436.5,790C 435.029,785.919 433.362,781.919 431.5,778C 425.509,777.501 419.509,777.334 413.5,777.5C 412.376,781.539 411.043,785.539 409.5,789.5C 406.894,790.652 404.227,790.818 401.5,790C 408.643,774.215 415.643,758.381 422.5,742.5 Z"/></g>
<g><path style="opacity:1" fill="#f4fdfc" d="M 527.5,743.5 C 529.199,743.34 530.866,743.506 532.5,744C 542,754.167 551.5,764.333 561,774.5C 561.5,764.172 561.666,753.839 561.5,743.5C 563.833,743.5 566.167,743.5 568.5,743.5C 568.5,759.167 568.5,774.833 568.5,790.5C 566.801,790.66 565.134,790.494 563.5,790C 554.37,779.201 544.87,768.701 535,758.5C 534.5,769.161 534.333,779.828 534.5,790.5C 532.167,790.5 529.833,790.5 527.5,790.5C 527.5,774.833 527.5,759.167 527.5,743.5 Z"/></g>
<g><path style="opacity:1" fill="#f2fbfb" d="M 588.5,769.5 C 587.513,774.305 587.179,779.305 587.5,784.5C 591.371,784.815 595.038,784.482 598.5,783.5C 601.5,783.5 604.5,783.5 607.5,783.5C 607.5,785.833 607.5,788.167 607.5,790.5C 598.167,790.5 588.833,790.5 579.5,790.5C 579.5,774.833 579.5,759.167 579.5,743.5C 588.5,743.5 597.5,743.5 606.5,743.5C 606.5,745.833 606.5,748.167 606.5,750.5C 600.529,749.759 594.529,749.425 588.5,749.5C 588.5,754.167 588.5,758.833 588.5,763.5C 593.833,763.5 599.167,763.5 604.5,763.5C 604.5,765.5 604.5,767.5 604.5,769.5C 599.167,769.5 593.833,769.5 588.5,769.5 Z"/></g>
<g><path style="opacity:1" fill="#f5fdfc" d="M 684.5,750.5 C 681.375,749.521 678.042,749.187 674.5,749.5C 674.5,763.167 674.5,776.833 674.5,790.5C 671.833,790.5 669.167,790.5 666.5,790.5C 666.5,777.167 666.5,763.833 666.5,750.5C 661.5,750.5 656.5,750.5 651.5,750.5C 651.5,748.167 651.5,745.833 651.5,743.5C 664.167,743.5 676.833,743.5 689.5,743.5C 689.5,745.833 689.5,748.167 689.5,750.5C 687.833,750.5 686.167,750.5 684.5,750.5 Z"/></g>
<g><path style="opacity:1" fill="#f6fdfd" d="M 697.5,743.5 C 705.833,743.5 714.167,743.5 722.5,743.5C 723.461,745.265 723.795,747.265 723.5,749.5C 717.167,749.5 710.833,749.5 704.5,749.5C 704.181,754.363 704.514,759.03 705.5,763.5C 710.833,763.5 716.167,763.5 721.5,763.5C 721.5,765.5 721.5,767.5 721.5,769.5C 716.167,769.5 710.833,769.5 705.5,769.5C 704.513,774.305 704.179,779.305 704.5,784.5C 710.31,785.49 716.31,785.823 722.5,785.5C 722.5,786.5 722.5,787.5 722.5,788.5C 714.167,788.5 705.833,788.5 697.5,788.5C 697.5,773.5 697.5,758.5 697.5,743.5 Z"/></g>
<g><path style="opacity:1" fill="#f0fafa" d="M 748.5,742.5 C 749.978,742.238 751.311,742.571 752.5,743.5C 759.313,758.957 765.98,774.457 772.5,790C 769.167,790.667 765.833,790.667 762.5,790C 761.029,785.919 759.362,781.919 757.5,778C 751.509,777.501 745.509,777.334 739.5,777.5C 738.376,781.539 737.043,785.539 735.5,789.5C 732.894,790.652 730.227,790.818 727.5,790C 734.643,774.215 741.643,758.381 748.5,742.5 Z"/></g>
<g><path style="opacity:1" fill="#f3fbfb" d="M 306.5,743.5 C 308.333,758.829 310,774.162 311.5,789.5C 309.167,789.5 306.833,789.5 304.5,789.5C 304.784,787.585 304.451,785.919 303.5,784.5C 303.326,776.758 302.492,769.091 301,761.5C 295.553,770.06 290.886,779.06 287,788.5C 285.667,789.833 284.333,789.833 283,788.5C 278.588,779.343 273.922,770.343 269,761.5C 267.505,771.113 266.672,780.78 266.5,790.5C 263.833,790.5 261.167,790.5 258.5,790.5C 260.393,774.812 262.393,759.145 264.5,743.5C 266.467,743.261 268.301,743.594 270,744.5C 274.754,755.017 280.254,765.017 286.5,774.5C 292.254,764.661 297.754,754.661 303,744.5C 304.011,743.663 305.178,743.33 306.5,743.5 Z"/></g>
<g><path style="opacity:1" fill="#f1fbfa" d="M 782.5,743.5 C 784.467,743.261 786.301,743.594 788,744.5C 792.754,755.017 798.254,765.017 804.5,774.5C 810.254,764.661 815.754,754.661 821,744.5C 822.699,743.594 824.533,743.261 826.5,743.5C 828.073,759.178 829.74,774.844 831.5,790.5C 828.167,790.5 824.833,790.5 821.5,790.5C 821.705,780.736 820.871,771.069 819,761.5C 813.553,770.06 808.886,779.06 805,788.5C 803.667,789.833 802.333,789.833 801,788.5C 796.588,779.343 791.922,770.343 787,761.5C 785.505,771.113 784.672,780.78 784.5,790.5C 781.833,790.5 779.167,790.5 776.5,790.5C 778.392,774.817 780.392,759.151 782.5,743.5 Z"/></g>
<g><path style="opacity:1" fill="#1e4a46" d="M 234.5,743.5 C 228.167,743.5 221.833,743.5 215.5,743.5C 215.5,758.5 215.5,773.5 215.5,788.5C 214.504,773.342 214.17,758.009 214.5,742.5C 221.354,742.176 228.021,742.509 234.5,743.5 Z"/></g>
<g><path style="opacity:1" fill="#204a45" d="M 722.5,743.5 C 714.167,743.5 705.833,743.5 697.5,743.5C 696.504,758.324 696.171,773.324 696.5,788.5C 695.504,773.342 695.17,758.009 695.5,742.5C 704.682,742.173 713.682,742.507 722.5,743.5 Z"/></g>
<g><path style="opacity:1" fill="#07584e" d="M 179.5,748.5 C 188.978,747.489 195.144,751.489 198,760.5C 199.687,769.247 197.854,777.08 192.5,784C 180.294,789.314 172.794,785.481 170,772.5C 167.632,762.071 170.799,754.071 179.5,748.5 Z"/></g>
<g><path style="opacity:1" fill="#0f584f" d="M 224.5,748.5 C 231.928,747.039 236.595,749.872 238.5,757C 236.542,763.96 231.875,766.793 224.5,765.5C 224.5,759.833 224.5,754.167 224.5,748.5 Z"/></g>
<g><path style="opacity:1" fill="#07584e" d="M 489.5,748.5 C 498.978,747.489 505.144,751.489 508,760.5C 509.687,769.247 507.854,777.08 502.5,784C 490.294,789.314 482.794,785.481 480,772.5C 477.62,762.112 480.787,754.112 489.5,748.5 Z"/></g>
<g><path style="opacity:1" fill="#4d8c83" d="M 723.5,749.5 C 717.69,750.49 711.69,750.823 705.5,750.5C 705.5,754.833 705.5,759.167 705.5,763.5C 704.514,759.03 704.181,754.363 704.5,749.5C 710.833,749.5 717.167,749.5 723.5,749.5 Z"/></g>
<g><path style="opacity:1" fill="#a1d4ce" d="M 684.5,750.5 C 681.5,750.5 678.5,750.5 675.5,750.5C 675.829,764.01 675.496,777.344 674.5,790.5C 674.5,776.833 674.5,763.167 674.5,749.5C 678.042,749.187 681.375,749.521 684.5,750.5 Z"/></g>
<g><path style="opacity:1" fill="#c9edea" d="M 622.5,743.5 C 623.978,743.238 625.311,743.571 626.5,744.5C 627.432,746.795 628.265,749.129 629,751.5C 629.735,749.129 630.568,746.795 631.5,744.5C 632.689,743.571 634.022,743.238 635.5,743.5C 635.824,747.555 635.491,751.555 634.5,755.5C 633.679,752.553 633.179,749.553 633,746.5C 631.942,749.771 630.442,752.771 628.5,755.5C 627.183,752.568 626.016,749.568 625,746.5C 624.821,749.553 624.321,752.553 623.5,755.5C 622.509,751.555 622.176,747.555 622.5,743.5 Z"/></g>
<g><path style="opacity:1" fill="#d4f2f0" d="M 306.5,743.5 C 310.01,758.722 312.343,774.389 313.5,790.5C 310.167,790.5 306.833,790.5 303.5,790.5C 303.5,788.5 303.5,786.5 303.5,784.5C 304.451,785.919 304.784,787.585 304.5,789.5C 306.833,789.5 309.167,789.5 311.5,789.5C 310,774.162 308.333,758.829 306.5,743.5 Z"/></g>
<g><path style="opacity:1" fill="#6e9691" d="M 134.5,749.5 C 134.5,754.167 134.5,758.833 134.5,763.5C 140.358,763.178 146.025,763.511 151.5,764.5C 145.5,764.5 139.5,764.5 133.5,764.5C 133.179,759.305 133.513,754.305 134.5,749.5 Z"/></g>
<g><path style="opacity:1" fill="#14564d" d="M 748.5,757.5 C 751.458,761.691 753.458,766.358 754.5,771.5C 750.486,771.666 746.486,771.499 742.5,771C 744.643,766.548 746.643,762.048 748.5,757.5 Z"/></g>
<g><path style="opacity:1" fill="#11574f" d="M 422.5,757.5 C 425.458,761.691 427.458,766.358 428.5,771.5C 424.486,771.666 420.486,771.499 416.5,771C 418.643,766.548 420.643,762.048 422.5,757.5 Z"/></g>
<g><path style="opacity:1" fill="#749a96" d="M 588.5,769.5 C 588.5,774.167 588.5,778.833 588.5,783.5C 591.833,783.5 595.167,783.5 598.5,783.5C 595.038,784.482 591.371,784.815 587.5,784.5C 587.179,779.305 587.513,774.305 588.5,769.5 Z"/></g>
<g><path style="opacity:1" fill="#7fa19d" d="M 705.5,769.5 C 705.5,774.167 705.5,778.833 705.5,783.5C 711.167,783.5 716.833,783.5 722.5,783.5C 716.69,784.49 710.69,784.823 704.5,784.5C 704.179,779.305 704.513,774.305 705.5,769.5 Z"/></g>
<g><path style="opacity:1" fill="#d0f5f3" d="M 359.5,743.5 C 360.659,754.326 360.826,765.326 360,776.5C 357.884,786.446 351.717,791.446 341.5,791.5C 343.949,790.209 346.616,789.209 349.5,788.5C 351.198,786.468 353.198,784.802 355.5,783.5C 356.091,781.15 357.091,778.983 358.5,777C 359.468,765.872 359.801,754.706 359.5,743.5 Z"/></g>
<g><path style="opacity:1" fill="#e7fefe" d="M 697.5,743.5 C 697.5,758.5 697.5,773.5 697.5,788.5C 705.833,788.5 714.167,788.5 722.5,788.5C 722.5,787.5 722.5,786.5 722.5,785.5C 716.31,785.823 710.31,785.49 704.5,784.5C 710.69,784.823 716.69,784.49 722.5,783.5C 724.344,785.279 725.01,787.612 724.5,790.5C 714.773,791.139 705.44,790.472 696.5,788.5C 696.171,773.324 696.504,758.324 697.5,743.5 Z"/></g>
<g><path style="opacity:1" fill="#87cac0" d="M 980.5,800.5 C 980.83,807.2 980.497,813.866 979.5,820.5C 978.504,814.537 978.171,808.537 978.5,802.5C 979.167,801.833 979.833,801.167 980.5,800.5 Z"/></g>
</svg>
