<?xml version="1.0" encoding="UTF-8"?>
<!DOCTYPE svg PUBLIC "-//W3C//DTD SVG 1.1//EN" "http://www.w3.org/Graphics/SVG/1.1/DTD/svg11.dtd">
<svg xmlns="http://www.w3.org/2000/svg" version="1.1" width="549px" height="480px" style="shape-rendering:geometricPrecision; text-rendering:geometricPrecision; image-rendering:optimizeQuality; fill-rule:evenodd; clip-rule:evenodd" xmlns:xlink="http://www.w3.org/1999/xlink">
<g><path style="opacity:1" fill="#fcfcfc" d="M 111.5,-0.5 C 257.167,-0.5 402.833,-0.5 548.5,-0.5C 548.5,159.5 548.5,319.5 548.5,479.5C 365.5,479.5 182.5,479.5 -0.5,479.5C -0.5,399.5 -0.5,319.5 -0.5,239.5C 0.166667,240.5 0.833333,241.5 1.5,242.5C 1.12012,244.698 1.78679,246.365 3.5,247.5C 9.60121,260.899 19.9345,269.066 34.5,272C 48.5677,272.928 62.5677,272.428 76.5,270.5C 79.1522,270.59 81.4855,269.924 83.5,268.5C 86.7893,267.626 90.1226,266.959 93.5,266.5C 97.767,265.744 101.767,264.411 105.5,262.5C 107.967,262.245 109.967,261.245 111.5,259.5C 136.855,248.312 153.022,229.312 160,202.5C 160.667,194.833 160.667,187.167 160,179.5C 159.59,178.099 159.09,176.766 158.5,175.5C 158.573,173.973 157.906,172.973 156.5,172.5C 154.95,168.78 152.783,165.447 150,162.5C 140.231,153.712 129.731,146.045 118.5,139.5C 118.027,138.094 117.027,137.427 115.5,137.5C 104.516,132.675 93.849,127.341 83.5,121.5C 83.0269,120.094 82.0269,119.427 80.5,119.5C 72.3388,115.923 64.6722,111.589 57.5,106.5C 57.0269,105.094 56.0269,104.427 54.5,104.5C 39.9114,95.9866 33.9114,83.3199 36.5,66.5C 37.9238,64.4855 38.5905,62.1522 38.5,59.5C 39.5058,56.7903 40.5058,54.1237 41.5,51.5C 42.9063,51.0269 43.573,50.0269 43.5,48.5C 44.7232,44.9505 46.7232,41.9505 49.5,39.5C 51.7488,38.9202 53.4154,37.5869 54.5,35.5C 56.9505,32.7232 59.9505,30.7232 63.5,29.5C 65.9674,29.2451 67.9674,28.2451 69.5,26.5C 70.1667,26.5 70.8333,26.5 71.5,26.5C 74.3973,25.871 77.064,24.871 79.5,23.5C 89.74,21.8279 100.073,21.1612 110.5,21.5C 113.219,22.913 116.219,23.5797 119.5,23.5C 119.973,24.9063 120.973,25.573 122.5,25.5C 128.695,27.6929 133.361,31.6929 136.5,37.5C 136.259,39.8984 136.926,41.8984 138.5,43.5C 140.411,49.9203 139.244,55.9203 135,61.5C 130.506,67.9904 125.339,73.8237 119.5,79C 121.13,82.4655 123.797,84.6322 127.5,85.5C 130.356,87.0058 133.523,87.6725 137,87.5C 139.361,87.4961 141.527,87.1627 143.5,86.5C 151.936,84.4506 158.936,80.1173 164.5,73.5C 165.906,73.0269 166.573,72.0269 166.5,70.5C 166.604,68.2972 167.27,66.2972 168.5,64.5C 169.927,62.8516 170.76,60.8516 171,58.5C 171.667,51.5 171.667,44.5 171,37.5C 170.626,35.5087 169.793,33.842 168.5,32.5C 164.136,22.6325 157.136,15.1325 147.5,10C 135.812,5.03868 123.812,1.53868 111.5,-0.5 Z"/></g>
<g><path style="opacity:1" fill="#040404" d="M 89.5,-0.5 C 96.8333,-0.5 104.167,-0.5 111.5,-0.5C 123.812,1.53868 135.812,5.03868 147.5,10C 157.136,15.1325 164.136,22.6325 168.5,32.5C 171.135,43.1346 171.135,53.8013 168.5,64.5C 167.27,66.2972 166.604,68.2972 166.5,70.5C 165.094,70.9731 164.427,71.9731 164.5,73.5C 158.936,80.1173 151.936,84.4506 143.5,86.5C 138.13,86.6079 132.797,86.2745 127.5,85.5C 123.797,84.6322 121.13,82.4655 119.5,79C 125.339,73.8237 130.506,67.9904 135,61.5C 139.244,55.9203 140.411,49.9203 138.5,43.5C 138.741,41.1016 138.074,39.1016 136.5,37.5C 133.361,31.6929 128.695,27.6929 122.5,25.5C 122.027,24.0937 121.027,23.427 119.5,23.5C 116.781,22.087 113.781,21.4203 110.5,21.5C 100.073,21.1612 89.74,21.8279 79.5,23.5C 76.284,23.3455 73.6174,24.3455 71.5,26.5C 70.8333,26.5 70.1667,26.5 69.5,26.5C 67.0326,26.7549 65.0326,27.7549 63.5,29.5C 59.9505,30.7232 56.9505,32.7232 54.5,35.5C 52.2512,36.0798 50.5846,37.4131 49.5,39.5C 46.7232,41.9505 44.7232,44.9505 43.5,48.5C 42.0937,48.9731 41.427,49.9731 41.5,51.5C 40.5058,54.1237 39.5058,56.7903 38.5,59.5C 37.0762,61.5145 36.4095,63.8478 36.5,66.5C 33.9114,83.3199 39.9114,95.9866 54.5,104.5C 54.9731,105.906 55.9731,106.573 57.5,106.5C 64.6722,111.589 72.3388,115.923 80.5,119.5C 80.9731,120.906 81.9731,121.573 83.5,121.5C 93.849,127.341 104.516,132.675 115.5,137.5C 115.973,138.906 116.973,139.573 118.5,139.5C 129.731,146.045 140.231,153.712 150,162.5C 152.783,165.447 154.95,168.78 156.5,172.5C 156.427,174.027 157.094,175.027 158.5,175.5C 159.09,176.766 159.59,178.099 160,179.5C 160.667,187.167 160.667,194.833 160,202.5C 153.022,229.312 136.855,248.312 111.5,259.5C 109.033,259.755 107.033,260.755 105.5,262.5C 101.085,262.861 97.0845,264.194 93.5,266.5C 90.1226,266.959 86.7893,267.626 83.5,268.5C 80.8478,268.41 78.5145,269.076 76.5,270.5C 62.5677,272.428 48.5677,272.928 34.5,272C 19.9345,269.066 9.60121,260.899 3.5,247.5C 3.20414,245.597 2.53747,243.93 1.5,242.5C 0.693217,236.536 0.359883,230.536 0.5,224.5C 0.529031,205.502 7.52903,189.669 21.5,177C 23.4048,175.579 25.4048,174.412 27.5,173.5C 32.2074,172.64 36.5407,170.973 40.5,168.5C 50.2248,165.694 58.7248,167.694 66,174.5C 66.5046,176.518 67.0046,178.518 67.5,180.5C 67.2178,181.778 66.5511,182.778 65.5,183.5C 50.6966,189.134 39.8632,199.134 33,213.5C 32.5065,215.134 32.3398,216.801 32.5,218.5C 30.0293,224.297 29.8627,230.297 32,236.5C 32.3826,237.056 32.8826,237.389 33.5,237.5C 35.5,241.5 38.5,244.5 42.5,246.5C 43.842,247.793 45.5087,248.626 47.5,249C 53.0164,249.817 58.3497,249.651 63.5,248.5C 69.9361,247.641 76.2694,246.308 82.5,244.5C 84.9674,244.245 86.9674,243.245 88.5,241.5C 102.405,236.059 112.738,226.726 119.5,213.5C 121.975,212.313 122.975,210.313 122.5,207.5C 123.265,204.904 123.599,202.237 123.5,199.5C 124.163,197.359 124.497,195.025 124.5,192.5C 124.685,188.859 124.019,185.526 122.5,182.5C 117.952,174.548 111.618,168.382 103.5,164C 85.3142,155.074 67.3142,145.908 49.5,136.5C 49.0269,135.094 48.0269,134.427 46.5,134.5C 31.4316,127.097 18.7649,116.764 8.5,103.5C 8.57298,101.973 7.90632,100.973 6.5,100.5C 4.1118,95.8298 2.6118,90.8298 2,85.5C 1.50031,77.8406 1.33365,70.1739 1.5,62.5C 3.07431,59.0935 4.07431,55.4268 4.5,51.5C 11.4005,31.4285 24.7339,17.2618 44.5,9C 59.3267,4.44809 74.3267,1.28142 89.5,-0.5 Z"/></g>
<g><path style="opacity:1" fill="#555555" d="M 110.5,21.5 C 113.781,21.4203 116.781,22.087 119.5,23.5C 116.219,23.5797 113.219,22.913 110.5,21.5 Z"/></g>
<g><path style="opacity:1" fill="#979797" d="M 79.5,23.5 C 77.064,24.871 74.3973,25.871 71.5,26.5C 73.6174,24.3455 76.284,23.3455 79.5,23.5 Z"/></g>
<g><path style="opacity:1" fill="#939393" d="M 119.5,23.5 C 121.027,23.427 122.027,24.0937 122.5,25.5C 120.973,25.573 119.973,24.9063 119.5,23.5 Z"/></g>
<g><path style="opacity:1" fill="#999999" d="M 69.5,26.5 C 67.9674,28.2451 65.9674,29.2451 63.5,29.5C 65.0326,27.7549 67.0326,26.7549 69.5,26.5 Z"/></g>
<g><path style="opacity:1" fill="#b3b3b3" d="M 54.5,35.5 C 53.4154,37.5869 51.7488,38.9202 49.5,39.5C 50.5846,37.4131 52.2512,36.0798 54.5,35.5 Z"/></g>
<g><path style="opacity:1" fill="#a5a5a5" d="M 136.5,37.5 C 138.074,39.1016 138.741,41.1016 138.5,43.5C 136.926,41.8984 136.259,39.8984 136.5,37.5 Z"/></g>
<g><path style="opacity:1" fill="#050505" d="M 251.5,41.5 C 251.5,42.5 251.5,43.5 251.5,44.5C 250.087,47.2186 249.42,50.2186 249.5,53.5C 248.539,55.2646 248.205,57.2646 248.5,59.5C 246.723,62.5046 245.723,65.8379 245.5,69.5C 244.145,76.9189 242.478,84.2522 240.5,91.5C 239.661,92.6412 238.994,93.9745 238.5,95.5C 239.333,95.8333 240.167,96.1667 241,96.5C 244.112,95.5169 247.278,94.8503 250.5,94.5C 253.152,94.5905 255.485,93.9238 257.5,92.5C 265.022,90.3836 272.688,90.217 280.5,92C 283.087,93.5251 283.92,95.6917 283,98.5C 278.383,105.614 273.216,112.281 267.5,118.5C 263.583,118.976 259.916,119.976 256.5,121.5C 255.5,121.5 254.5,121.5 253.5,121.5C 251.102,121.259 249.102,121.926 247.5,123.5C 245.708,123.366 244.042,123.699 242.5,124.5C 239.126,124.674 235.793,125.174 232.5,126C 231.944,126.383 231.611,126.883 231.5,127.5C 230.662,127.842 230.328,128.508 230.5,129.5C 229.076,131.515 228.41,133.848 228.5,136.5C 226.659,141.577 225.325,146.91 224.5,152.5C 222.723,155.505 221.723,158.838 221.5,162.5C 220.833,165.5 220.167,168.5 219.5,171.5C 218.076,173.515 217.41,175.848 217.5,178.5C 217.5,179.167 217.5,179.833 217.5,180.5C 216.046,183.718 215.379,187.218 215.5,191C 215.504,193.361 215.837,195.527 216.5,197.5C 217.627,203.134 220.96,205.301 226.5,204C 235.397,200.93 243.731,196.763 251.5,191.5C 252.222,191.082 252.722,190.416 253,189.5C 253.498,186.518 253.665,183.518 253.5,180.5C 253.911,176.779 254.578,173.112 255.5,169.5C 257.834,167.824 258.834,165.491 258.5,162.5C 264.523,146.809 274.856,134.809 289.5,126.5C 291.848,126.408 293.514,125.408 294.5,123.5C 300.131,120.922 306.131,119.256 312.5,118.5C 318.15,118.31 322.15,120.81 324.5,126C 329.864,126.171 335.198,126.671 340.5,127.5C 343.475,129.911 344.808,133.077 344.5,137C 343.955,142.196 343.288,147.363 342.5,152.5C 341.076,154.515 340.41,156.848 340.5,159.5C 339.763,162.725 339.097,166.059 338.5,169.5C 335.794,178.385 335.127,187.385 336.5,196.5C 336.633,203.817 339.966,205.984 346.5,203C 348.996,201.334 351.329,199.5 353.5,197.5C 355.587,196.415 356.92,194.749 357.5,192.5C 358.471,190.517 359.471,188.517 360.5,186.5C 362.04,184.162 362.706,181.495 362.5,178.5C 363.074,173.714 364.074,169.048 365.5,164.5C 366.768,162.095 367.435,159.428 367.5,156.5C 368.768,154.095 369.435,151.428 369.5,148.5C 369.676,145.273 370.343,142.273 371.5,139.5C 373.04,137.162 373.706,134.495 373.5,131.5C 374.841,126.48 376.175,121.48 377.5,116.5C 379.074,113.093 380.074,109.427 380.5,105.5C 381.683,96.9558 383.683,88.6225 386.5,80.5C 388.591,75.8094 389.924,70.8094 390.5,65.5C 390.366,63.7085 390.699,62.0418 391.5,60.5C 392.913,57.7814 393.58,54.7814 393.5,51.5C 394.768,49.0948 395.435,46.4282 395.5,43.5C 401.797,42.6803 408.131,42.347 414.5,42.5C 414.833,42.5 415.167,42.5 415.5,42.5C 417.456,43.4918 419.456,44.4918 421.5,45.5C 422.167,46.5 422.833,47.5 423.5,48.5C 424.2,52.7978 424.533,57.1311 424.5,61.5C 424.223,68.7234 422.89,75.7234 420.5,82.5C 418.723,85.5046 417.723,88.8379 417.5,92.5C 416.637,94.4214 415.971,96.4214 415.5,98.5C 414.076,100.515 413.41,102.848 413.5,105.5C 412.262,107.214 411.595,109.214 411.5,111.5C 409.926,113.102 409.259,115.102 409.5,117.5C 408.662,117.842 408.328,118.508 408.5,119.5C 407.076,121.515 406.41,123.848 406.5,126.5C 406.5,126.833 406.5,127.167 406.5,127.5C 404.837,129.438 404.171,131.772 404.5,134.5C 405.791,134.737 406.791,134.404 407.5,133.5C 426.816,120.358 443.816,104.525 458.5,86C 464.636,86.3096 470.136,88.4763 475,92.5C 475.81,96.6895 475.31,100.69 473.5,104.5C 471.413,105.585 470.08,107.251 469.5,109.5C 454.347,123.226 438.68,136.226 422.5,148.5C 421.114,154.356 421.781,160.022 424.5,165.5C 425.374,168.789 426.041,172.123 426.5,175.5C 426.41,178.152 427.076,180.485 428.5,182.5C 432.146,191.8 435.813,201.134 439.5,210.5C 439.427,212.027 440.094,213.027 441.5,213.5C 448.672,226.838 459.005,237.005 472.5,244C 473.793,244.49 475.127,244.657 476.5,244.5C 478.277,245.6 480.277,246.434 482.5,247C 488.681,247.819 494.681,247.653 500.5,246.5C 505.267,246.474 509.934,245.807 514.5,244.5C 517.649,244.585 520.316,243.585 522.5,241.5C 530.746,238.094 538.079,233.261 544.5,227C 545.449,226.383 546.282,226.549 547,227.5C 548.635,239.895 544.135,249.228 533.5,255.5C 529.261,256.796 525.261,258.462 521.5,260.5C 520.167,260.833 518.833,261.167 517.5,261.5C 505.589,263.275 493.589,263.942 481.5,263.5C 481.167,263.5 480.833,263.5 480.5,263.5C 475.603,262.588 470.603,261.588 465.5,260.5C 449.237,256.112 436.07,247.112 426,233.5C 414.406,216.819 406.573,198.486 402.5,178.5C 402.324,175.273 401.657,172.273 400.5,169.5C 400.768,167.901 400.434,166.568 399.5,165.5C 399.813,162.753 399.48,160.086 398.5,157.5C 396.829,159.51 396.162,161.843 396.5,164.5C 395.437,168.639 394.77,172.972 394.5,177.5C 392.992,191.638 392.158,205.971 392,220.5C 383.825,225.504 374.991,227.338 365.5,226C 363.032,225.021 361.032,223.521 359.5,221.5C 358.096,218.03 357.096,214.363 356.5,210.5C 355.143,212.186 353.81,213.852 352.5,215.5C 348.886,219.608 344.553,222.775 339.5,225C 331.876,226.936 325.709,224.77 321,218.5C 319.311,215.109 317.144,212.109 314.5,209.5C 301.502,222.357 286.168,227.024 268.5,223.5C 268.027,222.094 267.027,221.427 265.5,221.5C 260.415,218.751 256.748,214.751 254.5,209.5C 253.221,208.285 252.221,208.618 251.5,210.5C 247.465,212.848 243.465,215.182 239.5,217.5C 235.261,218.796 231.261,220.462 227.5,222.5C 221.444,224.077 215.277,225.077 209,225.5C 195.826,226.615 187.326,220.948 183.5,208.5C 183.549,201.151 183.882,193.817 184.5,186.5C 186.739,173.733 189.405,161.066 192.5,148.5C 193.924,146.485 194.59,144.152 194.5,141.5C 194.5,140.5 194.5,139.5 194.5,138.5C 195.043,138.44 195.376,138.107 195.5,137.5C 191.771,136.301 188.437,136.968 185.5,139.5C 182.421,140.304 179.421,141.304 176.5,142.5C 173.848,142.41 171.515,143.076 169.5,144.5C 162.786,146.761 157.286,145.095 153,139.5C 149.531,133.923 147.364,127.923 146.5,121.5C 148.861,121.326 151.194,120.993 153.5,120.5C 158.393,119.204 163.06,117.538 167.5,115.5C 169.214,114.262 171.214,113.595 173.5,113.5C 176.157,113.065 178.491,112.065 180.5,110.5C 183.833,109.5 187.167,108.5 190.5,107.5C 193.152,107.59 195.485,106.924 197.5,105.5C 198.93,104.463 200.597,103.796 202.5,103.5C 204.77,100.026 206.103,96.026 206.5,91.5C 206.833,89.5 207.167,87.5 207.5,85.5C 208.924,83.4855 209.59,81.1522 209.5,78.5C 210.636,73.76 211.97,69.0933 213.5,64.5C 215.074,62.8984 215.741,60.8984 215.5,58.5C 216.026,56.7697 217.026,55.4363 218.5,54.5C 219.906,54.0269 220.573,53.0269 220.5,51.5C 222.604,49.9013 224.604,48.068 226.5,46C 228.345,44.872 230.345,44.372 232.5,44.5C 238.654,42.451 244.987,41.451 251.5,41.5 Z"/></g>
<g><path style="opacity:1" fill="#383838" d="M 414.5,42.5 C 408.131,42.347 401.797,42.6803 395.5,43.5C 398.865,41.9608 402.531,41.2942 406.5,41.5C 409.355,41.5025 412.022,41.8359 414.5,42.5 Z"/></g>
<g><path style="opacity:1" fill="#676767" d="M 168.5,32.5 C 169.793,33.842 170.626,35.5087 171,37.5C 171.667,44.5 171.667,51.5 171,58.5C 170.76,60.8516 169.927,62.8516 168.5,64.5C 171.135,53.8013 171.135,43.1346 168.5,32.5 Z"/></g>
<g><path style="opacity:1" fill="#3b3b3b" d="M 251.5,41.5 C 244.987,41.451 238.654,42.451 232.5,44.5C 238.478,40.8058 244.811,39.8058 251.5,41.5 Z"/></g>
<g><path style="opacity:1" fill="#a9a9a9" d="M 415.5,42.5 C 418.313,42.0246 420.313,43.0246 421.5,45.5C 419.456,44.4918 417.456,43.4918 415.5,42.5 Z"/></g>
<g><path style="opacity:1" fill="#959595" d="M 43.5,48.5 C 43.573,50.0269 42.9063,51.0269 41.5,51.5C 41.427,49.9731 42.0937,48.9731 43.5,48.5 Z"/></g>
<g><path style="opacity:1" fill="#575757" d="M 395.5,43.5 C 395.435,46.4282 394.768,49.0948 393.5,51.5C 393.294,48.5049 393.96,45.8383 395.5,43.5 Z"/></g>
<g><path style="opacity:1" fill="#8c8c8c" d="M 251.5,44.5 C 251.58,47.7814 250.913,50.7814 249.5,53.5C 249.42,50.2186 250.087,47.2186 251.5,44.5 Z"/></g>
<g><path style="opacity:1" fill="#5b5b5b" d="M 220.5,51.5 C 220.573,53.0269 219.906,54.0269 218.5,54.5C 218.427,52.9731 219.094,51.9731 220.5,51.5 Z"/></g>
<g><path style="opacity:1" fill="#4e4e4e" d="M 423.5,48.5 C 425.033,50.6345 425.7,53.1345 425.5,56C 425.494,58.0326 425.161,59.866 424.5,61.5C 424.533,57.1311 424.2,52.7978 423.5,48.5 Z"/></g>
<g><path style="opacity:1" fill="#6b6b6b" d="M 393.5,51.5 C 393.58,54.7814 392.913,57.7814 391.5,60.5C 391.42,57.2186 392.087,54.2186 393.5,51.5 Z"/></g>
<g><path style="opacity:1" fill="#777777" d="M 4.5,51.5 C 4.07431,55.4268 3.07431,59.0935 1.5,62.5C 1.51652,58.4661 2.51652,54.7994 4.5,51.5 Z"/></g>
<g><path style="opacity:1" fill="#4c4c4c" d="M 215.5,58.5 C 215.741,60.8984 215.074,62.8984 213.5,64.5C 213.259,62.1016 213.926,60.1016 215.5,58.5 Z"/></g>
<g><path style="opacity:1" fill="#636363" d="M 38.5,59.5 C 38.5905,62.1522 37.9238,64.4855 36.5,66.5C 36.4095,63.8478 37.0762,61.5145 38.5,59.5 Z"/></g>
<g><path style="opacity:1" fill="#ababab" d="M 248.5,59.5 C 248.277,63.1621 247.277,66.4954 245.5,69.5C 245.723,65.8379 246.723,62.5046 248.5,59.5 Z"/></g>
<g><path style="opacity:1" fill="#636363" d="M 390.5,65.5 C 389.924,70.8094 388.591,75.8094 386.5,80.5C 387.053,75.1935 388.386,70.1935 390.5,65.5 Z"/></g>
<g><path style="opacity:1" fill="#959595" d="M 166.5,70.5 C 166.573,72.0269 165.906,73.0269 164.5,73.5C 164.427,71.9731 165.094,70.9731 166.5,70.5 Z"/></g>
<g><path style="opacity:1" fill="#fbfbfb" d="M -0.5,-0.5 C 29.5,-0.5 59.5,-0.5 89.5,-0.5C 74.3267,1.28142 59.3267,4.44809 44.5,9C 24.7339,17.2618 11.4005,31.4285 4.5,51.5C 2.51652,54.7994 1.51652,58.4661 1.5,62.5C 1.33365,70.1739 1.50031,77.8406 2,85.5C 2.6118,90.8298 4.1118,95.8298 6.5,100.5C 6.42702,102.027 7.09368,103.027 8.5,103.5C 18.7649,116.764 31.4316,127.097 46.5,134.5C 46.9731,135.906 47.9731,136.573 49.5,136.5C 67.3142,145.908 85.3142,155.074 103.5,164C 111.618,168.382 117.952,174.548 122.5,182.5C 123.292,188.13 123.625,193.797 123.5,199.5C 123.599,202.237 123.265,204.904 122.5,207.5C 121.508,209.456 120.508,211.456 119.5,213.5C 112.738,226.726 102.405,236.059 88.5,241.5C 86.0326,241.755 84.0326,242.755 82.5,244.5C 76.2694,246.308 69.9361,247.641 63.5,248.5C 56.349,248.891 49.349,248.225 42.5,246.5C 38.5,244.5 35.5,241.5 33.5,237.5C 32.582,231.225 32.2487,224.892 32.5,218.5C 32.3398,216.801 32.5065,215.134 33,213.5C 39.8632,199.134 50.6966,189.134 65.5,183.5C 66.5,183.5 67.5,183.5 68.5,183.5C 68.7373,182.209 68.404,181.209 67.5,180.5C 67.0046,178.518 66.5046,176.518 66,174.5C 58.7248,167.694 50.2248,165.694 40.5,168.5C 35.728,169.199 31.3947,170.866 27.5,173.5C 25.4048,174.412 23.4048,175.579 21.5,177C 7.52903,189.669 0.529031,205.502 0.5,224.5C 0.166667,224.5 -0.166667,224.5 -0.5,224.5C -0.5,149.5 -0.5,74.5 -0.5,-0.5 Z"/></g>
<g><path style="opacity:1" fill="#7d7d7d" d="M 209.5,78.5 C 209.59,81.1522 208.924,83.4855 207.5,85.5C 207.41,82.8478 208.076,80.5145 209.5,78.5 Z"/></g>
<g><path style="opacity:1" fill="#868686" d="M 420.5,82.5 C 420.277,86.1621 419.277,89.4954 417.5,92.5C 417.723,88.8379 418.723,85.5046 420.5,82.5 Z"/></g>
<g><path style="opacity:1" fill="#adadad" d="M 127.5,85.5 C 132.797,86.2745 138.13,86.6079 143.5,86.5C 141.527,87.1627 139.361,87.4961 137,87.5C 133.523,87.6725 130.356,87.0058 127.5,85.5 Z"/></g>
<g><path style="opacity:1" fill="#464646" d="M 257.5,92.5 C 255.485,93.9238 253.152,94.5905 250.5,94.5C 250.5,94.1667 250.5,93.8333 250.5,93.5C 252.806,93.0074 255.139,92.6741 257.5,92.5 Z"/></g>
<g><path style="opacity:1" fill="#454545" d="M 206.5,91.5 C 206.103,96.026 204.77,100.026 202.5,103.5C 203.262,99.215 204.595,95.215 206.5,91.5 Z"/></g>
<g><path style="opacity:1" fill="#a0a0a0" d="M 240.5,91.5 C 240.5,92.5 240.5,93.5 240.5,94.5C 243.833,94.1667 247.167,93.8333 250.5,93.5C 250.5,93.8333 250.5,94.1667 250.5,94.5C 247.278,94.8503 244.112,95.5169 241,96.5C 240.167,96.1667 239.333,95.8333 238.5,95.5C 238.994,93.9745 239.661,92.6412 240.5,91.5 Z"/></g>
<g><path style="opacity:1" fill="#9d9d9d" d="M 415.5,98.5 C 415.59,101.152 414.924,103.485 413.5,105.5C 413.41,102.848 414.076,100.515 415.5,98.5 Z"/></g>
<g><path style="opacity:1" fill="#959595" d="M 6.5,100.5 C 7.90632,100.973 8.57298,101.973 8.5,103.5C 7.09368,103.027 6.42702,102.027 6.5,100.5 Z"/></g>
<g><path style="opacity:1" fill="#989898" d="M 54.5,104.5 C 56.0269,104.427 57.0269,105.094 57.5,106.5C 55.9731,106.573 54.9731,105.906 54.5,104.5 Z"/></g>
<g><path style="opacity:1" fill="#454545" d="M 197.5,105.5 C 195.485,106.924 193.152,107.59 190.5,107.5C 192.515,106.076 194.848,105.41 197.5,105.5 Z"/></g>
<g><path style="opacity:1" fill="#b1b1b1" d="M 473.5,104.5 C 472.92,106.749 471.587,108.415 469.5,109.5C 470.08,107.251 471.413,105.585 473.5,104.5 Z"/></g>
<g><path style="opacity:1" fill="#484848" d="M 380.5,105.5 C 380.074,109.427 379.074,113.093 377.5,116.5C 377.517,112.466 378.517,108.799 380.5,105.5 Z"/></g>
<g><path style="opacity:1" fill="#7c7c7c" d="M 180.5,110.5 C 178.491,112.065 176.157,113.065 173.5,113.5C 175.32,111.552 177.654,110.552 180.5,110.5 Z"/></g>
<g><path style="opacity:1" fill="#595959" d="M 167.5,115.5 C 163.06,117.538 158.393,119.204 153.5,120.5C 157.63,117.676 162.297,116.009 167.5,115.5 Z"/></g>
<g><path style="opacity:1" fill="#aaaaaa" d="M 411.5,111.5 C 411.741,113.898 411.074,115.898 409.5,117.5C 409.259,115.102 409.926,113.102 411.5,111.5 Z"/></g>
<g><path style="opacity:1" fill="#929292" d="M 80.5,119.5 C 82.0269,119.427 83.0269,120.094 83.5,121.5C 81.9731,121.573 80.9731,120.906 80.5,119.5 Z"/></g>
<g><path style="opacity:1" fill="#b0b0b0" d="M 267.5,118.5 C 267.389,119.117 267.056,119.617 266.5,120C 263.243,121.043 259.91,121.543 256.5,121.5C 259.916,119.976 263.583,118.976 267.5,118.5 Z"/></g>
<g><path style="opacity:1" fill="#060606" d="M 526.5,120.5 C 528.936,121.871 531.603,122.871 534.5,123.5C 539.031,125.522 542.864,128.522 546,132.5C 546.499,137.823 546.666,143.156 546.5,148.5C 545.232,150.905 544.565,153.572 544.5,156.5C 539.111,166.889 531.111,174.555 520.5,179.5C 515.57,180.259 510.903,181.592 506.5,183.5C 499.833,183.5 493.167,183.5 486.5,183.5C 485.067,191.102 487.067,197.436 492.5,202.5C 492.973,203.906 493.973,204.573 495.5,204.5C 503.143,205.98 510.81,205.48 518.5,203C 524.622,199.207 530.456,195.04 536,190.5C 538.316,191.65 540.15,193.317 541.5,195.5C 541.427,197.027 542.094,198.027 543.5,198.5C 544.629,200.628 544.796,202.961 544,205.5C 538.242,211.61 531.742,216.61 524.5,220.5C 521.053,221.083 518.053,222.416 515.5,224.5C 512.14,224.616 508.807,224.949 505.5,225.5C 498.465,225.674 491.465,225.341 484.5,224.5C 472.046,221.381 463.712,213.715 459.5,201.5C 459.204,199.597 458.537,197.93 457.5,196.5C 454.805,183.018 456.472,170.351 462.5,158.5C 464.408,157.514 465.408,155.848 465.5,153.5C 476.004,135.744 491.338,124.577 511.5,120C 516.519,119.502 521.519,119.668 526.5,120.5 Z"/></g>
<g><path style="opacity:1" fill="#848484" d="M 526.5,120.5 C 529.716,120.345 532.383,121.345 534.5,123.5C 531.603,122.871 528.936,121.871 526.5,120.5 Z"/></g>
<g><path style="opacity:1" fill="#9e9e9e" d="M 253.5,121.5 C 251.898,123.074 249.898,123.741 247.5,123.5C 249.102,121.926 251.102,121.259 253.5,121.5 Z"/></g>
<g><path style="opacity:1" fill="#808080" d="M 408.5,119.5 C 408.59,122.152 407.924,124.485 406.5,126.5C 406.41,123.848 407.076,121.515 408.5,119.5 Z"/></g>
<g><path style="opacity:1" fill="#b2b2b2" d="M 242.5,124.5 C 239.13,126.139 235.463,127.139 231.5,127.5C 231.611,126.883 231.944,126.383 232.5,126C 235.793,125.174 239.126,124.674 242.5,124.5 Z"/></g>
<g><path style="opacity:1" fill="#424242" d="M 294.5,123.5 C 293.514,125.408 291.848,126.408 289.5,126.5C 290.659,124.75 292.326,123.75 294.5,123.5 Z"/></g>
<g><path style="opacity:1" fill="#7d7d7d" d="M 230.5,129.5 C 230.59,132.152 229.924,134.485 228.5,136.5C 228.41,133.848 229.076,131.515 230.5,129.5 Z"/></g>
<g><path style="opacity:1" fill="#6b6b6b" d="M 406.5,127.5 C 406.643,129.262 406.309,130.929 405.5,132.5C 405.957,133.298 406.624,133.631 407.5,133.5C 406.791,134.404 405.791,134.737 404.5,134.5C 404.171,131.772 404.837,129.438 406.5,127.5 Z"/></g>
<g><path style="opacity:1" fill="#a7a7a7" d="M 525.5,133.5 C 522.833,133.833 520.167,134.167 517.5,134.5C 519.993,132.416 522.66,132.083 525.5,133.5 Z"/></g>
<g><path style="opacity:1" fill="#f6f6f6" d="M 525.5,133.5 C 527.634,148.339 522.3,160.172 509.5,169C 505.658,171.002 501.658,172.502 497.5,173.5C 495.5,173.5 493.5,173.5 491.5,173.5C 491.5,172.167 491.5,170.833 491.5,169.5C 495.42,156.733 502.42,145.9 512.5,137C 514.078,135.906 515.745,135.072 517.5,134.5C 520.167,134.167 522.833,133.833 525.5,133.5 Z"/></g>
<g><path style="opacity:1" fill="#585858" d="M 46.5,134.5 C 48.0269,134.427 49.0269,135.094 49.5,136.5C 47.9731,136.573 46.9731,135.906 46.5,134.5 Z"/></g>
<g><path style="opacity:1" fill="#9c9c9c" d="M 194.5,138.5 C 194.265,137.903 193.765,137.57 193,137.5C 190.681,138.871 188.181,139.538 185.5,139.5C 188.437,136.968 191.771,136.301 195.5,137.5C 195.376,138.107 195.043,138.44 194.5,138.5 Z"/></g>
<g><path style="opacity:1" fill="#707070" d="M 373.5,131.5 C 373.706,134.495 373.04,137.162 371.5,139.5C 371.294,136.505 371.96,133.838 373.5,131.5 Z"/></g>
<g><path style="opacity:1" fill="#959595" d="M 115.5,137.5 C 117.027,137.427 118.027,138.094 118.5,139.5C 116.973,139.573 115.973,138.906 115.5,137.5 Z"/></g>
<g><path style="opacity:1" fill="#f8f8f8" d="M 317.5,153.5 C 317.033,168.724 312.866,182.724 305,195.5C 299.532,202.635 292.365,205.469 283.5,204C 280.017,201.394 278.35,197.894 278.5,193.5C 278.404,185.499 280.404,178.166 284.5,171.5C 285.906,171.027 286.573,170.027 286.5,168.5C 291.614,156.053 299.948,146.386 311.5,139.5C 313.435,138.85 315.435,138.517 317.5,138.5C 317.5,143.5 317.5,148.5 317.5,153.5 Z"/></g>
<g><path style="opacity:1" fill="#a1a1a1" d="M 317.5,153.5 C 317.5,148.5 317.5,143.5 317.5,138.5C 315.435,138.517 313.435,138.85 311.5,139.5C 311.611,138.883 311.944,138.383 312.5,138C 314.473,137.505 316.473,137.338 318.5,137.5C 318.821,143.026 318.488,148.36 317.5,153.5 Z"/></g>
<g><path style="opacity:1" fill="#989898" d="M 176.5,142.5 C 174.485,143.924 172.152,144.59 169.5,144.5C 171.515,143.076 173.848,142.41 176.5,142.5 Z"/></g>
<g><path style="opacity:1" fill="#5a5a5a" d="M 194.5,141.5 C 194.59,144.152 193.924,146.485 192.5,148.5C 192.41,145.848 193.076,143.515 194.5,141.5 Z"/></g>
<g><path style="opacity:1" fill="#7a7a7a" d="M 546.5,148.5 C 546.706,151.495 546.04,154.162 544.5,156.5C 544.565,153.572 545.232,150.905 546.5,148.5 Z"/></g>
<g><path style="opacity:1" fill="#606060" d="M 369.5,148.5 C 369.435,151.428 368.768,154.095 367.5,156.5C 367.294,153.505 367.96,150.838 369.5,148.5 Z"/></g>
<g><path style="opacity:1" fill="#454545" d="M 422.5,148.5 C 422.98,154.191 423.646,159.858 424.5,165.5C 421.781,160.022 421.114,154.356 422.5,148.5 Z"/></g>
<g><path style="opacity:1" fill="#414141" d="M 465.5,153.5 C 465.408,155.848 464.408,157.514 462.5,158.5C 462.75,156.326 463.75,154.659 465.5,153.5 Z"/></g>
<g><path style="opacity:1" fill="#929292" d="M 224.5,152.5 C 224.605,156.258 223.605,159.592 221.5,162.5C 221.723,158.838 222.723,155.505 224.5,152.5 Z"/></g>
<g><path style="opacity:1" fill="#9e9e9e" d="M 342.5,152.5 C 342.59,155.152 341.924,157.485 340.5,159.5C 340.41,156.848 341.076,154.515 342.5,152.5 Z"/></g>
<g><path style="opacity:1" fill="#626262" d="M 367.5,156.5 C 367.435,159.428 366.768,162.095 365.5,164.5C 365.294,161.505 365.96,158.838 367.5,156.5 Z"/></g>
<g><path style="opacity:1" fill="#b5b5b5" d="M 399.5,165.5 C 398.778,165.082 398.278,164.416 398,163.5C 397.617,164.056 397.117,164.389 396.5,164.5C 396.162,161.843 396.829,159.51 398.5,157.5C 399.48,160.086 399.813,162.753 399.5,165.5 Z"/></g>
<g><path style="opacity:1" fill="#4c4c4c" d="M 258.5,162.5 C 258.834,165.491 257.834,167.824 255.5,169.5C 255.935,166.843 256.935,164.509 258.5,162.5 Z"/></g>
<g><path style="opacity:1" fill="#7b7b7b" d="M 286.5,168.5 C 286.573,170.027 285.906,171.027 284.5,171.5C 284.427,169.973 285.094,168.973 286.5,168.5 Z"/></g>
<g><path style="opacity:1" fill="#414141" d="M 40.5,168.5 C 36.5407,170.973 32.2074,172.64 27.5,173.5C 31.3947,170.866 35.728,169.199 40.5,168.5 Z"/></g>
<g><path style="opacity:1" fill="#c2c2c2" d="M 396.5,164.5 C 396.665,167.85 396.498,171.183 396,174.5C 395.768,175.737 395.268,176.737 394.5,177.5C 394.77,172.972 395.437,168.639 396.5,164.5 Z"/></g>
<g><path style="opacity:1" fill="#979797" d="M 491.5,169.5 C 491.5,170.833 491.5,172.167 491.5,173.5C 493.5,173.5 495.5,173.5 497.5,173.5C 495.393,174.468 493.059,174.802 490.5,174.5C 490.216,172.585 490.549,170.919 491.5,169.5 Z"/></g>
<g><path style="opacity:1" fill="#7a7a7a" d="M 156.5,172.5 C 157.906,172.973 158.573,173.973 158.5,175.5C 157.094,175.027 156.427,174.027 156.5,172.5 Z"/></g>
<g><path style="opacity:1" fill="#b5b5b5" d="M 400.5,169.5 C 401.657,172.273 402.324,175.273 402.5,178.5C 401.883,178.389 401.383,178.056 401,177.5C 400.503,174.854 400.336,172.187 400.5,169.5 Z"/></g>
<g><path style="opacity:1" fill="#727272" d="M 219.5,171.5 C 219.59,174.152 218.924,176.485 217.5,178.5C 217.41,175.848 218.076,173.515 219.5,171.5 Z"/></g>
<g><path style="opacity:1" fill="#b5b5b5" d="M 338.5,169.5 C 337.505,178.472 336.838,187.472 336.5,196.5C 335.127,187.385 335.794,178.385 338.5,169.5 Z"/></g>
<g><path style="opacity:1" fill="#4e4e4e" d="M 426.5,175.5 C 427.924,177.515 428.59,179.848 428.5,182.5C 427.076,180.485 426.41,178.152 426.5,175.5 Z"/></g>
<g><path style="opacity:1" fill="#656565" d="M 67.5,180.5 C 68.404,181.209 68.7373,182.209 68.5,183.5C 67.5,183.5 66.5,183.5 65.5,183.5C 66.5511,182.778 67.2178,181.778 67.5,180.5 Z"/></g>
<g><path style="opacity:1" fill="#cacaca" d="M 520.5,179.5 C 516.206,181.816 511.54,183.15 506.5,183.5C 510.903,181.592 515.57,180.259 520.5,179.5 Z"/></g>
<g><path style="opacity:1" fill="#7c7c7c" d="M 362.5,178.5 C 362.706,181.495 362.04,184.162 360.5,186.5C 360.294,183.505 360.96,180.838 362.5,178.5 Z"/></g>
<g><path style="opacity:1" fill="#414141" d="M 253.5,180.5 C 253.665,183.518 253.498,186.518 253,189.5C 252.722,190.416 252.222,191.082 251.5,191.5C 251.646,187.613 252.313,183.946 253.5,180.5 Z"/></g>
<g><path style="opacity:1" fill="#bababa" d="M 217.5,180.5 C 217.24,186.172 216.907,191.839 216.5,197.5C 215.837,195.527 215.504,193.361 215.5,191C 215.379,187.218 216.046,183.718 217.5,180.5 Z"/></g>
<g><path style="opacity:1" fill="#a6a6a6" d="M 122.5,182.5 C 124.019,185.526 124.685,188.859 124.5,192.5C 124.497,195.025 124.163,197.359 123.5,199.5C 123.625,193.797 123.292,188.13 122.5,182.5 Z"/></g>
<g><path style="opacity:1" fill="#464646" d="M 357.5,192.5 C 356.92,194.749 355.587,196.415 353.5,197.5C 354.08,195.251 355.413,193.585 357.5,192.5 Z"/></g>
<g><path style="opacity:1" fill="#636363" d="M 541.5,195.5 C 542.906,195.973 543.573,196.973 543.5,198.5C 542.094,198.027 541.427,197.027 541.5,195.5 Z"/></g>
<g><path style="opacity:1" fill="#646464" d="M 184.5,186.5 C 183.882,193.817 183.549,201.151 183.5,208.5C 182.836,206.022 182.503,203.355 182.5,200.5C 182.421,195.588 183.088,190.921 184.5,186.5 Z"/></g>
<g><path style="opacity:1" fill="#969696" d="M 457.5,196.5 C 458.537,197.93 459.204,199.597 459.5,201.5C 457.787,200.365 457.12,198.698 457.5,196.5 Z"/></g>
<g><path style="opacity:1" fill="#979797" d="M 492.5,202.5 C 494.027,202.427 495.027,203.094 495.5,204.5C 493.973,204.573 492.973,203.906 492.5,202.5 Z"/></g>
<g><path style="opacity:1" fill="#868686" d="M 254.5,209.5 C 253.609,210.11 252.609,210.443 251.5,210.5C 252.221,208.618 253.221,208.285 254.5,209.5 Z"/></g>
<g><path style="opacity:1" fill="#3e3e3e" d="M 122.5,207.5 C 122.975,210.313 121.975,212.313 119.5,213.5C 120.508,211.456 121.508,209.456 122.5,207.5 Z"/></g>
<g><path style="opacity:1" fill="#696969" d="M 439.5,210.5 C 440.906,210.973 441.573,211.973 441.5,213.5C 440.094,213.027 439.427,212.027 439.5,210.5 Z"/></g>
<g><path style="opacity:1" fill="#c6c6c6" d="M 359.5,221.5 C 358.542,221.047 357.708,220.381 357,219.5C 357.256,215.564 355.756,214.231 352.5,215.5C 353.81,213.852 355.143,212.186 356.5,210.5C 357.096,214.363 358.096,218.03 359.5,221.5 Z"/></g>
<g><path style="opacity:1" fill="#bebebe" d="M 239.5,217.5 C 239.53,218.497 239.03,219.164 238,219.5C 234.6,220.956 231.1,221.956 227.5,222.5C 231.261,220.462 235.261,218.796 239.5,217.5 Z"/></g>
<g><path style="opacity:1" fill="#7d7d7d" d="M 265.5,221.5 C 267.027,221.427 268.027,222.094 268.5,223.5C 266.973,223.573 265.973,222.906 265.5,221.5 Z"/></g>
<g><path style="opacity:1" fill="#adadad" d="M 524.5,220.5 C 521.947,222.584 518.947,223.917 515.5,224.5C 518.053,222.416 521.053,221.083 524.5,220.5 Z"/></g>
<g><path style="opacity:1" fill="#acacac" d="M 32.5,218.5 C 32.2487,224.892 32.582,231.225 33.5,237.5C 32.8826,237.389 32.3826,237.056 32,236.5C 29.8627,230.297 30.0293,224.297 32.5,218.5 Z"/></g>
<g><path style="opacity:1" fill="#4f4f4f" d="M 484.5,224.5 C 491.465,225.341 498.465,225.674 505.5,225.5C 502.686,226.165 499.686,226.498 496.5,226.5C 492.203,226.722 488.203,226.055 484.5,224.5 Z"/></g>
<g><path style="opacity:1" fill="#8b8b8b" d="M -0.5,224.5 C -0.166667,224.5 0.166667,224.5 0.5,224.5C 0.359883,230.536 0.693217,236.536 1.5,242.5C 0.833333,241.5 0.166667,240.5 -0.5,239.5C -0.5,234.5 -0.5,229.5 -0.5,224.5 Z"/></g>
<g><path style="opacity:1" fill="#565656" d="M 88.5,241.5 C 86.9674,243.245 84.9674,244.245 82.5,244.5C 84.0326,242.755 86.0326,241.755 88.5,241.5 Z"/></g>
<g><path style="opacity:1" fill="#565656" d="M 522.5,241.5 C 520.316,243.585 517.649,244.585 514.5,244.5C 516.792,242.733 519.458,241.733 522.5,241.5 Z"/></g>
<g><path style="opacity:1" fill="#939393" d="M 1.5,242.5 C 2.53747,243.93 3.20414,245.597 3.5,247.5C 1.78679,246.365 1.12012,244.698 1.5,242.5 Z"/></g>
<g><path style="opacity:1" fill="#878787" d="M 476.5,244.5 C 484.381,246.219 492.381,246.886 500.5,246.5C 494.681,247.653 488.681,247.819 482.5,247C 480.277,246.434 478.277,245.6 476.5,244.5 Z"/></g>
<g><path style="opacity:1" fill="#818181" d="M 42.5,246.5 C 49.349,248.225 56.349,248.891 63.5,248.5C 58.3497,249.651 53.0164,249.817 47.5,249C 45.5087,248.626 43.842,247.793 42.5,246.5 Z"/></g>
<g><path style="opacity:1" fill="#aeaeae" d="M 533.5,255.5 C 533.53,256.497 533.03,257.164 532,257.5C 528.6,258.956 525.1,259.956 521.5,260.5C 525.261,258.462 529.261,256.796 533.5,255.5 Z"/></g>
<g><path style="opacity:1" fill="#afafaf" d="M 111.5,259.5 C 109.967,261.245 107.967,262.245 105.5,262.5C 107.033,260.755 109.033,259.755 111.5,259.5 Z"/></g>
<g><path style="opacity:1" fill="#4f4f4f" d="M 465.5,260.5 C 470.603,261.588 475.603,262.588 480.5,263.5C 475.073,264.018 470.073,263.018 465.5,260.5 Z"/></g>
<g><path style="opacity:1" fill="#acacac" d="M 105.5,262.5 C 101.767,264.411 97.767,265.744 93.5,266.5C 97.0845,264.194 101.085,262.861 105.5,262.5 Z"/></g>
<g><path style="opacity:1" fill="#a8a8a8" d="M 517.5,261.5 C 515.611,262.322 513.611,263.155 511.5,264C 501.325,264.825 491.325,264.658 481.5,263.5C 493.589,263.942 505.589,263.275 517.5,261.5 Z"/></g>
<g><path style="opacity:1" fill="#9a9a9a" d="M 83.5,268.5 C 81.4855,269.924 79.1522,270.59 76.5,270.5C 78.5145,269.076 80.8478,268.41 83.5,268.5 Z"/></g>
<g><path style="opacity:1" fill="#cbcbcb" d="M 226.5,312.5 C 239.323,311.505 252.323,311.171 265.5,311.5C 265.813,315.042 265.479,318.375 264.5,321.5C 264.5,318.5 264.5,315.5 264.5,312.5C 251.833,312.5 239.167,312.5 226.5,312.5 Z"/></g>
<g><path style="opacity:1" fill="#333333" d="M 226.5,312.5 C 239.167,312.5 251.833,312.5 264.5,312.5C 264.5,315.5 264.5,318.5 264.5,321.5C 259.833,321.5 255.167,321.5 250.5,321.5C 254.634,320.515 258.968,320.182 263.5,320.5C 263.5,318.167 263.5,315.833 263.5,313.5C 251.5,313.5 239.5,313.5 227.5,313.5C 227.5,315.833 227.5,318.167 227.5,320.5C 232.032,320.182 236.366,320.515 240.5,321.5C 235.833,321.5 231.167,321.5 226.5,321.5C 226.5,318.5 226.5,315.5 226.5,312.5 Z"/></g>
<g><path style="opacity:1" fill="#060606" d="M 119.5,321.5 C 111.833,321.5 104.167,321.5 96.5,321.5C 96.5,324.833 96.5,328.167 96.5,331.5C 103.648,332.492 110.981,332.825 118.5,332.5C 118.5,335.167 118.5,337.833 118.5,340.5C 111.167,340.5 103.833,340.5 96.5,340.5C 96.5,347.167 96.5,353.833 96.5,360.5C 93.5,360.5 90.5,360.5 87.5,360.5C 87.5,344.833 87.5,329.167 87.5,313.5C 98.1667,313.5 108.833,313.5 119.5,313.5C 119.5,316.167 119.5,318.833 119.5,321.5 Z"/></g>
<g><path style="opacity:1" fill="#040404" d="M 150.5,313.5 C 153.167,313.5 155.833,313.5 158.5,313.5C 158.5,328.833 158.5,344.167 158.5,359.5C 155.833,359.5 153.167,359.5 150.5,359.5C 150.832,348.813 150.499,338.146 149.5,327.5C 148.893,327.624 148.56,327.957 148.5,328.5C 148.167,329.167 147.833,329.833 147.5,330.5C 143.496,331.256 140.496,329.59 138.5,325.5C 142.854,321.812 146.854,317.812 150.5,313.5 Z"/></g>
<g><path style="opacity:1" fill="#1b1b1b" d="M 150.5,313.5 C 153.287,312.523 156.287,312.19 159.5,312.5C 159.5,328.5 159.5,344.5 159.5,360.5C 156.5,360.5 153.5,360.5 150.5,360.5C 150.5,360.167 150.5,359.833 150.5,359.5C 153.167,359.5 155.833,359.5 158.5,359.5C 158.5,344.167 158.5,328.833 158.5,313.5C 155.833,313.5 153.167,313.5 150.5,313.5 Z"/></g>
<g><path style="opacity:1" fill="#8c8c8c" d="M 159.5,312.5 C 160.496,328.658 160.83,344.991 160.5,361.5C 156.629,361.815 152.962,361.482 149.5,360.5C 149.833,360.5 150.167,360.5 150.5,360.5C 153.5,360.5 156.5,360.5 159.5,360.5C 159.5,344.5 159.5,328.5 159.5,312.5 Z"/></g>
<g><path style="opacity:1" fill="#000000" d="M 250.5,321.5 C 249.505,333.989 249.171,346.656 249.5,359.5C 246.833,359.5 244.167,359.5 241.5,359.5C 241.829,346.656 241.495,333.989 240.5,321.5C 236.366,320.515 232.032,320.182 227.5,320.5C 227.5,318.167 227.5,315.833 227.5,313.5C 239.5,313.5 251.5,313.5 263.5,313.5C 263.5,315.833 263.5,318.167 263.5,320.5C 258.968,320.182 254.634,320.515 250.5,321.5 Z"/></g>
<g><path style="opacity:1" fill="#030303" d="M 298.5,321.5 C 298.5,324.833 298.5,328.167 298.5,331.5C 305.648,332.492 312.981,332.825 320.5,332.5C 320.5,335.167 320.5,337.833 320.5,340.5C 313.167,340.5 305.833,340.5 298.5,340.5C 298.5,344.167 298.5,347.833 298.5,351.5C 305.648,352.492 312.981,352.825 320.5,352.5C 320.5,354.833 320.5,357.167 320.5,359.5C 310.167,359.5 299.833,359.5 289.5,359.5C 289.5,344.167 289.5,328.833 289.5,313.5C 299.833,313.5 310.167,313.5 320.5,313.5C 320.5,315.833 320.5,318.167 320.5,320.5C 312.981,320.175 305.648,320.508 298.5,321.5 Z"/></g>
<g><path style="opacity:1" fill="#0d0d0d" d="M 379.5,330.5 C 379.166,333.491 380.166,335.824 382.5,337.5C 383.98,341.945 385.647,346.279 387.5,350.5C 387.796,352.403 388.463,354.07 389.5,355.5C 390.339,356.641 391.006,357.974 391.5,359.5C 387.893,360.489 384.226,360.823 380.5,360.5C 379.759,357.366 378.759,354.366 377.5,351.5C 370.833,351.5 364.167,351.5 357.5,351.5C 355.935,353.509 354.935,355.843 354.5,358.5C 354.672,359.492 354.338,360.158 353.5,360.5C 349.671,361.069 346.337,360.402 343.5,358.5C 345.575,352.689 347.908,347.022 350.5,341.5C 352.834,339.824 353.834,337.491 353.5,334.5C 354.11,333.609 354.443,332.609 354.5,331.5C 356.834,329.824 357.834,327.491 357.5,324.5C 359.396,320.703 360.73,316.703 361.5,312.5C 365.226,312.177 368.893,312.511 372.5,313.5C 375.286,318.978 377.62,324.645 379.5,330.5 Z"/></g>
<g><path style="opacity:1" fill="#070707" d="M 425.5,313.5 C 425.833,314.167 426.167,314.833 426.5,315.5C 426.166,318.491 427.166,320.824 429.5,322.5C 431.279,325.627 432.613,328.96 433.5,332.5C 433.259,334.898 433.926,336.898 435.5,338.5C 436.151,339.091 436.818,339.757 437.5,340.5C 437.833,340.167 438.167,339.833 438.5,339.5C 441.577,330.44 445.244,321.773 449.5,313.5C 453.167,313.5 456.833,313.5 460.5,313.5C 460.5,329.167 460.5,344.833 460.5,360.5C 457.5,360.5 454.5,360.5 451.5,360.5C 451.831,352.14 451.498,343.807 450.5,335.5C 449.702,335.957 449.369,336.624 449.5,337.5C 448.237,341.608 446.571,345.608 444.5,349.5C 443.463,350.93 442.796,352.597 442.5,354.5C 441.27,356.297 440.604,358.297 440.5,360.5C 437.364,361.021 435.03,360.021 433.5,357.5C 433.065,354.843 432.065,352.509 430.5,350.5C 428.828,346.444 427.161,342.444 425.5,338.5C 425.573,336.973 424.906,335.973 423.5,335.5C 422.508,343.316 422.174,351.316 422.5,359.5C 419.833,359.5 417.167,359.5 414.5,359.5C 414.5,344.167 414.5,328.833 414.5,313.5C 418.167,313.5 421.833,313.5 425.5,313.5 Z"/></g>
<g><path style="opacity:1" fill="#2f2f2f" d="M 288.5,312.5 C 299.5,312.5 310.5,312.5 321.5,312.5C 321.5,315.5 321.5,318.5 321.5,321.5C 313.833,321.5 306.167,321.5 298.5,321.5C 305.648,320.508 312.981,320.175 320.5,320.5C 320.5,318.167 320.5,315.833 320.5,313.5C 310.167,313.5 299.833,313.5 289.5,313.5C 289.5,328.833 289.5,344.167 289.5,359.5C 299.833,359.5 310.167,359.5 320.5,359.5C 320.5,357.167 320.5,354.833 320.5,352.5C 312.981,352.825 305.648,352.492 298.5,351.5C 306.167,351.5 313.833,351.5 321.5,351.5C 322.833,354.5 322.833,357.5 321.5,360.5C 310.5,360.5 299.5,360.5 288.5,360.5C 288.5,344.5 288.5,328.5 288.5,312.5 Z"/></g>
<g><path style="opacity:1" fill="#3d3d3d" d="M 425.5,313.5 C 421.833,313.5 418.167,313.5 414.5,313.5C 414.5,328.833 414.5,344.167 414.5,359.5C 417.167,359.5 419.833,359.5 422.5,359.5C 422.174,351.316 422.508,343.316 423.5,335.5C 423.5,343.833 423.5,352.167 423.5,360.5C 420.167,360.5 416.833,360.5 413.5,360.5C 413.5,344.5 413.5,328.5 413.5,312.5C 417.702,312.183 421.702,312.517 425.5,313.5 Z"/></g>
<g><path style="opacity:1" fill="#565656" d="M 449.5,313.5 C 453.298,312.517 457.298,312.183 461.5,312.5C 461.5,328.833 461.5,345.167 461.5,361.5C 457.958,361.813 454.625,361.479 451.5,360.5C 454.5,360.5 457.5,360.5 460.5,360.5C 460.5,344.833 460.5,329.167 460.5,313.5C 456.833,313.5 453.167,313.5 449.5,313.5 Z"/></g>
<g><path style="opacity:1" fill="#3f3f3f" d="M 119.5,321.5 C 119.5,318.833 119.5,316.167 119.5,313.5C 108.833,313.5 98.1667,313.5 87.5,313.5C 87.5,329.167 87.5,344.833 87.5,360.5C 86.5036,344.675 86.1703,328.675 86.5,312.5C 97.8333,312.5 109.167,312.5 120.5,312.5C 120.81,315.713 120.477,318.713 119.5,321.5 Z"/></g>
<g><path style="opacity:1" fill="#4e4d4e" d="M 426.5,315.5 C 428.065,317.509 429.065,319.843 429.5,322.5C 427.166,320.824 426.166,318.491 426.5,315.5 Z"/></g>
<g><path style="opacity:1" fill="#d4d4d4" d="M 226.5,321.5 C 231.167,321.5 235.833,321.5 240.5,321.5C 240.5,334.5 240.5,347.5 240.5,360.5C 243.833,360.5 247.167,360.5 250.5,360.5C 247.038,361.482 243.371,361.815 239.5,361.5C 239.5,348.5 239.5,335.5 239.5,322.5C 234.968,322.818 230.634,322.485 226.5,321.5 Z"/></g>
<g><path style="opacity:1" fill="#aaaaaa" d="M 250.5,321.5 C 255.167,321.5 259.833,321.5 264.5,321.5C 260.366,322.485 256.032,322.818 251.5,322.5C 251.829,335.344 251.495,348.011 250.5,360.5C 250.5,347.5 250.5,334.5 250.5,321.5 Z"/></g>
<g><path style="opacity:1" fill="#7a7a7a" d="M 175.5,310.5 C 183.498,310 187.331,313.667 187,321.5C 183.086,328.096 178.086,329.096 172,324.5C 169.089,318.595 170.255,313.929 175.5,310.5 Z"/></g>
<g><path style="opacity:1" fill="#d9d9d9" d="M 175.5,312.5 C 185.615,312.249 187.949,316.249 182.5,324.5C 174.697,326.532 171.53,323.532 173,315.5C 173.698,314.309 174.531,313.309 175.5,312.5 Z"/></g>
<g><path style="opacity:1" fill="#606060" d="M 175.5,314.5 C 177.792,314.244 179.959,314.577 182,315.5C 181.051,318.104 180.718,320.771 181,323.5C 179.36,319.66 177.86,319.66 176.5,323.5C 175.516,320.572 175.183,317.572 175.5,314.5 Z"/></g>
<g><path style="opacity:1" fill="#cfcfcf" d="M 176.5,315.5 C 177.833,315.5 179.167,315.5 180.5,315.5C 180.5,316.5 180.5,317.5 180.5,318.5C 179.167,318.5 177.833,318.5 176.5,318.5C 176.5,317.5 176.5,316.5 176.5,315.5 Z"/></g>
<g><path style="opacity:1" fill="#4b4b4b" d="M 357.5,324.5 C 357.834,327.491 356.834,329.824 354.5,331.5C 354.935,328.843 355.935,326.509 357.5,324.5 Z"/></g>
<g><path style="opacity:1" fill="#878787" d="M 366.5,327.5 C 366.56,326.957 366.893,326.624 367.5,326.5C 368.705,327.577 369.372,328.91 369.5,330.5C 368.272,329.694 367.272,328.694 366.5,327.5 Z"/></g>
<g><path style="opacity:1" fill="#d6d6d6" d="M 148.5,328.5 C 149.494,338.987 149.828,349.654 149.5,360.5C 148.833,350.5 148.167,340.5 147.5,330.5C 147.833,329.833 148.167,329.167 148.5,328.5 Z"/></g>
<g><path style="opacity:1" fill="#e2e2e2" d="M 366.5,327.5 C 367.272,328.694 368.272,329.694 369.5,330.5C 370.784,333.402 371.784,336.402 372.5,339.5C 369.316,341.414 365.649,342.08 361.5,341.5C 362.412,336.421 364.079,331.755 366.5,327.5 Z"/></g>
<g><path style="opacity:1" fill="#b2b2b2" d="M 119.5,321.5 C 112.352,322.492 105.019,322.825 97.5,322.5C 97.5,325.167 97.5,327.833 97.5,330.5C 105.019,330.175 112.352,330.508 119.5,331.5C 111.833,331.5 104.167,331.5 96.5,331.5C 96.5,328.167 96.5,324.833 96.5,321.5C 104.167,321.5 111.833,321.5 119.5,321.5 Z"/></g>
<g><path style="opacity:1" fill="#b3b3b3" d="M 298.5,321.5 C 306.167,321.5 313.833,321.5 321.5,321.5C 314.352,322.492 307.019,322.825 299.5,322.5C 299.5,325.167 299.5,327.833 299.5,330.5C 307.019,330.175 314.352,330.508 321.5,331.5C 313.833,331.5 306.167,331.5 298.5,331.5C 298.5,328.167 298.5,324.833 298.5,321.5 Z"/></g>
<g><path style="opacity:1" fill="#323232" d="M 96.5,331.5 C 104.167,331.5 111.833,331.5 119.5,331.5C 119.5,334.5 119.5,337.5 119.5,340.5C 119.167,340.5 118.833,340.5 118.5,340.5C 118.5,337.833 118.5,335.167 118.5,332.5C 110.981,332.825 103.648,332.492 96.5,331.5 Z"/></g>
<g><path style="opacity:1" fill="#373737" d="M 298.5,331.5 C 306.167,331.5 313.833,331.5 321.5,331.5C 321.5,334.5 321.5,337.5 321.5,340.5C 321.167,340.5 320.833,340.5 320.5,340.5C 320.5,337.833 320.5,335.167 320.5,332.5C 312.981,332.825 305.648,332.492 298.5,331.5 Z"/></g>
<g><path style="opacity:1" fill="#505050" d="M 379.5,330.5 C 381.065,332.509 382.065,334.843 382.5,337.5C 380.166,335.824 379.166,333.491 379.5,330.5 Z"/></g>
<g><path style="opacity:1" fill="#343434" d="M 240.5,321.5 C 241.495,333.989 241.829,346.656 241.5,359.5C 244.167,359.5 246.833,359.5 249.5,359.5C 249.171,346.656 249.505,333.989 250.5,321.5C 250.5,334.5 250.5,347.5 250.5,360.5C 247.167,360.5 243.833,360.5 240.5,360.5C 240.5,347.5 240.5,334.5 240.5,321.5 Z"/></g>
<g><path style="opacity:1" fill="#454545" d="M 433.5,332.5 C 435.074,334.102 435.741,336.102 435.5,338.5C 433.926,336.898 433.259,334.898 433.5,332.5 Z"/></g>
<g><path style="opacity:1" fill="#4a4a4a" d="M 353.5,334.5 C 353.834,337.491 352.834,339.824 350.5,341.5C 350.935,338.843 351.935,336.509 353.5,334.5 Z"/></g>
<g><path style="opacity:1" fill="#ababab" d="M 423.5,335.5 C 424.906,335.973 425.573,336.973 425.5,338.5C 424.833,345.833 424.167,353.167 423.5,360.5C 423.5,352.167 423.5,343.833 423.5,335.5 Z"/></g>
<g><path style="opacity:1" fill="#5c5c5c" d="M 148.5,328.5 C 148.56,327.957 148.893,327.624 149.5,327.5C 150.499,338.146 150.832,348.813 150.5,359.5C 150.5,359.833 150.5,360.167 150.5,360.5C 150.167,360.5 149.833,360.5 149.5,360.5C 149.828,349.654 149.494,338.987 148.5,328.5 Z"/></g>
<g><path style="opacity:1" fill="#4e4e4e" d="M 372.5,339.5 C 373.404,340.209 373.737,341.209 373.5,342.5C 369.298,342.817 365.298,342.483 361.5,341.5C 365.649,342.08 369.316,341.414 372.5,339.5 Z"/></g>
<g><path style="opacity:1" fill="#9b9b9b" d="M 451.5,360.5 C 450.833,352.833 450.167,345.167 449.5,337.5C 449.369,336.624 449.702,335.957 450.5,335.5C 451.498,343.807 451.831,352.14 451.5,360.5 Z"/></g>
<g><path style="opacity:1" fill="#acacac" d="M 118.5,340.5 C 118.833,340.5 119.167,340.5 119.5,340.5C 112.352,341.492 105.019,341.825 97.5,341.5C 97.8235,348.022 97.4902,354.355 96.5,360.5C 96.5,353.833 96.5,347.167 96.5,340.5C 103.833,340.5 111.167,340.5 118.5,340.5 Z"/></g>
<g><path style="opacity:1" fill="#b0b0b0" d="M 320.5,340.5 C 320.833,340.5 321.167,340.5 321.5,340.5C 314.352,341.492 307.019,341.825 299.5,341.5C 299.5,344.5 299.5,347.5 299.5,350.5C 307.019,350.175 314.352,350.508 321.5,351.5C 313.833,351.5 306.167,351.5 298.5,351.5C 298.5,347.833 298.5,344.167 298.5,340.5C 305.833,340.5 313.167,340.5 320.5,340.5 Z"/></g>
<g><path style="opacity:1" fill="#8d8d8d" d="M 387.5,350.5 C 389.213,351.635 389.88,353.302 389.5,355.5C 388.463,354.07 387.796,352.403 387.5,350.5 Z"/></g>
<g><path style="opacity:1" fill="#979797" d="M 444.5,349.5 C 444.88,351.698 444.213,353.365 442.5,354.5C 442.796,352.597 443.463,350.93 444.5,349.5 Z"/></g>
<g><path style="opacity:1" fill="#a4a4a4" d="M 430.5,350.5 C 432.065,352.509 433.065,354.843 433.5,357.5C 431.166,355.824 430.166,353.491 430.5,350.5 Z"/></g>
<g><path style="opacity:1" fill="#9c9c9c" d="M 357.5,351.5 C 357.834,354.491 356.834,356.824 354.5,358.5C 354.935,355.843 355.935,353.509 357.5,351.5 Z"/></g>
<g><path style="opacity:1" fill="#a2a2a2" d="M 288.5,312.5 C 288.5,328.5 288.5,344.5 288.5,360.5C 299.5,360.5 310.5,360.5 321.5,360.5C 310.346,361.495 299.012,361.828 287.5,361.5C 287.17,344.991 287.504,328.658 288.5,312.5 Z"/></g>
<g><path style="opacity:1" fill="#989898" d="M 343.5,358.5 C 346.337,360.402 349.671,361.069 353.5,360.5C 350.038,361.482 346.371,361.815 342.5,361.5C 342.263,360.209 342.596,359.209 343.5,358.5 Z"/></g>
<g><path style="opacity:1" fill="#454545" d="M 289.5,416.5 C 287.898,418.074 285.898,418.741 283.5,418.5C 285.102,416.926 287.102,416.259 289.5,416.5 Z"/></g>
<g><path style="opacity:1" fill="#0a0a0a" d="M 289.5,416.5 C 296.646,416.524 303.646,417.524 310.5,419.5C 310.949,422.044 310.949,424.71 310.5,427.5C 303.509,426.744 296.509,426.577 289.5,427C 285.788,429.602 284.622,433.102 286,437.5C 290.789,441.216 295.956,444.382 301.5,447C 303.049,448.214 304.215,449.714 305,451.5C 306.899,461.335 304.065,469.335 296.5,475.5C 293.603,476.129 290.936,477.129 288.5,478.5C 280.663,479.032 272.997,478.199 265.5,476C 264.351,473.541 264.351,471.041 265.5,468.5C 272.252,468.49 278.918,468.156 285.5,467.5C 291.952,466.608 294.452,462.941 293,456.5C 288.609,453.813 284.109,451.313 279.5,449C 269.818,438.421 270.485,428.421 281.5,419C 282.094,418.536 282.761,418.369 283.5,418.5C 285.898,418.741 287.898,418.074 289.5,416.5 Z"/></g>
<g><path style="opacity:1" fill="#3c3c3c" d="M 377.5,419.5 C 377.167,419.5 376.833,419.5 376.5,419.5C 373.038,418.518 369.371,418.185 365.5,418.5C 365.737,419.791 365.404,420.791 364.5,421.5C 364.5,420.167 364.5,418.833 364.5,417.5C 369.294,416.903 373.627,417.57 377.5,419.5 Z"/></g>
<g><path style="opacity:1" fill="#3f3f3f" d="M 407.5,420.5 C 407.167,420.5 406.833,420.5 406.5,420.5C 403.316,418.586 399.649,417.92 395.5,418.5C 395.737,419.791 395.404,420.791 394.5,421.5C 394.5,420.167 394.5,418.833 394.5,417.5C 398.833,417.5 403.167,417.5 407.5,417.5C 407.5,418.5 407.5,419.5 407.5,420.5 Z"/></g>
<g><path style="opacity:1" fill="#323232" d="M 498.5,419.5 C 487.346,418.505 476.012,418.172 464.5,418.5C 464.405,420.786 463.738,422.786 462.5,424.5C 462.674,422.139 463.007,419.806 463.5,417.5C 475.518,417.168 487.518,417.501 499.5,418.5C 499.376,419.107 499.043,419.44 498.5,419.5 Z"/></g>
<g><path style="opacity:1" fill="#303030" d="M 528.5,417.5 C 528.5,417.833 528.5,418.167 528.5,418.5C 520.747,418.201 513.08,418.534 505.5,419.5C 512.76,417.535 520.427,416.868 528.5,417.5 Z"/></g>
<g><path style="opacity:1" fill="#959595" d="M 528.5,418.5 C 528.5,418.167 528.5,417.833 528.5,417.5C 530.698,417.12 532.365,417.787 533.5,419.5C 531.883,418.962 530.216,418.629 528.5,418.5 Z"/></g>
<g><path style="opacity:1" fill="#040404" d="M 24.5,417.5 C 24.5,421.833 24.5,426.167 24.5,430.5C 26.8333,430.5 29.1667,430.5 31.5,430.5C 31.5,428.5 31.5,426.5 31.5,424.5C 33.8333,424.5 36.1667,424.5 38.5,424.5C 38.5,422.167 38.5,419.833 38.5,417.5C 44.8333,417.5 51.1667,417.5 57.5,417.5C 57.5,423.833 57.5,430.167 57.5,436.5C 55.2646,436.205 53.2646,436.539 51.5,437.5C 51.5,439.5 51.5,441.5 51.5,443.5C 49.2646,443.205 47.2646,443.539 45.5,444.5C 45.5,446.5 45.5,448.5 45.5,450.5C 47.2646,451.461 49.2646,451.795 51.5,451.5C 51.2053,453.735 51.5386,455.735 52.5,457.5C 54.5,457.5 56.5,457.5 58.5,457.5C 58.5,464.167 58.5,470.833 58.5,477.5C 51.8333,477.5 45.1667,477.5 38.5,477.5C 38.5,475.167 38.5,472.833 38.5,470.5C 36.1667,470.5 33.8333,470.5 31.5,470.5C 31.5,468.5 31.5,466.5 31.5,464.5C 29.1667,464.5 26.8333,464.5 24.5,464.5C 24.5,468.833 24.5,473.167 24.5,477.5C 17.8333,477.5 11.1667,477.5 4.5,477.5C 4.5,457.5 4.5,437.5 4.5,417.5C 11.1667,417.5 17.8333,417.5 24.5,417.5 Z"/></g>
<g><path style="opacity:1" fill="#2f2f2f" d="M 57.5,417.5 C 58.4907,423.979 58.824,430.646 58.5,437.5C 56.5,437.5 54.5,437.5 52.5,437.5C 52.1667,437.5 51.8333,437.5 51.5,437.5C 53.2646,436.539 55.2646,436.205 57.5,436.5C 57.5,430.167 57.5,423.833 57.5,417.5 Z"/></g>
<g><path style="opacity:1" fill="#050505" d="M 65.5,417.5 C 72.1667,417.5 78.8333,417.5 85.5,417.5C 85.5,437.5 85.5,457.5 85.5,477.5C 78.8333,477.5 72.1667,477.5 65.5,477.5C 65.5,457.5 65.5,437.5 65.5,417.5 Z"/></g>
<g><path style="opacity:1" fill="#050505" d="M 99.5,417.5 C 110.5,417.5 121.5,417.5 132.5,417.5C 132.5,424.167 132.5,430.833 132.5,437.5C 125.833,437.5 119.167,437.5 112.5,437.5C 112.5,444.167 112.5,450.833 112.5,457.5C 119.167,457.5 125.833,457.5 132.5,457.5C 132.5,464.167 132.5,470.833 132.5,477.5C 121.5,477.5 110.5,477.5 99.5,477.5C 99.5,475.167 99.5,472.833 99.5,470.5C 97.1667,470.5 94.8333,470.5 92.5,470.5C 92.5,455.167 92.5,439.833 92.5,424.5C 94.8333,424.5 97.1667,424.5 99.5,424.5C 99.5,422.167 99.5,419.833 99.5,417.5 Z"/></g>
<g><path style="opacity:1" fill="#040404" d="M 159.5,417.5 C 159.5,422.167 159.5,426.833 159.5,431.5C 162.059,431.802 164.393,431.468 166.5,430.5C 166.5,428.5 166.5,426.5 166.5,424.5C 168.833,424.5 171.167,424.5 173.5,424.5C 173.5,422.167 173.5,419.833 173.5,417.5C 180.167,417.5 186.833,417.5 193.5,417.5C 193.5,424.167 193.5,430.833 193.5,437.5C 191.5,437.5 189.5,437.5 187.5,437.5C 186.539,439.265 186.205,441.265 186.5,443.5C 184.265,443.205 182.265,443.539 180.5,444.5C 180.5,446.5 180.5,448.5 180.5,450.5C 182.265,451.461 184.265,451.795 186.5,451.5C 186.205,453.735 186.539,455.735 187.5,457.5C 189.5,457.5 191.5,457.5 193.5,457.5C 193.5,464.167 193.5,470.833 193.5,477.5C 186.833,477.5 180.167,477.5 173.5,477.5C 173.5,475.5 173.5,473.5 173.5,471.5C 171.735,470.539 169.735,470.205 167.5,470.5C 167.795,468.265 167.461,466.265 166.5,464.5C 164.167,464.5 161.833,464.5 159.5,464.5C 159.5,468.833 159.5,473.167 159.5,477.5C 152.833,477.5 146.167,477.5 139.5,477.5C 139.5,457.5 139.5,437.5 139.5,417.5C 146.167,417.5 152.833,417.5 159.5,417.5 Z"/></g>
<g><path style="opacity:1" fill="#838383" d="M 159.5,417.5 C 160.485,421.634 160.818,425.968 160.5,430.5C 162.5,430.5 164.5,430.5 166.5,430.5C 164.393,431.468 162.059,431.802 159.5,431.5C 159.5,426.833 159.5,422.167 159.5,417.5 Z"/></g>
<g><path style="opacity:1" fill="#0e0e0e" d="M 229.5,417.5 C 230.833,417.5 232.167,417.5 233.5,417.5C 233.5,437.5 233.5,457.5 233.5,477.5C 232.167,477.5 230.833,477.5 229.5,477.5C 229.5,457.5 229.5,437.5 229.5,417.5 Z"/></g>
<g><path style="opacity:1" fill="#0b0b0b" d="M 329.5,417.5 C 336.5,417.5 343.5,417.5 350.5,417.5C 350.5,423.5 350.5,429.5 350.5,435.5C 349.591,449.475 349.257,463.475 349.5,477.5C 345.5,477.5 341.5,477.5 337.5,477.5C 337.813,473.958 337.479,470.625 336.5,467.5C 330.824,467.334 325.157,467.501 319.5,468C 317.467,470.896 316.134,474.063 315.5,477.5C 311.029,478.089 307.029,477.423 303.5,475.5C 312.212,456.085 320.878,436.752 329.5,417.5 Z"/></g>
<g><path style="opacity:1" fill="#0b0b0b" d="M 376.5,419.5 C 376.007,421.806 375.674,424.139 375.5,426.5C 374.366,429.37 373.7,432.37 373.5,435.5C 372.076,437.515 371.41,439.848 371.5,442.5C 371.5,443.167 371.5,443.833 371.5,444.5C 370.076,446.515 369.41,448.848 369.5,451.5C 367.865,455.926 367.365,460.593 368,465.5C 375.024,470.324 380.691,468.991 385,461.5C 387.982,448.082 391.149,434.749 394.5,421.5C 395.404,420.791 395.737,419.791 395.5,418.5C 399.649,417.92 403.316,418.586 406.5,420.5C 405.626,423.789 404.959,427.123 404.5,430.5C 403.85,432.435 403.517,434.435 403.5,436.5C 402.076,438.515 401.41,440.848 401.5,443.5C 400.85,445.435 400.517,447.435 400.5,449.5C 399.076,451.515 398.41,453.848 398.5,456.5C 394.542,474.993 383.209,482.159 364.5,478C 360.725,476.558 357.892,474.058 356,470.5C 355.333,465.5 355.333,460.5 356,455.5C 358.55,443.966 361.384,432.632 364.5,421.5C 365.404,420.791 365.737,419.791 365.5,418.5C 369.371,418.185 373.038,418.518 376.5,419.5 Z"/></g>
<g><path style="opacity:1" fill="#0a0a0a" d="M 429.5,477.5 C 420.5,477.5 411.5,477.5 402.5,477.5C 402.5,476.5 402.5,475.5 402.5,474.5C 403.043,471.782 403.709,469.115 404.5,466.5C 405.924,464.485 406.59,462.152 406.5,459.5C 409.183,445.436 412.183,431.436 415.5,417.5C 424.173,417.334 432.84,417.5 441.5,418C 450.994,420.146 454.494,425.98 452,435.5C 450.443,440.215 447.61,443.882 443.5,446.5C 451.004,456.695 449.671,465.862 439.5,474C 436.224,475.692 432.891,476.859 429.5,477.5 Z"/></g>
<g><path style="opacity:1" fill="#060606" d="M 498.5,419.5 C 497.85,421.435 497.517,423.435 497.5,425.5C 489.586,427.102 481.586,428.102 473.5,428.5C 472.515,432.076 471.848,435.742 471.5,439.5C 470.596,440.209 470.263,441.209 470.5,442.5C 476.5,442.5 482.5,442.5 488.5,442.5C 487.781,444.764 487.448,447.097 487.5,449.5C 486.596,450.209 486.263,451.209 486.5,452.5C 480.31,452.177 474.31,452.51 468.5,453.5C 467.055,456.937 466.055,460.603 465.5,464.5C 464.596,465.209 464.263,466.209 464.5,467.5C 472.573,466.868 480.24,467.535 487.5,469.5C 486.631,471.717 486.298,474.05 486.5,476.5C 486.167,476.5 485.833,476.5 485.5,476.5C 474.167,476.5 462.833,476.5 451.5,476.5C 451.5,475.167 451.5,473.833 451.5,472.5C 454.661,456.36 458.327,440.36 462.5,424.5C 463.738,422.786 464.405,420.786 464.5,418.5C 476.012,418.172 487.346,418.505 498.5,419.5 Z"/></g>
<g><path style="opacity:1" fill="#090909" d="M 528.5,418.5 C 530.216,418.629 531.883,418.962 533.5,419.5C 536.447,420.781 538.781,422.781 540.5,425.5C 541.229,430.13 541.563,434.797 541.5,439.5C 540.574,443.358 539.074,447.025 537,450.5C 534.161,453.142 531.327,455.642 528.5,458C 530.546,463.685 531.88,469.518 532.5,475.5C 529.316,477.414 525.649,478.08 521.5,477.5C 520.566,476.432 520.232,475.099 520.5,473.5C 520.59,470.848 519.924,468.515 518.5,466.5C 518.425,463.794 518.092,461.127 517.5,458.5C 514.223,458.216 511.057,458.549 508,459.5C 506.294,465.405 505.127,471.405 504.5,477.5C 500.029,478.089 496.029,477.423 492.5,475.5C 496.523,456.743 500.856,438.076 505.5,419.5C 513.08,418.534 520.747,418.201 528.5,418.5 Z"/></g>
<g><path style="opacity:1" fill="#8c8c8c" d="M 173.5,417.5 C 173.5,419.833 173.5,422.167 173.5,424.5C 171.167,424.5 168.833,424.5 166.5,424.5C 168.265,423.539 170.265,423.205 172.5,423.5C 172.205,421.265 172.539,419.265 173.5,417.5 Z"/></g>
<g><path style="opacity:1" fill="#a2a2a2" d="M 99.5,417.5 C 99.5,419.833 99.5,422.167 99.5,424.5C 97.1667,424.5 94.8333,424.5 92.5,424.5C 92.5,439.833 92.5,455.167 92.5,470.5C 94.8333,470.5 97.1667,470.5 99.5,470.5C 99.5,472.833 99.5,475.167 99.5,477.5C 98.5386,475.735 98.2053,473.735 98.5,471.5C 96.1667,471.5 93.8333,471.5 91.5,471.5C 91.5,455.5 91.5,439.5 91.5,423.5C 93.8333,423.5 96.1667,423.5 98.5,423.5C 98.2053,421.265 98.5386,419.265 99.5,417.5 Z"/></g>
<g><path style="opacity:1" fill="#b6b6b6" d="M 376.5,419.5 C 376.833,419.5 377.167,419.5 377.5,419.5C 377.59,422.152 376.924,424.485 375.5,426.5C 375.674,424.139 376.007,421.806 376.5,419.5 Z"/></g>
<g><path style="opacity:1" fill="#a9a9a9" d="M 406.5,420.5 C 406.833,420.5 407.167,420.5 407.5,420.5C 407.277,424.162 406.277,427.495 404.5,430.5C 404.959,427.123 405.626,423.789 406.5,420.5 Z"/></g>
<g><path style="opacity:1" fill="#6f6f6f" d="M 497.5,425.5 C 497.5,426.5 497.5,427.5 497.5,428.5C 489.5,428.5 481.5,428.5 473.5,428.5C 481.586,428.102 489.586,427.102 497.5,425.5 Z"/></g>
<g><path style="opacity:1" fill="#b6b6b6" d="M 24.5,417.5 C 25.4834,421.298 25.8168,425.298 25.5,429.5C 27.1667,429.5 28.8333,429.5 30.5,429.5C 30.5,427.5 30.5,425.5 30.5,423.5C 32.8333,423.5 35.1667,423.5 37.5,423.5C 37.2053,421.265 37.5386,419.265 38.5,417.5C 38.5,419.833 38.5,422.167 38.5,424.5C 36.1667,424.5 33.8333,424.5 31.5,424.5C 31.5,426.5 31.5,428.5 31.5,430.5C 29.1667,430.5 26.8333,430.5 24.5,430.5C 24.5,426.167 24.5,421.833 24.5,417.5 Z"/></g>
<g><path style="opacity:1" fill="#595959" d="M 336.5,428.5 C 337.209,427.596 338.209,427.263 339.5,427.5C 339.817,431.702 339.483,435.702 338.5,439.5C 339.08,435.351 338.414,431.684 336.5,428.5 Z"/></g>
<g><path style="opacity:1" fill="#efefef" d="M 434.5,441.5 C 430.833,441.5 427.167,441.5 423.5,441.5C 423.993,439.194 424.326,436.861 424.5,434.5C 424.674,432.139 425.007,429.806 425.5,427.5C 429.514,427.334 433.514,427.501 437.5,428C 441.82,433.561 440.82,438.061 434.5,441.5 Z"/></g>
<g><path style="opacity:1" fill="#ededed" d="M 512.5,441.5 C 513.924,439.485 514.59,437.152 514.5,434.5C 514.674,432.139 515.007,429.806 515.5,427.5C 526.866,425.061 531.366,429.394 529,440.5C 525.271,447.613 519.438,450.279 511.5,448.5C 511.198,445.941 511.532,443.607 512.5,441.5 Z"/></g>
<g><path style="opacity:1" fill="#e7e7e7" d="M 336.5,428.5 C 338.414,431.684 339.08,435.351 338.5,439.5C 338.5,445.167 338.5,450.833 338.5,456.5C 333.786,456.827 329.12,456.493 324.5,455.5C 328.507,446.471 332.507,437.471 336.5,428.5 Z"/></g>
<g><path style="opacity:1" fill="#8d8d8d" d="M 540.5,425.5 C 541.973,428.017 542.64,430.85 542.5,434C 542.494,436.033 542.161,437.866 541.5,439.5C 541.563,434.797 541.229,430.13 540.5,425.5 Z"/></g>
<g><path style="opacity:1" fill="#b4b4b4" d="M 329.5,417.5 C 336.648,416.508 343.981,416.175 351.5,416.5C 351.823,423.022 351.49,429.355 350.5,435.5C 350.5,429.5 350.5,423.5 350.5,417.5C 343.5,417.5 336.5,417.5 329.5,417.5 Z"/></g>
<g><path style="opacity:1" fill="#cdcdcd" d="M 132.5,437.5 C 126.355,438.49 120.022,438.823 113.5,438.5C 113.5,444.5 113.5,450.5 113.5,456.5C 120.022,456.177 126.355,456.51 132.5,457.5C 125.833,457.5 119.167,457.5 112.5,457.5C 112.5,450.833 112.5,444.167 112.5,437.5C 119.167,437.5 125.833,437.5 132.5,437.5 Z"/></g>
<g><path style="opacity:1" fill="#959595" d="M 514.5,434.5 C 514.59,437.152 513.924,439.485 512.5,441.5C 512.41,438.848 513.076,436.515 514.5,434.5 Z"/></g>
<g><path style="opacity:1" fill="#8c8c8c" d="M 373.5,435.5 C 373.59,438.152 372.924,440.485 371.5,442.5C 371.41,439.848 372.076,437.515 373.5,435.5 Z"/></g>
<g><path style="opacity:1" fill="#a0a0a0" d="M 424.5,434.5 C 424.326,436.861 423.993,439.194 423.5,441.5C 427.167,441.5 430.833,441.5 434.5,441.5C 430.702,442.483 426.702,442.817 422.5,442.5C 422.294,439.505 422.96,436.838 424.5,434.5 Z"/></g>
<g><path style="opacity:1" fill="#9e9e9e" d="M 471.5,439.5 C 476.927,441.146 482.594,442.146 488.5,442.5C 482.5,442.5 476.5,442.5 470.5,442.5C 470.263,441.209 470.596,440.209 471.5,439.5 Z"/></g>
<g><path style="opacity:1" fill="#919191" d="M 403.5,436.5 C 403.59,439.152 402.924,441.485 401.5,443.5C 401.41,440.848 402.076,438.515 403.5,436.5 Z"/></g>
<g><path style="opacity:1" fill="#7a7a7a" d="M 51.5,437.5 C 51.8333,437.5 52.1667,437.5 52.5,437.5C 52.5,439.833 52.5,442.167 52.5,444.5C 50.1667,444.5 47.8333,444.5 45.5,444.5C 47.2646,443.539 49.2646,443.205 51.5,443.5C 51.5,441.5 51.5,439.5 51.5,437.5 Z"/></g>
<g><path style="opacity:1" fill="#757575" d="M 187.5,437.5 C 187.5,439.833 187.5,442.167 187.5,444.5C 185.167,444.5 182.833,444.5 180.5,444.5C 182.265,443.539 184.265,443.205 186.5,443.5C 186.205,441.265 186.539,439.265 187.5,437.5 Z"/></g>
<g><path style="opacity:1" fill="#9a9a9a" d="M 371.5,444.5 C 371.59,447.152 370.924,449.485 369.5,451.5C 369.41,448.848 370.076,446.515 371.5,444.5 Z"/></g>
<g><path style="opacity:1" fill="#909090" d="M 45.5,450.5 C 47.8333,450.5 50.1667,450.5 52.5,450.5C 52.5,452.833 52.5,455.167 52.5,457.5C 51.5386,455.735 51.2053,453.735 51.5,451.5C 49.2646,451.795 47.2646,451.461 45.5,450.5 Z"/></g>
<g><path style="opacity:1" fill="#888888" d="M 180.5,450.5 C 182.833,450.5 185.167,450.5 187.5,450.5C 187.5,452.833 187.5,455.167 187.5,457.5C 186.539,455.735 186.205,453.735 186.5,451.5C 184.265,451.795 182.265,451.461 180.5,450.5 Z"/></g>
<g><path style="opacity:1" fill="#c5c5c5" d="M 433.5,453.5 C 428.737,453.226 424.07,453.559 419.5,454.5C 421.397,453.195 423.731,452.529 426.5,452.5C 429.025,452.503 431.359,452.837 433.5,453.5 Z"/></g>
<g><path style="opacity:1" fill="#9b9b9b" d="M 487.5,449.5 C 487.5,450.833 487.5,452.167 487.5,453.5C 481.167,453.5 474.833,453.5 468.5,453.5C 474.31,452.51 480.31,452.177 486.5,452.5C 486.263,451.209 486.596,450.209 487.5,449.5 Z"/></g>
<g><path style="opacity:1" fill="#f7f7f7" d="M 433.5,453.5 C 434.117,453.611 434.617,453.944 435,454.5C 436.63,460.234 434.796,464.234 429.5,466.5C 425.029,467.089 421.029,466.423 417.5,464.5C 417.753,460.96 418.419,457.627 419.5,454.5C 424.07,453.559 428.737,453.226 433.5,453.5 Z"/></g>
<g><path style="opacity:1" fill="#929292" d="M 400.5,449.5 C 400.59,452.152 399.924,454.485 398.5,456.5C 398.41,453.848 399.076,451.515 400.5,449.5 Z"/></g>
<g><path style="opacity:1" fill="#bebebe" d="M 166.5,464.5 C 166.5,466.833 166.5,469.167 166.5,471.5C 165.539,469.735 165.205,467.735 165.5,465.5C 163.833,465.5 162.167,465.5 160.5,465.5C 160.817,469.702 160.483,473.702 159.5,477.5C 159.5,473.167 159.5,468.833 159.5,464.5C 161.833,464.5 164.167,464.5 166.5,464.5 Z"/></g>
<g><path style="opacity:1" fill="#585858" d="M 406.5,459.5 C 406.59,462.152 405.924,464.485 404.5,466.5C 404.41,463.848 405.076,461.515 406.5,459.5 Z"/></g>
<g><path style="opacity:1" fill="#9c9c9c" d="M 417.5,464.5 C 421.029,466.423 425.029,467.089 429.5,466.5C 425.366,467.485 421.032,467.818 416.5,467.5C 416.263,466.209 416.596,465.209 417.5,464.5 Z"/></g>
<g><path style="opacity:1" fill="#828282" d="M 465.5,464.5 C 472.76,466.465 480.427,467.132 488.5,466.5C 488.737,467.791 488.404,468.791 487.5,469.5C 480.24,467.535 472.573,466.868 464.5,467.5C 464.263,466.209 464.596,465.209 465.5,464.5 Z"/></g>
<g><path style="opacity:1" fill="#7d7d7d" d="M 285.5,467.5 C 278.918,468.156 272.252,468.49 265.5,468.5C 266.514,467.235 268.014,466.569 270,466.5C 275.143,467.225 280.31,467.559 285.5,467.5 Z"/></g>
<g><path style="opacity:1" fill="#5b5b5b" d="M 166.5,464.5 C 167.461,466.265 167.795,468.265 167.5,470.5C 169.735,470.205 171.735,470.539 173.5,471.5C 171.167,471.5 168.833,471.5 166.5,471.5C 166.5,469.167 166.5,466.833 166.5,464.5 Z"/></g>
<g><path style="opacity:1" fill="#838383" d="M 518.5,466.5 C 519.924,468.515 520.59,470.848 520.5,473.5C 519.076,471.485 518.41,469.152 518.5,466.5 Z"/></g>
<g><path style="opacity:1" fill="#969696" d="M 31.5,470.5 C 33.8333,470.5 36.1667,470.5 38.5,470.5C 38.5,472.833 38.5,475.167 38.5,477.5C 37.5386,475.735 37.2053,473.735 37.5,471.5C 35.2646,471.795 33.2646,471.461 31.5,470.5 Z"/></g>
<g><path style="opacity:1" fill="#252525" d="M 451.5,472.5 C 451.5,473.833 451.5,475.167 451.5,476.5C 462.833,476.5 474.167,476.5 485.5,476.5C 474.012,477.495 462.345,477.828 450.5,477.5C 450.216,475.585 450.549,473.919 451.5,472.5 Z"/></g>
<g><path style="opacity:1" fill="#a6a6a6" d="M 296.5,475.5 C 294.383,477.655 291.716,478.655 288.5,478.5C 290.936,477.129 293.603,476.129 296.5,475.5 Z"/></g>
<g><path style="opacity:1" fill="#b7b7b7" d="M 303.5,475.5 C 307.029,477.423 311.029,478.089 315.5,477.5C 311.366,478.485 307.032,478.818 302.5,478.5C 302.263,477.209 302.596,476.209 303.5,475.5 Z"/></g>
<g><path style="opacity:1" fill="#adadad" d="M 336.5,467.5 C 337.479,470.625 337.813,473.958 337.5,477.5C 341.5,477.5 345.5,477.5 349.5,477.5C 345.366,478.485 341.032,478.818 336.5,478.5C 336.5,474.833 336.5,471.167 336.5,467.5 Z"/></g>
<g><path style="opacity:1" fill="#b2b2b2" d="M 402.5,474.5 C 402.5,475.5 402.5,476.5 402.5,477.5C 411.5,477.5 420.5,477.5 429.5,477.5C 420.348,478.494 411.015,478.827 401.5,478.5C 401.232,476.901 401.566,475.568 402.5,474.5 Z"/></g>
<g><path style="opacity:1" fill="#b7b7b7" d="M 485.5,476.5 C 485.833,476.5 486.167,476.5 486.5,476.5C 480.872,477.829 474.872,478.496 468.5,478.5C 462.324,478.5 456.324,478.166 450.5,477.5C 462.345,477.828 474.012,477.495 485.5,476.5 Z"/></g>
<g><path style="opacity:1" fill="#b7b7b7" d="M 492.5,475.5 C 496.029,477.423 500.029,478.089 504.5,477.5C 500.366,478.485 496.032,478.818 491.5,478.5C 491.263,477.209 491.596,476.209 492.5,475.5 Z"/></g>
<g><path style="opacity:1" fill="#aeaeae" d="M 532.5,475.5 C 533.404,476.209 533.737,477.209 533.5,478.5C 529.298,478.817 525.298,478.483 521.5,477.5C 525.649,478.08 529.316,477.414 532.5,475.5 Z"/></g>
</svg>
