<?xml version="1.0" encoding="UTF-8"?>
<!DOCTYPE svg PUBLIC "-//W3C//DTD SVG 1.1//EN" "http://www.w3.org/Graphics/SVG/1.1/DTD/svg11.dtd">
<svg xmlns="http://www.w3.org/2000/svg" version="1.1" width="2560px" height="768px" style="shape-rendering:geometricPrecision; text-rendering:geometricPrecision; image-rendering:optimizeQuality; fill-rule:evenodd; clip-rule:evenodd" xmlns:xlink="http://www.w3.org/1999/xlink">
<g><path style="opacity:0.986" fill="#ff8000" d="M 2559.5,88.5 C 2559.5,93.8333 2559.5,99.1667 2559.5,104.5C 2555.26,119.933 2548.09,133.933 2538,146.5C 2514.8,174.035 2489.3,199.202 2461.5,222C 2420.34,255.158 2377.51,285.992 2333,314.5C 2332.33,313.833 2332.33,313.167 2333,312.5C 2348.43,293.982 2361.1,273.649 2371,251.5C 2376.43,239.028 2378.76,226.028 2378,212.5C 2374.12,193.279 2362.95,180.112 2344.5,173C 2329.36,167.298 2313.69,163.964 2297.5,163C 2238.98,160.982 2181.64,168.316 2125.5,185C 2113.46,188.904 2101.46,192.571 2089.5,196C 2194.74,128.23 2309.07,82.8967 2432.5,60C 2458.77,55.6692 2485.1,55.0025 2511.5,58C 2523.64,59.2019 2534.98,62.8686 2545.5,69C 2552.36,74.0121 2557.03,80.5121 2559.5,88.5 Z"/></g>
<g><path style="opacity:0.982" fill="#000000" d="M -0.5,434.5 C -0.5,433.833 -0.5,433.167 -0.5,432.5C 84.6707,364.833 170.004,297.333 255.5,230C 266.157,222.839 277.823,218.173 290.5,216C 313.468,214.588 336.468,214.088 359.5,214.5C 359.167,254.839 359.5,295.172 360.5,335.5C 398.684,304.239 436.684,272.739 474.5,241C 486.297,230.765 499.631,223.098 514.5,218C 519.761,216.615 525.094,215.615 530.5,215C 550.497,214.5 570.497,214.333 590.5,214.5C 590.5,287.833 590.5,361.167 590.5,434.5C 559.5,434.5 528.5,434.5 497.5,434.5C 497.667,391.165 497.5,347.832 497,304.5C 445.833,347.667 394.667,390.833 343.5,434C 318.169,434.5 292.836,434.667 267.5,434.5C 267.667,391.499 267.5,348.499 267,305.5C 214.167,348.333 161.333,391.167 108.5,434C 72.1682,434.5 35.8349,434.667 -0.5,434.5 Z"/></g>
<g><path style="opacity:0.982" fill="#000000" d="M 922.5,214.5 C 952.833,214.5 983.167,214.5 1013.5,214.5C 1013.5,270.167 1013.5,325.833 1013.5,381.5C 1048.83,381.5 1084.17,381.5 1119.5,381.5C 1119.5,399.167 1119.5,416.833 1119.5,434.5C 1053.83,434.5 988.167,434.5 922.5,434.5C 922.5,361.167 922.5,287.833 922.5,214.5 Z"/></g>
<g><path style="opacity:0.973" fill="#000000" d="M 713.5,244.5 C 774.5,244.5 835.5,244.5 896.5,244.5C 896.5,262.167 896.5,279.833 896.5,297.5C 840.166,297.333 783.832,297.5 727.5,298C 715.808,301.027 708.974,308.527 707,320.5C 706.333,332.833 706.333,345.167 707,357.5C 708.642,370.472 715.809,378.306 728.5,381C 784.499,381.5 840.499,381.667 896.5,381.5C 896.5,399.167 896.5,416.833 896.5,434.5C 830.155,434.921 763.822,434.421 697.5,433C 677.335,431.963 658.668,426.296 641.5,416C 626.349,403.871 617.849,388.038 616,368.5C 613.528,346.391 614.194,324.391 618,302.5C 623.99,279.841 637.824,264.008 659.5,255C 677.061,248.577 695.061,245.077 713.5,244.5 Z"/></g>
<g><path style="opacity:0.985" fill="#000000" d="M 1154.5,244.5 C 1222.17,244.333 1289.83,244.5 1357.5,245C 1381.67,245.162 1402.84,252.996 1421,268.5C 1430.39,279 1435.73,291.333 1437,305.5C 1437.67,328.833 1437.67,352.167 1437,375.5C 1433.04,407.124 1415.21,425.291 1383.5,430C 1375.56,431.468 1367.56,432.468 1359.5,433C 1309.83,433.667 1260.17,433.667 1210.5,433C 1194.35,432.475 1178.68,429.475 1163.5,424C 1147.99,417.16 1139.16,405.326 1137,388.5C 1131.85,345.31 1151.02,322.476 1194.5,320C 1245.17,319.5 1295.83,319.333 1346.5,319.5C 1349.55,304.381 1343.55,296.215 1328.5,295C 1270.5,294.5 1212.5,294.333 1154.5,294.5C 1154.5,277.833 1154.5,261.167 1154.5,244.5 Z M 1233.5,354.5 C 1271.17,354.5 1308.83,354.5 1346.5,354.5C 1346.67,360.176 1346.5,365.843 1346,371.5C 1345.17,376.681 1342.34,380.181 1337.5,382C 1319.56,383.147 1301.56,383.647 1283.5,383.5C 1266.5,383.333 1249.5,383.167 1232.5,383C 1223.54,380.592 1220.04,374.759 1222,365.5C 1223.79,359.541 1227.62,355.875 1233.5,354.5 Z"/></g>
<g><path style="opacity:0.982" fill="#000000" d="M 1524.5,244.5 C 1562.5,244.5 1600.5,244.5 1638.5,244.5C 1638.5,261.833 1638.5,279.167 1638.5,296.5C 1613.83,296.333 1589.16,296.5 1564.5,297C 1561.03,297.319 1558.19,298.819 1556,301.5C 1554.52,345.44 1554.02,389.44 1554.5,433.5C 1524.17,433.5 1493.83,433.5 1463.5,433.5C 1462.74,387.502 1462.57,341.502 1463,295.5C 1463.94,271.223 1476.11,255.723 1499.5,249C 1507.9,247.047 1516.23,245.547 1524.5,244.5 Z"/></g>
<g><path style="opacity:0.981" fill="#000000" d="M 1731.5,244.5 C 1778.5,244.333 1825.5,244.5 1872.5,245C 1890.78,245.213 1908.45,248.546 1925.5,255C 1942.16,262.794 1950.99,275.961 1952,294.5C 1956.5,330.357 1941,351.19 1905.5,357C 1897.2,358.072 1888.87,358.739 1880.5,359C 1834.17,359.5 1787.83,359.667 1741.5,359.5C 1741.28,365.324 1742.11,370.99 1744,376.5C 1747.26,380.382 1751.43,382.549 1756.5,383C 1816.83,383.5 1877.17,383.667 1937.5,383.5C 1937.5,400.167 1937.5,416.833 1937.5,433.5C 1867.83,433.667 1798.17,433.5 1728.5,433C 1707.93,432.034 1689.27,425.701 1672.5,414C 1660.19,402.549 1653.36,388.383 1652,371.5C 1651.33,351.5 1651.33,331.5 1652,311.5C 1654.01,280.838 1669.51,260.671 1698.5,251C 1709.47,247.972 1720.47,245.805 1731.5,244.5 Z M 1752.5,295.5 C 1787.5,295.333 1822.5,295.5 1857.5,296C 1864.34,297.82 1867.67,302.32 1867.5,309.5C 1867.63,317.191 1863.97,321.691 1856.5,323C 1818.17,323.5 1779.83,323.667 1741.5,323.5C 1741.17,316.759 1741.67,310.092 1743,303.5C 1745.16,299.495 1748.33,296.829 1752.5,295.5 Z"/></g>
<g><path style="opacity:0.985" fill="#000000" d="M 1975.5,244.5 C 2042.17,244.333 2108.83,244.5 2175.5,245C 2197.98,245.295 2219.31,250.295 2239.5,260C 2255.15,270.33 2264.31,284.83 2267,303.5C 2268.44,347.146 2268.94,390.812 2268.5,434.5C 2237.83,434.5 2207.17,434.5 2176.5,434.5C 2176.67,395.832 2176.5,357.165 2176,318.5C 2171.88,303.732 2162.04,296.565 2146.5,297C 2119.84,296.5 2093.17,296.333 2066.5,296.5C 2066.5,342.167 2066.5,387.833 2066.5,433.5C 2036.17,433.5 2005.83,433.5 1975.5,433.5C 1975.5,370.5 1975.5,307.5 1975.5,244.5 Z"/></g>
<g><path style="opacity:0.938" fill="#000000" d="M 657.5,620.5 C 685.038,618.538 700.871,631.205 705,658.5C 707.408,676.614 701.908,691.78 688.5,704C 671.733,714.262 655.4,713.596 639.5,702C 626.868,687.766 622.702,671.266 627,652.5C 630.942,635.728 641.108,625.062 657.5,620.5 Z M 662.5,637.5 C 673.903,637.73 681.07,643.397 684,654.5C 687.186,666.299 685.519,677.299 679,687.5C 664.826,697.334 654.159,694.334 647,678.5C 643.991,666.599 645.325,655.265 651,644.5C 654.263,641.037 658.097,638.704 662.5,637.5 Z"/></g>
<g><path style="opacity:0.921" fill="#000000" d="M 501.5,621.5 C 520.5,621.5 539.5,621.5 558.5,621.5C 558.5,627.5 558.5,633.5 558.5,639.5C 545.833,639.5 533.167,639.5 520.5,639.5C 520.5,645.5 520.5,651.5 520.5,657.5C 531.833,657.5 543.167,657.5 554.5,657.5C 554.5,663.5 554.5,669.5 554.5,675.5C 543.167,675.5 531.833,675.5 520.5,675.5C 520.5,686.833 520.5,698.167 520.5,709.5C 514.167,709.5 507.833,709.5 501.5,709.5C 501.5,680.167 501.5,650.833 501.5,621.5 Z"/></g>
<g><path style="opacity:0.941" fill="#000000" d="M 779.5,621.5 C 793.878,621.109 808.211,621.609 822.5,623C 839.481,628.777 846.314,640.611 843,658.5C 841.096,667.404 835.929,673.571 827.5,677C 834.432,687.367 840.432,698.201 845.5,709.5C 838.492,709.666 831.492,709.5 824.5,709C 818.953,700.076 813.787,690.91 809,681.5C 805.606,680.544 802.106,680.211 798.5,680.5C 798.5,690.167 798.5,699.833 798.5,709.5C 792.167,709.5 785.833,709.5 779.5,709.5C 779.5,680.167 779.5,650.833 779.5,621.5 Z M 798.5,639.5 C 804.925,639.13 811.258,639.63 817.5,641C 824.33,645.161 826.164,650.995 823,658.5C 821.337,660.917 819.171,662.75 816.5,664C 810.509,664.499 804.509,664.666 798.5,664.5C 798.5,656.167 798.5,647.833 798.5,639.5 Z"/></g>
<g><path style="opacity:0.933" fill="#000000" d="M 917.5,621.5 C 924.175,621.334 930.842,621.5 937.5,622C 943.454,633.41 949.787,644.577 956.5,655.5C 962.707,644.252 969.04,633.085 975.5,622C 982.158,621.5 988.825,621.334 995.5,621.5C 995.5,650.833 995.5,680.167 995.5,709.5C 989.167,709.5 982.833,709.5 976.5,709.5C 976.667,691.83 976.5,674.164 976,656.5C 969.989,667.865 963.489,678.865 956.5,689.5C 949.511,678.865 943.011,667.865 937,656.5C 936.5,674.164 936.333,691.83 936.5,709.5C 930.5,709.5 924.5,709.5 918.5,709.5C 918.569,680.161 918.235,650.827 917.5,621.5 Z"/></g>
<g><path style="opacity:0.933" fill="#000000" d="M 1071.5,621.5 C 1077.83,621.5 1084.17,621.5 1090.5,621.5C 1090.1,642.199 1090.6,662.866 1092,683.5C 1096.84,693.558 1104.34,696.058 1114.5,691C 1116.62,689.269 1118.12,687.102 1119,684.5C 1120.44,663.545 1120.94,642.545 1120.5,621.5C 1126.83,621.5 1133.17,621.5 1139.5,621.5C 1139.67,640.503 1139.5,659.503 1139,678.5C 1137.94,699.725 1126.77,710.725 1105.5,711.5C 1084.25,710.754 1073.09,699.754 1072,678.5C 1071.5,659.503 1071.33,640.503 1071.5,621.5 Z"/></g>
<g><path style="opacity:0.941" fill="#000000" d="M 1215.5,621.5 C 1221.83,621.5 1228.17,621.5 1234.5,621.5C 1234.5,645.167 1234.5,668.833 1234.5,692.5C 1246.5,692.5 1258.5,692.5 1270.5,692.5C 1270.5,698.167 1270.5,703.833 1270.5,709.5C 1252.17,709.5 1233.83,709.5 1215.5,709.5C 1215.5,680.167 1215.5,650.833 1215.5,621.5 Z"/></g>
<g><path style="opacity:0.936" fill="#000000" d="M 1368.5,621.5 C 1374.76,621.19 1380.92,621.524 1387,622.5C 1397.47,651.422 1407.64,680.422 1417.5,709.5C 1411.16,709.666 1404.82,709.5 1398.5,709C 1396.2,703.26 1394.2,697.427 1392.5,691.5C 1382.48,691.168 1372.48,691.501 1362.5,692.5C 1360.59,698.055 1358.59,703.555 1356.5,709C 1350.17,709.667 1343.83,709.667 1337.5,709C 1347.93,679.864 1358.27,650.698 1368.5,621.5 Z M 1376.5,649.5 C 1377.5,649.47 1378.16,649.97 1378.5,651C 1381.14,658.427 1383.48,665.927 1385.5,673.5C 1379.82,673.666 1374.16,673.499 1368.5,673C 1371.47,665.26 1374.14,657.426 1376.5,649.5 Z"/></g>
<g><path style="opacity:0.923" fill="#000000" d="M 1591.5,621.5 C 1597.17,621.5 1602.83,621.5 1608.5,621.5C 1608.5,650.833 1608.5,680.167 1608.5,709.5C 1602.17,709.5 1595.83,709.5 1589.5,709.5C 1589.5,686.833 1589.5,664.167 1589.5,641.5C 1585.19,641.954 1581.02,642.954 1577,644.5C 1575.58,639.391 1574.41,634.224 1573.5,629C 1573.91,628.055 1574.57,627.388 1575.5,627C 1581.11,625.632 1586.44,623.799 1591.5,621.5 Z"/></g>
<g><path style="opacity:0.923" fill="#000000" d="M 1772.5,621.5 C 1793.5,621.5 1814.5,621.5 1835.5,621.5C 1835.5,627.5 1835.5,633.5 1835.5,639.5C 1828.17,639.5 1820.83,639.5 1813.5,639.5C 1813.5,663.167 1813.5,686.833 1813.5,710.5C 1807.17,710.5 1800.83,710.5 1794.5,710.5C 1794.5,686.833 1794.5,663.167 1794.5,639.5C 1787.17,639.5 1779.83,639.5 1772.5,639.5C 1772.5,633.5 1772.5,627.5 1772.5,621.5 Z"/></g>
<g><path style="opacity:0.922" fill="#000000" d="M 1905.5,621.5 C 1924.5,621.5 1943.5,621.5 1962.5,621.5C 1962.5,627.5 1962.5,633.5 1962.5,639.5C 1949.83,639.5 1937.17,639.5 1924.5,639.5C 1924.5,645.167 1924.5,650.833 1924.5,656.5C 1935.83,656.5 1947.17,656.5 1958.5,656.5C 1958.5,662.5 1958.5,668.5 1958.5,674.5C 1947.17,674.5 1935.83,674.5 1924.5,674.5C 1924.5,680.5 1924.5,686.5 1924.5,692.5C 1937.5,692.5 1950.5,692.5 1963.5,692.5C 1963.5,698.167 1963.5,703.833 1963.5,709.5C 1944.17,709.5 1924.83,709.5 1905.5,709.5C 1905.5,680.167 1905.5,650.833 1905.5,621.5 Z"/></g>
<g><path style="opacity:0.932" fill="#000000" d="M 2062.5,621.5 C 2068.76,621.19 2074.92,621.524 2081,622.5C 2091.75,651.318 2101.91,680.318 2111.5,709.5C 2105.16,709.666 2098.82,709.5 2092.5,709C 2090.41,703.555 2088.41,698.055 2086.5,692.5C 2076.52,691.501 2066.52,691.168 2056.5,691.5C 2055,697.831 2053,703.997 2050.5,710C 2044.14,710.831 2037.81,710.664 2031.5,709.5C 2041.84,680.143 2052.17,650.81 2062.5,621.5 Z M 2070.5,649.5 C 2071.5,649.47 2072.16,649.97 2072.5,651C 2075.14,658.427 2077.48,665.927 2079.5,673.5C 2074.17,673.5 2068.83,673.5 2063.5,673.5C 2065.83,665.5 2068.17,657.5 2070.5,649.5 Z"/></g>
<g><path style="opacity:0.939" fill="#000000" d="M 2181.5,621.5 C 2188.17,621.334 2194.84,621.5 2201.5,622C 2207.45,633.41 2213.79,644.577 2220.5,655.5C 2227.21,644.577 2233.55,633.41 2239.5,622C 2246.16,621.5 2252.83,621.334 2259.5,621.5C 2259.5,650.833 2259.5,680.167 2259.5,709.5C 2253.17,709.5 2246.83,709.5 2240.5,709.5C 2240.67,692.163 2240.5,674.83 2240,657.5C 2233.74,668.369 2227.24,679.036 2220.5,689.5C 2213.8,678.63 2207.3,667.63 2201,656.5C 2200.5,674.164 2200.33,691.83 2200.5,709.5C 2194.5,709.5 2188.5,709.5 2182.5,709.5C 2182.6,680.16 2182.26,650.827 2181.5,621.5 Z"/></g>
</svg>
