<?xml version="1.0" encoding="UTF-8"?>
<!DOCTYPE svg PUBLIC "-//W3C//DTD SVG 1.1//EN" "http://www.w3.org/Graphics/SVG/1.1/DTD/svg11.dtd">
<svg xmlns="http://www.w3.org/2000/svg" version="1.1" width="3000px" height="919px" style="shape-rendering:geometricPrecision; text-rendering:geometricPrecision; image-rendering:optimizeQuality; fill-rule:evenodd; clip-rule:evenodd" xmlns:xlink="http://www.w3.org/1999/xlink">
<g><path style="opacity:0.987" fill="#fed700" d="M 2343.5,-0.5 C 2358.5,-0.5 2373.5,-0.5 2388.5,-0.5C 2461.63,8.17297 2519.8,42.173 2563,101.5C 2576.62,87.3872 2592.79,83.5539 2611.5,90C 2626.1,95.9422 2638.44,104.942 2648.5,117C 2666.96,120.375 2684.3,126.708 2700.5,136C 2707.17,140.667 2713.83,145.333 2720.5,150C 2732.54,151.459 2743.88,155.126 2754.5,161C 2762.66,166.914 2770.99,172.581 2779.5,178C 2804.06,182.119 2827.06,190.453 2848.5,203C 2861.66,212.416 2875.33,221.083 2889.5,229C 2898.42,233.052 2907.42,233.385 2916.5,230C 2920.97,226.901 2922.47,222.735 2921,217.5C 2919.44,212.72 2917.11,208.387 2914,204.5C 2905.61,195.623 2896.95,186.956 2888,178.5C 2864.61,151.479 2868.11,128.646 2898.5,110C 2910.11,105.096 2922.11,101.43 2934.5,99C 2938.22,95.6153 2942.22,92.6153 2946.5,90C 2959.18,88.6682 2965.68,94.5015 2966,107.5C 2969.15,135.238 2957.65,153.572 2931.5,162.5C 2943.44,173.28 2952.94,185.947 2960,200.5C 2970.56,231.195 2962.06,255.028 2934.5,272C 2921.75,277.915 2908.42,280.082 2894.5,278.5C 2896.2,291.579 2894.54,304.245 2889.5,316.5C 2890.38,317.251 2891.38,317.751 2892.5,318C 2900.7,317.544 2908.37,319.211 2915.5,323C 2918.27,325.383 2920.44,328.217 2922,331.5C 2924.64,338.728 2926.97,346.061 2929,353.5C 2937.05,344.932 2946.22,343.432 2956.5,349C 2961.17,352.333 2965.83,355.667 2970.5,359C 2973.76,362.425 2976.43,366.259 2978.5,370.5C 2983.67,372.179 2987.84,375.179 2991,379.5C 2993.73,385.873 2995.4,392.54 2996,399.5C 2997.21,401.925 2998.38,404.259 2999.5,406.5C 2999.5,410.5 2999.5,414.5 2999.5,418.5C 2998.22,420.868 2996.55,423.035 2994.5,425C 2987.27,428.299 2979.77,430.799 2972,432.5C 2968.99,431.997 2966.16,430.997 2963.5,429.5C 2942.63,435.825 2926.13,430.158 2914,412.5C 2903.08,417.049 2892.58,416.215 2882.5,410C 2865.63,393.615 2845.63,387.782 2822.5,392.5C 2804.47,391.069 2789.64,383.402 2778,369.5C 2771.96,360.044 2768.29,349.711 2767,338.5C 2766.44,337.978 2765.77,337.645 2765,337.5C 2760.04,338.385 2755.04,339.051 2750,339.5C 2727.08,336.409 2704.24,336.909 2681.5,341C 2673.42,341.599 2665.42,341.599 2657.5,341C 2658.26,342.512 2659.26,343.846 2660.5,345C 2672.9,345.06 2685.24,345.727 2697.5,347C 2704.5,351.649 2707,358.149 2705,366.5C 2700.73,376.099 2694.9,384.599 2687.5,392C 2684.95,393.442 2682.28,394.608 2679.5,395.5C 2672.63,414.43 2659.3,422.264 2639.5,419C 2625.98,414.536 2612.31,410.536 2598.5,407C 2593.97,405.461 2590.3,402.795 2587.5,399C 2574.03,400.684 2565.03,395.184 2560.5,382.5C 2498.04,460.727 2417.04,491.893 2317.5,476C 2258.46,463.239 2210.63,433.072 2174,385.5C 2166.08,397.375 2154.91,402.542 2140.5,401C 2123.05,409.873 2104.71,416.04 2085.5,419.5C 2068.99,418.818 2057.49,410.818 2051,395.5C 2044.51,396.863 2038.84,395.197 2034,390.5C 2029.67,383.167 2025.33,375.833 2021,368.5C 2017.73,362.017 2018.06,355.684 2022,349.5C 2023.21,347.951 2024.71,346.785 2026.5,346C 2039.6,341.78 2052.93,340.613 2066.5,342.5C 2069.6,339.741 2073.27,338.241 2077.5,338C 2076.27,336.437 2074.77,335.27 2073,334.5C 2067.52,336.53 2061.85,337.53 2056,337.5C 2042.17,336.467 2028.33,335.467 2014.5,334.5C 2002.47,335.337 1990.47,336.504 1978.5,338C 1973.77,350.808 1966.77,362.142 1957.5,372C 1947.33,377.921 1936.99,383.587 1926.5,389C 1921.48,390.737 1916.32,391.57 1911,391.5C 1901.32,390.298 1891.65,388.965 1882,387.5C 1874.28,389.516 1867.78,393.683 1862.5,400C 1850.98,409.13 1837.98,412.463 1823.5,410C 1820.67,414.167 1817.83,418.333 1815,422.5C 1808.26,429.284 1800.09,432.284 1790.5,431.5C 1783.22,431.344 1776.05,430.344 1769,428.5C 1758.26,430.616 1748.09,428.782 1738.5,423C 1732.01,415.332 1731.85,407.498 1738,399.5C 1737.39,384.364 1744.06,374.031 1758,368.5C 1759,364.836 1760.84,361.669 1763.5,359C 1769.83,354.169 1776.49,349.835 1783.5,346C 1793.96,343.707 1801.8,347.207 1807,356.5C 1811.04,351.089 1814.04,345.089 1816,338.5C 1818.32,331.31 1822.82,326.143 1829.5,323C 1835.47,322.093 1841.47,321.427 1847.5,321C 1851.64,319.764 1855.31,317.764 1858.5,315C 1853.37,303.386 1850.87,291.219 1851,278.5C 1824.94,284.145 1802.61,277.479 1784,258.5C 1770.2,239.475 1767.2,218.808 1775,196.5C 1782.61,182.554 1792.77,170.721 1805.5,161C 1777.92,152.651 1764.42,134.151 1765,105.5C 1766.91,97.6735 1770.41,90.6735 1775.5,84.5C 1776.36,83.4173 1777.36,83.2506 1778.5,84C 1788.1,89.2695 1797.43,94.9361 1806.5,101C 1823.86,103.002 1839.86,108.669 1854.5,118C 1865.38,129.541 1868.54,143.041 1864,158.5C 1859.06,168.445 1852.23,176.945 1843.5,184C 1835.37,190.46 1827.54,197.294 1820,204.5C 1813.59,212.8 1812.92,221.467 1818,230.5C 1823.49,235.773 1829.99,237.606 1837.5,236C 1857.46,229.523 1875.12,219.19 1890.5,205C 1897.01,200.241 1904.01,196.241 1911.5,193C 1925.36,189.608 1939.36,186.941 1953.5,185C 1957.76,183.066 1961.76,180.732 1965.5,178C 1972.25,171.244 1979.59,165.244 1987.5,160C 2000.26,153.06 2013.93,149.727 2028.5,150C 2037.87,138.964 2049.2,130.631 2062.5,125C 2074.24,121.197 2085.91,117.197 2097.5,113C 2108.17,107 2118.83,101 2129.5,95C 2144.12,90.2141 2158.62,90.3808 2173,95.5C 2216.15,39.5779 2272.99,7.57794 2343.5,-0.5 Z"/></g>
<g><path style="opacity:0.987" fill="#e1071e" d="M 687.5,61.5 C 711.167,61.5 734.833,61.5 758.5,61.5C 758.5,184.833 758.5,308.167 758.5,431.5C 734.833,431.5 711.167,431.5 687.5,431.5C 687.666,423.826 687.5,416.159 687,408.5C 660.377,434.145 628.877,442.978 592.5,435C 554.463,423.297 529.297,398.464 517,360.5C 503.291,310.992 514.458,268.159 550.5,232C 589.66,201.321 630.66,198.654 673.5,224C 678.279,227.478 682.779,231.311 687,235.5C 687.5,177.501 687.667,119.501 687.5,61.5 Z M 635.5,264.5 C 668.387,268.891 686.054,287.724 688.5,321C 687.322,344.713 676.322,362.046 655.5,373C 624.881,381.606 603.047,371.439 590,342.5C 581.077,314.61 587.91,291.443 610.5,273C 618.322,268.227 626.655,265.393 635.5,264.5 Z"/></g>
<g><path style="opacity:0.995" fill="#e1071e" d="M 1399.5,61.5 C 1423.17,61.5 1446.83,61.5 1470.5,61.5C 1470.5,184.833 1470.5,308.167 1470.5,431.5C 1446.83,431.5 1423.17,431.5 1399.5,431.5C 1399.5,308.167 1399.5,184.833 1399.5,61.5 Z"/></g>
<g><path style="opacity:0.992" fill="#e1071e" d="M 1518.5,61.5 C 1542.17,61.5 1565.83,61.5 1589.5,61.5C 1589.5,184.833 1589.5,308.167 1589.5,431.5C 1565.83,431.5 1542.17,431.5 1518.5,431.5C 1518.5,308.167 1518.5,184.833 1518.5,61.5 Z"/></g>
<g><path style="opacity:0.992" fill="#e1071e" d="M -0.5,78.5 C 45.8345,78.3333 92.1679,78.5 138.5,79C 182.322,84.4992 212.488,107.666 229,148.5C 243.492,201.037 228.326,242.537 183.5,273C 174.238,277.976 164.571,281.976 154.5,285C 189.079,333.491 223.413,382.158 257.5,431C 227.262,431.828 197.095,431.662 167,430.5C 142.667,392.833 118.333,355.167 94,317.5C 93.5,288.835 93.3334,260.169 93.5,231.5C 113.757,234.417 131.757,229.584 147.5,217C 163.854,197.5 164.687,177.333 150,156.5C 142.154,148.328 132.654,143.161 121.5,141C 105.837,140.5 90.1702,140.333 74.5,140.5C 74.5,237.5 74.5,334.5 74.5,431.5C 49.5,431.5 24.5,431.5 -0.5,431.5C -0.5,313.833 -0.5,196.167 -0.5,78.5 Z"/></g>
<g><path style="opacity:0.988" fill="#e1071e" d="M 853.5,78.5 C 902.187,78.0544 950.854,78.5544 999.5,80C 1053.79,86.3139 1082.79,116.647 1086.5,171C 1086.67,191.146 1080.84,209.312 1069,225.5C 1064.98,230.021 1061.14,234.688 1057.5,239.5C 1111.15,265.876 1128.98,307.876 1111,365.5C 1093.56,403.484 1064.06,425.317 1022.5,431C 966.168,431.5 909.834,431.667 853.5,431.5C 853.5,313.833 853.5,196.167 853.5,78.5 Z M 929.5,140.5 C 947.503,140.333 965.503,140.5 983.5,141C 1001.69,147.192 1011.69,159.859 1013.5,179C 1011.55,197.277 1001.88,209.277 984.5,215C 973.505,215.5 962.505,215.667 951.5,215.5C 951.5,237.167 951.5,258.833 951.5,280.5C 969.17,280.333 986.836,280.5 1004.5,281C 1030.39,288.911 1041.89,306.411 1039,333.5C 1035.12,351.051 1024.62,362.551 1007.5,368C 981.543,369.454 955.543,369.954 929.5,369.5C 929.5,293.167 929.5,216.833 929.5,140.5 Z"/></g>
<g><path style="opacity:1" fill="#e20b1e" d="M 1779.5,99.5 C 1781.31,99.4914 1782.98,99.9914 1784.5,101C 1789.66,105.414 1795.32,109.081 1801.5,112C 1813,114.375 1824.33,117.375 1835.5,121C 1853.55,128.806 1858.38,141.639 1850,159.5C 1846.2,164.301 1842.03,168.801 1837.5,173C 1828.04,180.796 1818.87,188.962 1810,197.5C 1801.63,209.007 1800.3,221.34 1806,234.5C 1816.59,248.023 1830.09,251.856 1846.5,246C 1858.19,241.655 1869.19,235.989 1879.5,229C 1890.74,219.101 1903.07,210.767 1916.5,204C 1931.19,201.109 1945.86,198.109 1960.5,195C 1970.68,189.154 1980.02,182.154 1988.5,174C 2001.99,164.631 2016.99,160.297 2033.5,161C 2041.13,155.04 2048.46,148.707 2055.5,142C 2061.05,139.06 2066.71,136.394 2072.5,134C 2094.02,128.837 2113.68,119.837 2131.5,107C 2152.32,99.9563 2171.32,103.29 2188.5,117C 2208.26,132.752 2227.42,149.252 2246,166.5C 2259.43,182.599 2272.1,199.265 2284,216.5C 2285.86,220.419 2287.53,224.419 2289,228.5C 2292.23,258.083 2299.23,286.749 2310,314.5C 2312.91,317.483 2315.91,320.483 2319,323.5C 2325.06,334.456 2332.23,344.622 2340.5,354C 2345.07,357.112 2349.74,359.945 2354.5,362.5C 2353.96,363.748 2353.29,364.915 2352.5,366C 2337.92,367.299 2326.09,362.132 2317,350.5C 2313.4,343.9 2309.4,337.566 2305,331.5C 2301.82,327.945 2297.99,325.778 2293.5,325C 2301.29,335.079 2307.12,346.246 2311,358.5C 2318.05,366.537 2326.55,372.704 2336.5,377C 2338.6,378.733 2338.93,380.733 2337.5,383C 2318.57,384.699 2302.9,378.365 2290.5,364C 2288.44,362.304 2286.11,361.137 2283.5,360.5C 2279.11,362.716 2275.11,365.549 2271.5,369C 2268.62,370.608 2265.62,371.941 2262.5,373C 2253.84,372.823 2245.17,372.823 2236.5,373C 2226.58,376.197 2216.58,379.197 2206.5,382C 2201.38,382.888 2196.38,382.555 2191.5,381C 2189.95,379.786 2188.78,378.286 2188,376.5C 2187.33,372.135 2186.49,367.802 2185.5,363.5C 2186.97,358.373 2189.31,353.706 2192.5,349.5C 2192.17,348.833 2191.83,348.167 2191.5,347.5C 2185.12,351.333 2182.62,349.666 2184,342.5C 2187.84,335.647 2192.84,329.647 2199,324.5C 2200.83,317.165 2204,310.499 2208.5,304.5C 2207.5,304.167 2206.5,303.833 2205.5,303.5C 2194.36,305.144 2183.36,307.311 2172.5,310C 2168.5,310.667 2164.5,310.667 2160.5,310C 2158.68,308.534 2158.18,306.701 2159,304.5C 2167.72,291.968 2170.55,278.301 2167.5,263.5C 2166.91,263.709 2166.41,264.043 2166,264.5C 2164.03,277.078 2159.7,288.744 2153,299.5C 2151.83,300.667 2150.67,301.833 2149.5,303C 2143.2,304.824 2136.87,306.49 2130.5,308C 2127.12,311.824 2126.95,315.991 2130,320.5C 2136.17,330.175 2141.84,340.175 2147,350.5C 2147.34,358.773 2146.51,366.94 2144.5,375C 2144.83,375.5 2145.17,376 2145.5,376.5C 2148.88,373.286 2151.71,369.619 2154,365.5C 2157.66,360.523 2158.33,355.189 2156,349.5C 2150.23,338.284 2144.73,326.951 2139.5,315.5C 2139.82,314.353 2140.48,313.519 2141.5,313C 2147.39,311.745 2152.73,312.911 2157.5,316.5C 2161.36,327.222 2166.53,337.222 2173,346.5C 2174.88,351.923 2174.55,357.256 2172,362.5C 2168.19,371.313 2163.02,379.146 2156.5,386C 2149.94,387.651 2143.28,388.651 2136.5,389C 2121.37,396.377 2105.7,402.377 2089.5,407C 2082.06,408.408 2075.39,406.741 2069.5,402C 2065.11,396.611 2061.11,390.944 2057.5,385C 2052.7,383.92 2047.86,383.087 2043,382.5C 2038.75,375.663 2034.75,368.663 2031,361.5C 2030.33,359.833 2030.33,358.167 2031,356.5C 2035.2,354.324 2039.7,353.158 2044.5,353C 2049.83,352.333 2055.17,352.333 2060.5,353C 2063.56,354.061 2066.06,355.894 2068,358.5C 2071.93,364.702 2075.6,371.035 2079,377.5C 2082,381.248 2085.83,383.248 2090.5,383.5C 2101.03,382.496 2110.19,378.496 2118,371.5C 2120.45,364.15 2119.11,357.483 2114,351.5C 2111.17,348.667 2108.33,345.833 2105.5,343C 2094.58,337.755 2085.08,330.588 2077,321.5C 2074.51,315.648 2071.84,309.981 2069,304.5C 2067.27,305.466 2066.43,306.966 2066.5,309C 2067.99,313.78 2068.82,318.613 2069,323.5C 2067.42,325.041 2065.59,326.208 2063.5,327C 2056.83,327.667 2050.17,327.667 2043.5,327C 2032.29,324.523 2020.95,323.023 2009.5,322.5C 1999.64,323.171 1989.81,324.171 1980,325.5C 1967.53,326.026 1961.19,320.026 1961,307.5C 1960.11,297.59 1960.61,287.757 1962.5,278C 1962.61,276.338 1961.95,275.171 1960.5,274.5C 1958.93,275.714 1958.1,277.381 1958,279.5C 1955.98,292.623 1953.31,305.623 1950,318.5C 1942.64,337.193 1929.14,348.693 1909.5,353C 1896.21,354.723 1882.87,356.057 1869.5,357C 1853.5,359.08 1840.34,366.247 1830,378.5C 1829.03,380.274 1828.2,382.107 1827.5,384C 1827.85,385.257 1828.52,385.591 1829.5,385C 1841.87,372.312 1856.87,364.646 1874.5,362C 1887.52,361.703 1900.52,361.036 1913.5,360C 1926.83,357.653 1938,351.486 1947,341.5C 1951.06,336.283 1954.89,330.949 1958.5,325.5C 1961.62,327.123 1964.29,329.29 1966.5,332C 1963.06,343.891 1957.06,354.225 1948.5,363C 1938.61,369.114 1928.27,374.448 1917.5,379C 1912.83,379.667 1908.17,379.667 1903.5,379C 1896.37,377.561 1889.2,376.394 1882,375.5C 1877.34,375.457 1872.84,376.291 1868.5,378C 1863.31,382.097 1858.31,386.43 1853.5,391C 1849.11,393.861 1844.45,396.194 1839.5,398C 1832.09,398.437 1824.76,398.103 1817.5,397C 1813.05,402.063 1809.22,407.563 1806,413.5C 1802.7,416.567 1798.87,418.733 1794.5,420C 1786.46,419.762 1778.46,418.928 1770.5,417.5C 1770.89,408.51 1773.39,400.176 1778,392.5C 1781.23,390.477 1784.73,388.977 1788.5,388C 1792.17,383.667 1795.83,379.333 1799.5,375C 1806.85,371.323 1813.35,366.489 1819,360.5C 1821.94,354.282 1824.61,347.949 1827,341.5C 1827.88,338.898 1829.38,336.731 1831.5,335C 1846.17,335.167 1859.17,330.667 1870.5,321.5C 1871.05,320.228 1871.38,318.894 1871.5,317.5C 1869.29,310.072 1866.79,302.738 1864,295.5C 1863.32,285.263 1862.49,275.097 1861.5,265C 1852.73,266.284 1843.9,267.45 1835,268.5C 1813.89,268.349 1797.89,259.349 1787,241.5C 1779.55,223.485 1781.21,206.485 1792,190.5C 1803.96,177.867 1816.46,166.034 1829.5,155C 1828.85,151.68 1826.85,149.68 1823.5,149C 1799.97,150.989 1784.47,140.823 1777,118.5C 1775.83,111.807 1776.66,105.474 1779.5,99.5 Z"/></g>
<g><path style="opacity:1" fill="#e20b1e" d="M 2585.5,99.5 C 2593.68,98.8975 2601.68,99.7308 2609.5,102C 2615.83,105.165 2621.83,108.831 2627.5,113C 2632.55,118.054 2637.55,123.054 2642.5,128C 2659.31,130.938 2675.31,136.272 2690.5,144C 2699.23,150.392 2708.23,156.392 2717.5,162C 2728.18,162.782 2738.18,165.782 2747.5,171C 2756.65,178.079 2766.32,184.413 2776.5,190C 2786.04,192.841 2795.7,195.174 2805.5,197C 2819.4,201.118 2832.4,207.118 2844.5,215C 2859.46,226.651 2875.8,235.984 2893.5,243C 2905.56,246.413 2916.56,244.413 2926.5,237C 2934.39,228.025 2935.55,218.192 2930,207.5C 2927.92,203.664 2925.58,199.997 2923,196.5C 2915,187.167 2906.33,178.5 2897,170.5C 2878.63,151.6 2880.46,135.1 2902.5,121C 2907.26,118.413 2912.26,116.413 2917.5,115C 2925.27,113.38 2932.94,111.38 2940.5,109C 2943.68,106.908 2946.68,104.575 2949.5,102C 2950.64,101.251 2951.64,101.417 2952.5,102.5C 2953.63,110.117 2953.8,117.784 2953,125.5C 2950.74,134.184 2945.91,141.017 2938.5,146C 2929.28,149.305 2919.95,152.305 2910.5,155C 2909.45,156.388 2909.28,157.888 2910,159.5C 2922.41,169.906 2933.41,181.573 2943,194.5C 2959.87,222.566 2954.37,245.066 2926.5,262C 2912.16,267.409 2897.66,267.909 2883,263.5C 2881.89,263.585 2880.89,263.919 2880,264.5C 2881.34,272.236 2882.51,280.07 2883.5,288C 2882.63,298.188 2880.3,308.021 2876.5,317.5C 2877.95,325.087 2882.62,329.253 2890.5,330C 2895.5,330.333 2900.5,330.667 2905.5,331C 2907.29,331.785 2908.79,332.951 2910,334.5C 2913.46,343.332 2916.46,352.332 2919,361.5C 2927.9,369.732 2936.07,378.566 2943.5,388C 2946.92,390.595 2950.75,392.095 2955,392.5C 2958.7,400.439 2960.87,408.772 2961.5,417.5C 2954.19,418.469 2946.86,418.636 2939.5,418C 2937.75,417.529 2936.09,416.862 2934.5,416C 2928.74,410.583 2923.41,404.916 2918.5,399C 2913.72,397.97 2909.39,398.97 2905.5,402C 2901.83,402.667 2898.17,402.667 2894.5,402C 2887.83,397.333 2881.17,392.667 2874.5,388C 2866.07,383.31 2857.07,380.31 2847.5,379C 2837.43,378.449 2827.43,378.783 2817.5,380C 2794.85,374.688 2782.02,360.521 2779,337.5C 2778.7,334.294 2778.2,331.128 2777.5,328C 2778.63,324.482 2780.8,323.315 2784,324.5C 2797.39,357.614 2821.56,370.281 2856.5,362.5C 2874.94,363.721 2890.61,370.888 2903.5,384C 2904.48,384.591 2905.15,384.257 2905.5,383C 2895.63,369.392 2882.3,361.392 2865.5,359C 2854.16,358.747 2842.83,358.747 2831.5,359C 2812.81,354.645 2799.97,343.478 2793,325.5C 2791.36,321.608 2790.03,317.608 2789,313.5C 2787.49,302.731 2785.49,292.064 2783,281.5C 2782.09,277.427 2780.43,273.761 2778,270.5C 2777.31,271.025 2776.81,271.692 2776.5,272.5C 2780.07,286.149 2780.24,299.816 2777,313.5C 2773.03,320.746 2766.87,324.913 2758.5,326C 2741.84,325.778 2725.17,325.778 2708.5,326C 2693.05,329.798 2677.38,331.631 2661.5,331.5C 2663.67,325.337 2665,319.004 2665.5,312.5C 2663.86,312.286 2662.36,312.62 2661,313.5C 2655.77,328.401 2645.6,338.234 2630.5,343C 2624.63,348.531 2619.13,354.365 2614,360.5C 2612.91,366.111 2614.74,370.611 2619.5,374C 2628.29,379.204 2637.63,381.204 2647.5,380C 2651.87,374.783 2655.37,368.95 2658,362.5C 2659.66,360.083 2661.83,358.25 2664.5,357C 2697.01,350.117 2702.01,358.45 2679.5,382C 2676.1,382.1 2672.93,382.934 2670,384.5C 2668.75,392.27 2665.25,398.77 2659.5,404C 2654.61,407.102 2649.27,408.102 2643.5,407C 2629.97,402.534 2616.3,398.534 2602.5,395C 2598.78,391.615 2594.78,388.615 2590.5,386C 2586.17,386.093 2581.84,386.093 2577.5,386C 2575.38,384.269 2573.88,382.102 2573,379.5C 2568.92,369.518 2566.92,359.185 2567,348.5C 2572.65,337.865 2578.32,327.198 2584,316.5C 2585.44,314.552 2587.27,313.219 2589.5,312.5C 2593.97,313.231 2597.64,315.231 2600.5,318.5C 2594.42,328.331 2588.58,338.331 2583,348.5C 2582.44,354.927 2583.77,360.927 2587,366.5C 2587.05,360.649 2588.05,354.983 2590,349.5C 2595.75,340.328 2601.75,331.328 2608,322.5C 2610,319.167 2610,315.833 2608,312.5C 2604.05,308.555 2599.55,305.389 2594.5,303C 2586.37,295.57 2581.2,286.403 2579,275.5C 2577.51,266.219 2576.51,256.886 2576,247.5C 2574.33,243.5 2572.67,243.5 2571,247.5C 2568.76,267.561 2572.43,286.561 2582,304.5C 2582.72,306.112 2582.55,307.612 2581.5,309C 2570.83,310.758 2560.17,310.425 2549.5,308C 2541.01,303.836 2533.34,298.502 2526.5,292C 2525.55,291.517 2524.55,291.351 2523.5,291.5C 2523.69,293.564 2524.19,295.564 2525,297.5C 2529.62,303.792 2534.62,309.792 2540,315.5C 2544.31,325.453 2549.64,334.786 2556,343.5C 2559.56,352.775 2556.4,356.442 2546.5,354.5C 2547.44,359.805 2547.61,365.139 2547,370.5C 2544.17,374.667 2540.67,378.167 2536.5,381C 2534.83,381.667 2533.17,381.667 2531.5,381C 2521.31,376.936 2510.97,373.269 2500.5,370C 2491.16,369.705 2481.82,369.705 2472.5,370C 2467.32,366.152 2462.16,362.319 2457,358.5C 2448.42,366.416 2439.25,373.583 2429.5,380C 2422.61,383.855 2415.28,385.188 2407.5,384C 2405.99,383.163 2405.49,381.996 2406,380.5C 2413.71,374.461 2420.37,367.461 2426,359.5C 2427.03,356.05 2428.36,352.717 2430,349.5C 2433.33,344.167 2436.67,338.833 2440,333.5C 2440.75,332.365 2440.58,331.365 2439.5,330.5C 2437.18,332.316 2435.02,334.316 2433,336.5C 2426.65,347.186 2419.15,357.02 2410.5,366C 2403.37,370.203 2395.7,371.537 2387.5,370C 2386.43,369.261 2385.76,368.261 2385.5,367C 2391.94,361.237 2398.44,355.403 2405,349.5C 2416.41,335.677 2424.41,320.011 2429,302.5C 2435.12,276.151 2442.45,250.151 2451,224.5C 2458.53,204.949 2470.36,188.449 2486.5,175C 2491.17,171 2495.83,167 2500.5,163C 2529.02,141.97 2557.35,120.803 2585.5,99.5 Z"/></g>
<g><path style="opacity:1" fill="#fed200" d="M 2586.5,151.5 C 2593.25,151.992 2595.08,155.325 2592,161.5C 2578.44,172.048 2567.44,184.714 2559,199.5C 2557.43,196.367 2557.1,193.033 2558,189.5C 2562.81,173.206 2572.31,160.539 2586.5,151.5 Z"/></g>
<g><path style="opacity:1" fill="#fed300" d="M 2157.5,169.5 C 2159.53,169.338 2161.53,169.505 2163.5,170C 2172.8,179.69 2175.97,191.19 2173,204.5C 2172.73,207.362 2171.9,210.028 2170.5,212.5C 2168.32,203.78 2165.82,195.113 2163,186.5C 2160.12,182.566 2157.62,178.399 2155.5,174C 2156.04,172.415 2156.71,170.915 2157.5,169.5 Z"/></g>
<g><path style="opacity:0.985" fill="#e1071e" d="M 352.5,203.5 C 390.642,200.045 423.475,211.378 451,237.5C 468.771,258.463 478.104,282.796 479,310.5C 479.632,319.186 479.466,327.852 478.5,336.5C 426.833,336.5 375.167,336.5 323.5,336.5C 324.444,358.612 335.444,373.112 356.5,380C 381.982,385.586 401.648,377.42 415.5,355.5C 434.652,364.243 453.652,373.243 472.5,382.5C 451.872,416.503 421.539,435.336 381.5,439C 322.177,443.267 280.344,418.434 256,364.5C 239.108,312.231 250.608,267.398 290.5,230C 308.762,215.365 329.428,206.531 352.5,203.5 Z M 360.5,253.5 C 388.654,253.657 404.654,267.657 408.5,295.5C 380.167,295.5 351.833,295.5 323.5,295.5C 325.923,272.745 338.257,258.745 360.5,253.5 Z"/></g>
<g><path style="opacity:0.989" fill="#e1071e" d="M 1140.5,212.5 C 1164.17,212.5 1187.83,212.5 1211.5,212.5C 1211.03,257.872 1211.53,303.206 1213,348.5C 1221.83,371.3 1238.33,380.466 1262.5,376C 1276.33,371.5 1285.5,362.333 1290,348.5C 1291.47,303.206 1291.97,257.872 1291.5,212.5C 1314.83,212.5 1338.17,212.5 1361.5,212.5C 1361.67,262.501 1361.5,312.501 1361,362.5C 1358.44,379.625 1351.1,394.292 1339,406.5C 1305.36,435.621 1266.52,445.788 1222.5,437C 1197.56,431.785 1176.4,419.952 1159,401.5C 1148.11,388.515 1142.11,373.515 1141,356.5C 1140.5,308.501 1140.33,260.501 1140.5,212.5 Z"/></g>
<g><path style="opacity:1" fill="#fed400" d="M 2252.5,252.5 C 2254.86,252.337 2257.19,252.503 2259.5,253C 2265.7,260.566 2271.53,268.399 2277,276.5C 2280.49,284.137 2280.32,291.637 2276.5,299C 2275.21,299.49 2273.87,299.657 2272.5,299.5C 2273.25,288.509 2269.25,279.675 2260.5,273C 2258.79,271.249 2256.79,270.582 2254.5,271C 2250.83,273.333 2247.83,276.333 2245.5,280C 2244.55,280.617 2243.72,280.451 2243,279.5C 2242.33,276.167 2242.33,272.833 2243,269.5C 2245.53,263.333 2248.7,257.666 2252.5,252.5 Z"/></g>
<g><path style="opacity:1" fill="#fed300" d="M 2490.5,256.5 C 2493.62,256.642 2496.12,257.976 2498,260.5C 2501.4,265.577 2504.4,270.911 2507,276.5C 2507.83,281 2506,282.833 2501.5,282C 2499.5,279.667 2497.5,277.333 2495.5,275C 2492.58,274.448 2489.91,275.115 2487.5,277C 2481.28,281.888 2475.78,287.388 2471,293.5C 2470,297.167 2469,300.833 2468,304.5C 2466.89,305.711 2465.72,305.711 2464.5,304.5C 2462.92,297.973 2463.42,291.64 2466,285.5C 2474.38,275.961 2482.54,266.294 2490.5,256.5 Z"/></g>
<g><path style="opacity:1" fill="#fed400" d="M 2250.5,336.5 C 2252.72,336.178 2254.56,336.845 2256,338.5C 2256.74,342.261 2256.4,345.928 2255,349.5C 2253.51,351.004 2251.68,351.837 2249.5,352C 2245.83,352.667 2242.17,352.667 2238.5,352C 2237.54,349.353 2238.04,346.853 2240,344.5C 2242.86,340.789 2246.36,338.123 2250.5,336.5 Z"/></g>
<g><path style="opacity:1" fill="#fed101" d="M 2487.5,337.5 C 2498.15,337.638 2502.82,342.805 2501.5,353C 2492.2,355.498 2487.2,351.831 2486.5,342C 2486.61,340.408 2486.94,338.908 2487.5,337.5 Z"/></g>
<g><path style="opacity:1" fill="#e3181e" d="M 2092.5,348.5 C 2096.6,347.769 2100.1,348.769 2103,351.5C 2104.48,357.114 2106.65,362.447 2109.5,367.5C 2105.15,372.844 2099.48,375.844 2092.5,376.5C 2090.09,376.594 2088.26,375.594 2087,373.5C 2085.06,369.952 2083.39,366.286 2082,362.5C 2079.49,359.322 2076.99,356.156 2074.5,353C 2074.76,351.739 2075.43,350.739 2076.5,350C 2082.02,349.827 2087.35,349.327 2092.5,348.5 Z"/></g>
<g><path style="opacity:1" fill="#e3171e" d="M 2628.5,352.5 C 2636.09,352.186 2643.59,352.519 2651,353.5C 2651.02,361.106 2649.19,368.272 2645.5,375C 2625.52,378.197 2619.86,370.697 2628.5,352.5 Z"/></g>
<g><path style="opacity:1" fill="#e3181e" d="M 1787.5,356.5 C 1793.02,357.184 1795.86,360.184 1796,365.5C 1792.56,372.906 1787.39,378.74 1780.5,383C 1779.17,383.667 1777.83,383.667 1776.5,383C 1771.41,380.622 1768.91,376.788 1769,371.5C 1769.78,369.714 1770.95,368.214 1772.5,367C 1777.57,363.478 1782.57,359.978 1787.5,356.5 Z"/></g>
<g><path style="opacity:1" fill="#e2141e" d="M 2943.5,357.5 C 2952.36,360.154 2959.86,365.154 2966,372.5C 2964.41,381.07 2959.24,384.57 2950.5,383C 2946.3,379.133 2942.47,374.967 2939,370.5C 2937.41,368.35 2936.74,366.017 2937,363.5C 2939.06,361.266 2941.23,359.266 2943.5,357.5 Z"/></g>
<g><path style="opacity:1" fill="#e2121e" d="M 1757.5,381.5 C 1763.28,382.421 1767.62,385.587 1770.5,391C 1767.65,399.727 1764.65,408.394 1761.5,417C 1756.18,417.399 1751.18,416.232 1746.5,413.5C 1746.17,412.667 1745.83,411.833 1745.5,411C 1747.11,407.601 1748.61,404.101 1750,400.5C 1750.33,396.5 1750.67,392.5 1751,388.5C 1752.73,385.67 1754.89,383.337 1757.5,381.5 Z"/></g>
<g><path style="opacity:1" fill="#e2131e" d="M 2970.5,382.5 C 2974.8,381.796 2978.3,383.13 2981,386.5C 2982.57,394.997 2984.74,403.331 2987.5,411.5C 2987.43,412.772 2987.1,413.938 2986.5,415C 2981.69,416.577 2976.86,418.077 2972,419.5C 2970.52,418.556 2969.52,417.223 2969,415.5C 2967.56,407.566 2965.72,399.732 2963.5,392C 2963.76,387.244 2966.1,384.078 2970.5,382.5 Z"/></g>
<g><path style="opacity:0.978" fill="#929292" d="M 568.5,584.5 C 568.5,594.833 568.5,605.167 568.5,615.5C 535.503,614.915 502.503,614.582 469.5,614.5C 469.5,604.833 469.5,595.167 469.5,585.5C 502.513,585.767 535.513,585.433 568.5,584.5 Z"/></g>
<g><path style="opacity:0.975" fill="#8c8c8c" d="M 568.5,584.5 C 601.5,584.5 634.5,584.5 667.5,584.5C 667.5,594.833 667.5,605.167 667.5,615.5C 634.5,615.5 601.5,615.5 568.5,615.5C 568.5,605.167 568.5,594.833 568.5,584.5 Z"/></g>
<g><path style="opacity:0.971" fill="#868686" d="M 667.5,584.5 C 700.5,584.5 733.5,584.5 766.5,584.5C 766.5,595.167 766.5,605.833 766.5,616.5C 733.487,616.767 700.487,616.433 667.5,615.5C 667.5,605.167 667.5,594.833 667.5,584.5 Z"/></g>
<g><path style="opacity:0.967" fill="#80807f" d="M 766.5,584.5 C 801.833,584.5 837.167,584.5 872.5,584.5C 872.5,595.167 872.5,605.833 872.5,616.5C 837.167,616.5 801.833,616.5 766.5,616.5C 766.5,605.833 766.5,595.167 766.5,584.5 Z"/></g>
<g><path style="opacity:0.969" fill="#797979" d="M 872.5,584.5 C 908.5,584.5 944.5,584.5 980.5,584.5C 980.5,595.167 980.5,605.833 980.5,616.5C 944.5,616.5 908.5,616.5 872.5,616.5C 872.5,605.833 872.5,595.167 872.5,584.5 Z"/></g>
<g><path style="opacity:0.969" fill="#737372" d="M 980.5,584.5 C 1013.5,584.5 1046.5,584.5 1079.5,584.5C 1079.5,595.167 1079.5,605.833 1079.5,616.5C 1046.5,616.5 1013.5,616.5 980.5,616.5C 980.5,605.833 980.5,595.167 980.5,584.5 Z"/></g>
<g><path style="opacity:0.969" fill="#6d6d6c" d="M 1079.5,584.5 C 1112.5,584.5 1145.5,584.5 1178.5,584.5C 1178.5,595.167 1178.5,605.833 1178.5,616.5C 1145.5,616.5 1112.5,616.5 1079.5,616.5C 1079.5,605.833 1079.5,595.167 1079.5,584.5 Z"/></g>
<g><path style="opacity:0.969" fill="#676766" d="M 1178.5,584.5 C 1212.17,584.5 1245.83,584.5 1279.5,584.5C 1279.5,595.167 1279.5,605.833 1279.5,616.5C 1245.83,616.5 1212.17,616.5 1178.5,616.5C 1178.5,605.833 1178.5,595.167 1178.5,584.5 Z"/></g>
<g><path style="opacity:0.969" fill="#616160" d="M 1279.5,584.5 C 1312.17,584.5 1344.83,584.5 1377.5,584.5C 1377.5,595.167 1377.5,605.833 1377.5,616.5C 1344.83,616.5 1312.17,616.5 1279.5,616.5C 1279.5,605.833 1279.5,595.167 1279.5,584.5 Z"/></g>
<g><path style="opacity:0.969" fill="#5b5b5a" d="M 1377.5,584.5 C 1463.17,584.5 1548.83,584.5 1634.5,584.5C 1634.5,595.167 1634.5,605.833 1634.5,616.5C 1548.83,616.5 1463.17,616.5 1377.5,616.5C 1377.5,605.833 1377.5,595.167 1377.5,584.5 Z"/></g>
<g><path style="opacity:0.969" fill="#616160" d="M 1634.5,584.5 C 1670.5,584.5 1706.5,584.5 1742.5,584.5C 1742.5,595.167 1742.5,605.833 1742.5,616.5C 1706.5,616.5 1670.5,616.5 1634.5,616.5C 1634.5,605.833 1634.5,595.167 1634.5,584.5 Z"/></g>
<g><path style="opacity:0.969" fill="#676766" d="M 1742.5,584.5 C 1778.83,584.5 1815.17,584.5 1851.5,584.5C 1851.5,595.167 1851.5,605.833 1851.5,616.5C 1815.17,616.5 1778.83,616.5 1742.5,616.5C 1742.5,605.833 1742.5,595.167 1742.5,584.5 Z"/></g>
<g><path style="opacity:0.969" fill="#6d6d6c" d="M 1851.5,584.5 C 1885.5,584.5 1919.5,584.5 1953.5,584.5C 1953.5,595.167 1953.5,605.833 1953.5,616.5C 1919.5,616.5 1885.5,616.5 1851.5,616.5C 1851.5,605.833 1851.5,595.167 1851.5,584.5 Z"/></g>
<g><path style="opacity:0.969" fill="#737372" d="M 1953.5,584.5 C 1985.17,584.5 2016.83,584.5 2048.5,584.5C 2048.5,595.167 2048.5,605.833 2048.5,616.5C 2016.83,616.5 1985.17,616.5 1953.5,616.5C 1953.5,605.833 1953.5,595.167 1953.5,584.5 Z"/></g>
<g><path style="opacity:0.969" fill="#797978" d="M 2048.5,584.5 C 2085.5,584.5 2122.5,584.5 2159.5,584.5C 2159.5,595.167 2159.5,605.833 2159.5,616.5C 2122.5,616.5 2085.5,616.5 2048.5,616.5C 2048.5,605.833 2048.5,595.167 2048.5,584.5 Z"/></g>
<g><path style="opacity:0.969" fill="#80807f" d="M 2159.5,584.5 C 2191.17,584.5 2222.83,584.5 2254.5,584.5C 2254.5,595.167 2254.5,605.833 2254.5,616.5C 2222.83,616.5 2191.17,616.5 2159.5,616.5C 2159.5,605.833 2159.5,595.167 2159.5,584.5 Z"/></g>
<g><path style="opacity:0.961" fill="#868685" d="M 2254.5,584.5 C 2286.17,584.5 2317.83,584.5 2349.5,584.5C 2349.5,595.167 2349.5,605.833 2349.5,616.5C 2317.83,616.5 2286.17,616.5 2254.5,616.5C 2254.5,605.833 2254.5,595.167 2254.5,584.5 Z"/></g>
<g><path style="opacity:0.985" fill="#8c8c8b" d="M 2349.5,584.5 C 2381.17,584.742 2412.83,585.075 2444.5,585.5C 2444.5,595.5 2444.5,605.5 2444.5,615.5C 2412.82,615.263 2381.16,615.597 2349.5,616.5C 2349.5,605.833 2349.5,595.167 2349.5,584.5 Z"/></g>
<g><path style="opacity:0.97" fill="#989898" d="M 469.5,585.5 C 469.5,595.167 469.5,604.833 469.5,614.5C 431.171,613.637 392.838,612.97 354.5,612.5C 354.5,603.833 354.5,595.167 354.5,586.5C 392.838,586.587 431.171,586.254 469.5,585.5 Z"/></g>
<g><path style="opacity:0.971" fill="#929291" d="M 2444.5,585.5 C 2476.17,585.574 2507.84,585.907 2539.5,586.5C 2539.5,595.833 2539.5,605.167 2539.5,614.5C 2507.84,615.311 2476.17,615.644 2444.5,615.5C 2444.5,605.5 2444.5,595.5 2444.5,585.5 Z"/></g>
<g><path style="opacity:0.972" fill="#989897" d="M 2539.5,586.5 C 2576.5,586.98 2613.5,587.646 2650.5,588.5C 2650.5,596.833 2650.5,605.167 2650.5,613.5C 2613.5,614.18 2576.5,614.513 2539.5,614.5C 2539.5,605.167 2539.5,595.833 2539.5,586.5 Z"/></g>
<g><path style="opacity:0.969" fill="#9f9f9f" d="M 354.5,586.5 C 354.5,595.167 354.5,603.833 354.5,612.5C 321.508,611.508 288.508,610.841 255.5,610.5C 255.5,603.167 255.5,595.833 255.5,588.5C 288.539,588.058 321.539,587.392 354.5,586.5 Z"/></g>
<g><path style="opacity:0.96" fill="#a5a5a5" d="M 255.5,588.5 C 255.5,595.833 255.5,603.167 255.5,610.5C 222.546,609.037 189.546,608.037 156.5,607.5C 156.5,601.833 156.5,596.167 156.5,590.5C 189.493,589.59 222.493,588.923 255.5,588.5 Z"/></g>
<g><path style="opacity:0.966" fill="#9f9f9e" d="M 2650.5,588.5 C 2682.17,589.074 2713.84,589.74 2745.5,590.5C 2745.5,597.833 2745.5,605.167 2745.5,612.5C 2713.83,612.652 2682.16,612.985 2650.5,613.5C 2650.5,605.167 2650.5,596.833 2650.5,588.5 Z"/></g>
<g><path style="opacity:0.941" fill="#acacac" d="M 156.5,590.5 C 156.5,596.167 156.5,601.833 156.5,607.5C 117.859,605.827 79.1919,603.994 40.5,602C 26.7758,601.367 13.1091,600.201 -0.5,598.5C -0.5,597.833 -0.5,597.167 -0.5,596.5C 51.7539,592.997 104.087,590.997 156.5,590.5 Z"/></g>
<g><path style="opacity:0.964" fill="#a5a5a4" d="M 2745.5,590.5 C 2777.84,591.441 2810.17,592.441 2842.5,593.5C 2842.5,599.167 2842.5,604.833 2842.5,610.5C 2810.16,610.858 2777.82,611.525 2745.5,612.5C 2745.5,605.167 2745.5,597.833 2745.5,590.5 Z"/></g>
<g><path style="opacity:0.946" fill="#acacab" d="M 2842.5,593.5 C 2877.84,594.667 2913.18,596.167 2948.5,598C 2965.64,598.597 2982.64,600.097 2999.5,602.5C 2999.5,603.167 2999.5,603.833 2999.5,604.5C 2947.21,607.499 2894.88,609.499 2842.5,610.5C 2842.5,604.833 2842.5,599.167 2842.5,593.5 Z"/></g>
<g><path style="opacity:0.969" fill="#90908f" d="M 782.5,776.5 C 771.5,776.5 760.5,776.5 749.5,776.5C 744.996,766.845 739.83,757.512 734,748.5C 725.882,739.238 715.715,735.738 703.5,738C 694.301,740.53 687.468,746.03 683,754.5C 679.392,762.052 675.559,769.386 671.5,776.5C 660.5,776.5 649.5,776.5 638.5,776.5C 644.462,763.243 650.962,750.243 658,737.5C 676.647,711.505 701.48,703.005 732.5,712C 745.374,717.203 755.541,725.703 763,737.5C 770.038,750.243 776.538,763.243 782.5,776.5 Z"/></g>
<g><path style="opacity:0.975" fill="#8f8f8e" d="M -0.5,711.5 C 61.1676,711.333 122.834,711.5 184.5,712C 206.883,713.107 225.049,722.274 239,739.5C 245.769,750.908 248.935,763.242 248.5,776.5C 238.167,776.5 227.833,776.5 217.5,776.5C 216.455,757.558 206.789,745.725 188.5,741C 135.533,739.526 82.5327,739.026 29.5,739.5C 29.5,751.833 29.5,764.167 29.5,776.5C 19.5,776.5 9.5,776.5 -0.5,776.5C -0.5,754.833 -0.5,733.167 -0.5,711.5 Z"/></g>
<g><path style="opacity:0.975" fill="#8f8f8e" d="M 1198.5,776.5 C 1187.83,776.5 1177.17,776.5 1166.5,776.5C 1172.44,745.063 1190.77,724.896 1221.5,716C 1229.71,713.909 1238.04,712.576 1246.5,712C 1304.17,711.5 1361.83,711.333 1419.5,711.5C 1419.5,721.5 1419.5,731.5 1419.5,741.5C 1360.15,741.04 1300.81,741.54 1241.5,743C 1220.33,745.565 1206,756.732 1198.5,776.5 Z"/></g>
<g><path style="opacity:0.984" fill="#8f8f8e" d="M 2777.5,776.5 C 2766.83,776.5 2756.17,776.5 2745.5,776.5C 2751.46,745.037 2769.8,724.871 2800.5,716C 2808.39,714.018 2816.39,712.685 2824.5,712C 2882.17,711.5 2939.83,711.333 2997.5,711.5C 2997.5,721.5 2997.5,731.5 2997.5,741.5C 2938.14,741.036 2878.81,741.536 2819.5,743C 2798.42,745.609 2784.42,756.776 2777.5,776.5 Z"/></g>
<g><path style="opacity:0.992" fill="#919190" d="M 1786.5,776.5 C 1776.5,776.5 1766.5,776.5 1756.5,776.5C 1756.5,754.833 1756.5,733.167 1756.5,711.5C 1766.5,711.5 1776.5,711.5 1786.5,711.5C 1786.5,733.167 1786.5,754.833 1786.5,776.5 Z"/></g>
<g><path style="opacity:0.959" fill="#919190" d="M 2259.5,776.5 C 2246.5,776.5 2233.5,776.5 2220.5,776.5C 2213.3,768.645 2205.97,760.812 2198.5,753C 2189.96,745.43 2179.96,741.93 2168.5,742.5C 2168.5,753.833 2168.5,765.167 2168.5,776.5C 2158.17,776.5 2147.83,776.5 2137.5,776.5C 2137.5,754.833 2137.5,733.167 2137.5,711.5C 2176.01,704.815 2208.18,715.815 2234,744.5C 2242.75,755.015 2251.25,765.681 2259.5,776.5 Z"/></g>
<g><path style="opacity:0.992" fill="#919190" d="M 2400.5,776.5 C 2390.5,776.5 2380.5,776.5 2370.5,776.5C 2370.5,754.833 2370.5,733.167 2370.5,711.5C 2380.5,711.5 2390.5,711.5 2400.5,711.5C 2400.5,733.167 2400.5,754.833 2400.5,776.5 Z"/></g>
<g><path style="opacity:0.978" fill="#989897" d="M -0.5,776.5 C 9.5,776.5 19.5,776.5 29.5,776.5C 29.5,789.5 29.5,802.5 29.5,815.5C 82.1994,815.974 134.866,815.474 187.5,814C 207.117,809.294 217.117,796.794 217.5,776.5C 227.833,776.5 238.167,776.5 248.5,776.5C 248.642,797.506 239.976,813.506 222.5,824.5C 148.167,824.5 73.8333,824.5 -0.5,824.5C -0.5,808.5 -0.5,792.5 -0.5,776.5 Z"/></g>
<g><path style="opacity:0.966" fill="#989897" d="M 638.5,776.5 C 649.5,776.5 660.5,776.5 671.5,776.5C 664.376,792.748 656.71,808.748 648.5,824.5C 637.5,824.5 626.5,824.5 615.5,824.5C 622.652,808.198 630.318,792.198 638.5,776.5 Z"/></g>
<g><path style="opacity:0.968" fill="#989897" d="M 749.5,776.5 C 760.5,776.5 771.5,776.5 782.5,776.5C 790.467,792.435 798.467,808.435 806.5,824.5C 795.167,824.5 783.833,824.5 772.5,824.5C 764.836,808.505 757.169,792.505 749.5,776.5 Z"/></g>
<g><path style="opacity:0.975" fill="#979796" d="M 1166.5,776.5 C 1177.17,776.5 1187.83,776.5 1198.5,776.5C 1193.78,795.577 1192.45,814.91 1194.5,834.5C 1184.17,834.5 1173.83,834.5 1163.5,834.5C 1161.6,814.968 1162.6,795.635 1166.5,776.5 Z"/></g>
<g><path style="opacity:0.992" fill="#979796" d="M 1756.5,776.5 C 1766.5,776.5 1776.5,776.5 1786.5,776.5C 1786.5,795.833 1786.5,815.167 1786.5,834.5C 1776.5,834.5 1766.5,834.5 1756.5,834.5C 1756.5,815.167 1756.5,795.833 1756.5,776.5 Z"/></g>
<g><path style="opacity:0.952" fill="#979796" d="M 2137.5,776.5 C 2147.83,776.5 2158.17,776.5 2168.5,776.5C 2168.5,795.833 2168.5,815.167 2168.5,834.5C 2158.17,834.5 2147.83,834.5 2137.5,834.5C 2137.5,815.167 2137.5,795.833 2137.5,776.5 Z"/></g>
<g><path style="opacity:0.968" fill="#979796" d="M 2220.5,776.5 C 2233.5,776.5 2246.5,776.5 2259.5,776.5C 2274.32,795.468 2288.65,814.802 2302.5,834.5C 2289.83,834.5 2277.17,834.5 2264.5,834.5C 2249.43,815.432 2234.76,796.099 2220.5,776.5 Z"/></g>
<g><path style="opacity:0.992" fill="#979796" d="M 2370.5,776.5 C 2380.5,776.5 2390.5,776.5 2400.5,776.5C 2400.5,795.833 2400.5,815.167 2400.5,834.5C 2390.5,834.5 2380.5,834.5 2370.5,834.5C 2370.5,815.167 2370.5,795.833 2370.5,776.5 Z"/></g>
<g><path style="opacity:0.972" fill="#979796" d="M 2745.5,776.5 C 2756.17,776.5 2766.83,776.5 2777.5,776.5C 2772.61,795.533 2771.28,814.867 2773.5,834.5C 2763.17,834.5 2752.83,834.5 2742.5,834.5C 2740.57,814.968 2741.57,795.635 2745.5,776.5 Z"/></g>
<g><path style="opacity:0.995" fill="#929292" d="M -0.5,824.5 C 73.8333,824.5 148.167,824.5 222.5,824.5C 220.073,826.558 217.407,828.391 214.5,830C 216.898,831.524 219.231,833.024 221.5,834.5C 147.5,834.5 73.5,834.5 -0.5,834.5C -0.5,831.167 -0.5,827.833 -0.5,824.5 Z"/></g>
<g><path style="opacity:1" fill="#959594" d="M 2999.5,811.5 C 2999.5,819.167 2999.5,826.833 2999.5,834.5C 2989.5,834.5 2979.5,834.5 2969.5,834.5C 2969.5,826.833 2969.5,819.167 2969.5,811.5C 2979.5,811.5 2989.5,811.5 2999.5,811.5 Z"/></g>
<g><path style="opacity:0.96" fill="#8b8b8b" d="M -0.5,834.5 C 73.5,834.5 147.5,834.5 221.5,834.5C 228.934,839.267 234.601,845.6 238.5,853.5C 226.5,853.5 214.5,853.5 202.5,853.5C 196.29,847.924 188.957,844.757 180.5,844C 130.168,843.5 79.8344,843.333 29.5,843.5C 29.5,846.833 29.5,850.167 29.5,853.5C 19.5,853.5 9.5,853.5 -0.5,853.5C -0.5,847.167 -0.5,840.833 -0.5,834.5 Z"/></g>
<g><path style="opacity:0.994" fill="#8e8e8d" d="M 615.5,824.5 C 626.5,824.5 637.5,824.5 648.5,824.5C 647.513,826.473 646.513,828.473 645.5,830.5C 688.833,831.833 732.167,831.833 775.5,830.5C 774.487,828.473 773.487,826.473 772.5,824.5C 783.833,824.5 795.167,824.5 806.5,824.5C 809.833,831.167 813.167,837.833 816.5,844.5C 746.167,844.5 675.833,844.5 605.5,844.5C 608.325,837.516 611.659,830.849 615.5,824.5 Z"/></g>
<g><path style="opacity:0.995" fill="#868686" d="M 605.5,844.5 C 675.833,844.5 746.167,844.5 816.5,844.5C 817.559,847.618 818.892,850.618 820.5,853.5C 747.167,853.5 673.833,853.5 600.5,853.5C 601.929,850.304 603.595,847.304 605.5,844.5 Z"/></g>
<g><path style="opacity:0.973" fill="#888888" d="M 1163.5,834.5 C 1173.83,834.5 1184.17,834.5 1194.5,834.5C 1195.58,840.886 1196.91,847.22 1198.5,853.5C 1187.83,853.5 1177.17,853.5 1166.5,853.5C 1165.04,847.252 1164.04,840.919 1163.5,834.5 Z"/></g>
<g><path style="opacity:0.992" fill="#888888" d="M 1756.5,834.5 C 1766.5,834.5 1776.5,834.5 1786.5,834.5C 1786.5,840.833 1786.5,847.167 1786.5,853.5C 1776.5,853.5 1766.5,853.5 1756.5,853.5C 1756.5,847.167 1756.5,840.833 1756.5,834.5 Z"/></g>
<g><path style="opacity:0.952" fill="#888888" d="M 2137.5,834.5 C 2147.83,834.5 2158.17,834.5 2168.5,834.5C 2168.5,840.833 2168.5,847.167 2168.5,853.5C 2158.17,853.5 2147.83,853.5 2137.5,853.5C 2137.5,847.167 2137.5,840.833 2137.5,834.5 Z"/></g>
<g><path style="opacity:0.966" fill="#888888" d="M 2264.5,834.5 C 2277.17,834.5 2289.83,834.5 2302.5,834.5C 2307.85,840.522 2312.85,846.855 2317.5,853.5C 2304.83,853.5 2292.17,853.5 2279.5,853.5C 2274.15,847.478 2269.15,841.145 2264.5,834.5 Z"/></g>
<g><path style="opacity:0.992" fill="#888888" d="M 2370.5,834.5 C 2380.5,834.5 2390.5,834.5 2400.5,834.5C 2400.5,840.833 2400.5,847.167 2400.5,853.5C 2390.5,853.5 2380.5,853.5 2370.5,853.5C 2370.5,847.167 2370.5,840.833 2370.5,834.5 Z"/></g>
<g><path style="opacity:0.971" fill="#888888" d="M 2742.5,834.5 C 2752.83,834.5 2763.17,834.5 2773.5,834.5C 2774.32,840.952 2775.66,847.286 2777.5,853.5C 2766.83,853.5 2756.17,853.5 2745.5,853.5C 2744.04,847.252 2743.04,840.919 2742.5,834.5 Z"/></g>
<g><path style="opacity:1" fill="#888888" d="M 2969.5,834.5 C 2979.5,834.5 2989.5,834.5 2999.5,834.5C 2999.5,840.833 2999.5,847.167 2999.5,853.5C 2989.5,853.5 2979.5,853.5 2969.5,853.5C 2969.5,847.167 2969.5,840.833 2969.5,834.5 Z"/></g>
<g><path style="opacity:0.914" fill="#808080" d="M 600.5,853.5 C 673.833,853.5 747.167,853.5 820.5,853.5C 822.105,856.378 823.439,859.378 824.5,862.5C 813.5,862.5 802.5,862.5 791.5,862.5C 791.196,861.85 790.863,861.183 790.5,860.5C 737.167,859.167 683.833,859.167 630.5,860.5C 630.137,861.183 629.804,861.85 629.5,862.5C 618.5,862.5 607.5,862.5 596.5,862.5C 597.561,859.378 598.895,856.378 600.5,853.5 Z"/></g>
<g><path style="opacity:1" fill="#7b7b7b" d="M -0.5,853.5 C 9.5,853.5 19.5,853.5 29.5,853.5C 29.5,859.167 29.5,864.833 29.5,870.5C 19.5,870.5 9.5,870.5 -0.5,870.5C -0.5,864.833 -0.5,859.167 -0.5,853.5 Z"/></g>
<g><path style="opacity:0.974" fill="#7b7b7b" d="M 202.5,853.5 C 214.5,853.5 226.5,853.5 238.5,853.5C 240.779,859.001 242.445,864.667 243.5,870.5C 232.833,870.5 222.167,870.5 211.5,870.5C 210.33,863.825 207.33,858.158 202.5,853.5 Z"/></g>
<g><path style="opacity:0.97" fill="#7b7b7b" d="M 1166.5,853.5 C 1177.17,853.5 1187.83,853.5 1198.5,853.5C 1200.72,859.61 1203.72,865.277 1207.5,870.5C 1195.83,870.5 1184.17,870.5 1172.5,870.5C 1169.73,865.2 1167.73,859.533 1166.5,853.5 Z"/></g>
<g><path style="opacity:0.992" fill="#7b7b7b" d="M 1756.5,853.5 C 1766.5,853.5 1776.5,853.5 1786.5,853.5C 1786.5,859.167 1786.5,864.833 1786.5,870.5C 1776.5,870.5 1766.5,870.5 1756.5,870.5C 1756.5,864.833 1756.5,859.167 1756.5,853.5 Z"/></g>
<g><path style="opacity:0.952" fill="#7b7b7b" d="M 2137.5,853.5 C 2147.83,853.5 2158.17,853.5 2168.5,853.5C 2168.5,859.167 2168.5,864.833 2168.5,870.5C 2158.17,870.5 2147.83,870.5 2137.5,870.5C 2137.5,864.833 2137.5,859.167 2137.5,853.5 Z"/></g>
<g><path style="opacity:0.964" fill="#7b7b7b" d="M 2279.5,853.5 C 2292.17,853.5 2304.83,853.5 2317.5,853.5C 2322.26,859.314 2327.26,864.98 2332.5,870.5C 2319.5,870.5 2306.5,870.5 2293.5,870.5C 2288.13,865.425 2283.46,859.759 2279.5,853.5 Z"/></g>
<g><path style="opacity:0.992" fill="#7b7b7b" d="M 2370.5,853.5 C 2380.5,853.5 2390.5,853.5 2400.5,853.5C 2400.5,859.167 2400.5,864.833 2400.5,870.5C 2390.5,870.5 2380.5,870.5 2370.5,870.5C 2370.5,864.833 2370.5,859.167 2370.5,853.5 Z"/></g>
<g><path style="opacity:0.973" fill="#7b7b7b" d="M 2745.5,853.5 C 2756.17,853.5 2766.83,853.5 2777.5,853.5C 2779.72,859.61 2782.72,865.277 2786.5,870.5C 2774.83,870.5 2763.17,870.5 2751.5,870.5C 2748.73,865.2 2746.73,859.533 2745.5,853.5 Z"/></g>
<g><path style="opacity:1" fill="#7b7b7b" d="M 2969.5,853.5 C 2979.5,853.5 2989.5,853.5 2999.5,853.5C 2999.5,859.167 2999.5,864.833 2999.5,870.5C 2989.5,870.5 2979.5,870.5 2969.5,870.5C 2969.5,864.833 2969.5,859.167 2969.5,853.5 Z"/></g>
<g><path style="opacity:0.974" fill="#757575" d="M 596.5,862.5 C 607.5,862.5 618.5,862.5 629.5,862.5C 626.893,867.38 624.56,872.38 622.5,877.5C 611.5,877.5 600.5,877.5 589.5,877.5C 591.597,872.311 593.93,867.311 596.5,862.5 Z"/></g>
<g><path style="opacity:0.967" fill="#757575" d="M 791.5,862.5 C 802.5,862.5 813.5,862.5 824.5,862.5C 827.405,867.307 830.072,872.307 832.5,877.5C 821.5,877.5 810.5,877.5 799.5,877.5C 796.595,872.693 793.928,867.693 791.5,862.5 Z"/></g>
<g><path style="opacity:1" fill="#6f6f6f" d="M -0.5,870.5 C 9.5,870.5 19.5,870.5 29.5,870.5C 29.5,875.5 29.5,880.5 29.5,885.5C 19.5,885.5 9.5,885.5 -0.5,885.5C -0.5,880.5 -0.5,875.5 -0.5,870.5 Z"/></g>
<g><path style="opacity:0.984" fill="#6f6f6f" d="M 211.5,870.5 C 222.167,870.5 232.833,870.5 243.5,870.5C 243.5,875.5 243.5,880.5 243.5,885.5C 233.167,885.5 222.833,885.5 212.5,885.5C 212.587,880.463 212.254,875.463 211.5,870.5 Z"/></g>
<g><path style="opacity:0.992" fill="#6f6f6f" d="M 1756.5,870.5 C 1766.5,870.5 1776.5,870.5 1786.5,870.5C 1786.5,875.5 1786.5,880.5 1786.5,885.5C 1776.5,885.5 1766.5,885.5 1756.5,885.5C 1756.5,880.5 1756.5,875.5 1756.5,870.5 Z"/></g>
<g><path style="opacity:0.952" fill="#6f6f6f" d="M 2137.5,870.5 C 2147.83,870.5 2158.17,870.5 2168.5,870.5C 2168.5,875.5 2168.5,880.5 2168.5,885.5C 2158.17,885.5 2147.83,885.5 2137.5,885.5C 2137.5,880.5 2137.5,875.5 2137.5,870.5 Z"/></g>
<g><path style="opacity:0.963" fill="#696968" d="M 589.5,877.5 C 600.5,877.5 611.5,877.5 622.5,877.5C 619.738,883.36 616.738,889.026 613.5,894.5C 602.5,894.5 591.5,894.5 580.5,894.5C 583.262,888.64 586.262,882.974 589.5,877.5 Z"/></g>
<g><path style="opacity:0.956" fill="#696968" d="M 799.5,877.5 C 810.5,877.5 821.5,877.5 832.5,877.5C 835.437,883.041 838.104,888.708 840.5,894.5C 829.5,894.5 818.5,894.5 807.5,894.5C 804.077,889.253 801.411,883.587 799.5,877.5 Z"/></g>
<g><path style="opacity:0.99" fill="#686867" d="M 1172.5,870.5 C 1184.17,870.5 1195.83,870.5 1207.5,870.5C 1219.99,882.398 1234.99,888.232 1252.5,888C 1308.17,888.5 1363.83,888.667 1419.5,888.5C 1419.5,890.5 1419.5,892.5 1419.5,894.5C 1342.5,894.5 1265.5,894.5 1188.5,894.5C 1180.67,888.183 1175.34,880.183 1172.5,870.5 Z"/></g>
<g><path style="opacity:0.982" fill="#6a6a6a" d="M 2293.5,870.5 C 2306.5,870.5 2319.5,870.5 2332.5,870.5C 2342.44,882.137 2355.11,887.804 2370.5,887.5C 2370.5,881.833 2370.5,876.167 2370.5,870.5C 2380.5,870.5 2390.5,870.5 2400.5,870.5C 2400.5,878.5 2400.5,886.5 2400.5,894.5C 2372.17,894.5 2343.83,894.5 2315.5,894.5C 2307.07,887.405 2299.73,879.405 2293.5,870.5 Z"/></g>
<g><path style="opacity:0.989" fill="#696968" d="M 2751.5,870.5 C 2763.17,870.5 2774.83,870.5 2786.5,870.5C 2796.05,880.273 2807.72,885.773 2821.5,887C 2870.81,888.446 2920.15,888.946 2969.5,888.5C 2969.5,882.5 2969.5,876.5 2969.5,870.5C 2979.5,870.5 2989.5,870.5 2999.5,870.5C 2999.5,878.5 2999.5,886.5 2999.5,894.5C 2922.17,894.5 2844.83,894.5 2767.5,894.5C 2763.12,891.286 2759.62,887.286 2757,882.5C 2754.34,878.856 2752.51,874.856 2751.5,870.5 Z"/></g>
<g><path style="opacity:1" fill="#626262" d="M -0.5,885.5 C 9.5,885.5 19.5,885.5 29.5,885.5C 29.5,891.167 29.5,896.833 29.5,902.5C 19.5,902.5 9.5,902.5 -0.5,902.5C -0.5,896.833 -0.5,891.167 -0.5,885.5 Z"/></g>
<g><path style="opacity:0.984" fill="#626262" d="M 212.5,885.5 C 222.833,885.5 233.167,885.5 243.5,885.5C 243.5,891.167 243.5,896.833 243.5,902.5C 233.167,902.5 222.833,902.5 212.5,902.5C 212.5,896.833 212.5,891.167 212.5,885.5 Z"/></g>
<g><path style="opacity:0.997" fill="#5e5e5d" d="M 1188.5,894.5 C 1265.5,894.5 1342.5,894.5 1419.5,894.5C 1419.5,899.5 1419.5,904.5 1419.5,909.5C 1349.83,909.5 1280.17,909.5 1210.5,909.5C 1201.77,906.475 1194.44,901.475 1188.5,894.5 Z"/></g>
<g><path style="opacity:0.992" fill="#626262" d="M 1756.5,885.5 C 1766.5,885.5 1776.5,885.5 1786.5,885.5C 1786.5,891.167 1786.5,896.833 1786.5,902.5C 1776.5,902.5 1766.5,902.5 1756.5,902.5C 1756.5,896.833 1756.5,891.167 1756.5,885.5 Z"/></g>
<g><path style="opacity:0.952" fill="#626262" d="M 2137.5,885.5 C 2147.83,885.5 2158.17,885.5 2168.5,885.5C 2168.5,891.167 2168.5,896.833 2168.5,902.5C 2158.17,902.5 2147.83,902.5 2137.5,902.5C 2137.5,896.833 2137.5,891.167 2137.5,885.5 Z"/></g>
<g><path style="opacity:0.997" fill="#60605f" d="M 2767.5,894.5 C 2844.83,894.5 2922.17,894.5 2999.5,894.5C 2999.5,897.167 2999.5,899.833 2999.5,902.5C 2925.5,902.5 2851.5,902.5 2777.5,902.5C 2773.3,900.967 2769.96,898.3 2767.5,894.5 Z"/></g>
<g><path style="opacity:0.964" fill="#5a5a59" d="M 580.5,894.5 C 591.5,894.5 602.5,894.5 613.5,894.5C 609.831,902.504 606.164,910.504 602.5,918.5C 591.5,918.5 580.5,918.5 569.5,918.5C 572.621,910.257 576.288,902.257 580.5,894.5 Z"/></g>
<g><path style="opacity:0.972" fill="#5a5a59" d="M 807.5,894.5 C 818.5,894.5 829.5,894.5 840.5,894.5C 844.683,902.203 848.35,910.203 851.5,918.5C 840.5,918.5 829.5,918.5 818.5,918.5C 814.833,910.5 811.167,902.5 807.5,894.5 Z"/></g>
<g><path style="opacity:0.983" fill="#5a5a59" d="M 2315.5,894.5 C 2343.83,894.5 2372.17,894.5 2400.5,894.5C 2400.5,902.5 2400.5,910.5 2400.5,918.5C 2389.83,918.5 2379.17,918.5 2368.5,918.5C 2347.66,917.444 2329.99,909.444 2315.5,894.5 Z"/></g>
<g><path style="opacity:0.995" fill="#5a5a59" d="M 2777.5,902.5 C 2851.5,902.5 2925.5,902.5 2999.5,902.5C 2999.5,904.833 2999.5,907.167 2999.5,909.5C 2929.83,909.5 2860.17,909.5 2790.5,909.5C 2785.43,908.41 2781.1,906.076 2777.5,902.5 Z"/></g>
<g><path style="opacity:1" fill="#555555" d="M -0.5,902.5 C 9.5,902.5 19.5,902.5 29.5,902.5C 29.5,907.833 29.5,913.167 29.5,918.5C 19.5,918.5 9.5,918.5 -0.5,918.5C -0.5,913.167 -0.5,907.833 -0.5,902.5 Z"/></g>
<g><path style="opacity:0.984" fill="#555555" d="M 212.5,902.5 C 222.833,902.5 233.167,902.5 243.5,902.5C 243.5,907.833 243.5,913.167 243.5,918.5C 233.167,918.5 222.833,918.5 212.5,918.5C 212.5,913.167 212.5,907.833 212.5,902.5 Z"/></g>
<g><path style="opacity:0.99" fill="#545453" d="M 1210.5,909.5 C 1280.17,909.5 1349.83,909.5 1419.5,909.5C 1419.5,912.5 1419.5,915.5 1419.5,918.5C 1362.83,918.5 1306.17,918.5 1249.5,918.5C 1236.02,917.671 1223.02,914.671 1210.5,909.5 Z"/></g>
<g><path style="opacity:0.992" fill="#555555" d="M 1756.5,902.5 C 1766.5,902.5 1776.5,902.5 1786.5,902.5C 1786.5,907.833 1786.5,913.167 1786.5,918.5C 1776.5,918.5 1766.5,918.5 1756.5,918.5C 1756.5,913.167 1756.5,907.833 1756.5,902.5 Z"/></g>
<g><path style="opacity:0.952" fill="#555555" d="M 2137.5,902.5 C 2147.83,902.5 2158.17,902.5 2168.5,902.5C 2168.5,907.833 2168.5,913.167 2168.5,918.5C 2158.17,918.5 2147.83,918.5 2137.5,918.5C 2137.5,913.167 2137.5,907.833 2137.5,902.5 Z"/></g>
<g><path style="opacity:0.991" fill="#545453" d="M 2790.5,909.5 C 2860.17,909.5 2929.83,909.5 2999.5,909.5C 2999.5,912.5 2999.5,915.5 2999.5,918.5C 2943.17,918.5 2886.83,918.5 2830.5,918.5C 2822.6,917.666 2814.6,916.499 2806.5,915C 2800.75,914.03 2795.42,912.197 2790.5,909.5 Z"/></g>
</svg>
