<?xml version="1.0" encoding="UTF-8"?>
<!DOCTYPE svg PUBLIC "-//W3C//DTD SVG 1.1//EN" "http://www.w3.org/Graphics/SVG/1.1/DTD/svg11.dtd">
<svg xmlns="http://www.w3.org/2000/svg" version="1.1" width="2880px" height="960px" style="shape-rendering:geometricPrecision; text-rendering:geometricPrecision; image-rendering:optimizeQuality; fill-rule:evenodd; clip-rule:evenodd" xmlns:xlink="http://www.w3.org/1999/xlink">
<g><path style="opacity:0.993" fill="#8b8f91" d="M 1100.5,22.5 C 1168.5,22.3333 1236.5,22.5 1304.5,23C 1357.8,27.8868 1399.3,52.3868 1429,96.5C 1459.55,149.772 1460.21,203.438 1431,257.5C 1407.72,294.603 1374.88,318.936 1332.5,330.5C 1345,348.167 1357.5,365.833 1370,383.5C 1370.51,384.996 1370.01,386.163 1368.5,387C 1331.8,387.36 1300.46,400.36 1274.5,426C 1273.67,426.688 1273,426.521 1272.5,425.5C 1262.33,409.833 1252.17,394.167 1242,378.5C 1241.5,335.835 1241.33,293.168 1241.5,250.5C 1255.88,250.911 1270.22,250.411 1284.5,249C 1326.12,238.064 1344.95,211.231 1341,168.5C 1332.65,138.487 1313.15,120.654 1282.5,115C 1259.5,114.5 1236.5,114.333 1213.5,114.5C 1213.83,225.835 1213.5,337.169 1212.5,448.5C 1189.85,452.328 1169.19,460.828 1150.5,474C 1134.56,486.609 1118.06,498.442 1101,509.5C 1100.33,489.167 1100.33,468.833 1101,448.5C 1130.74,418.125 1134.4,384.791 1112,348.5C 1108.33,344.833 1104.67,341.167 1101,337.5C 1100.5,232.501 1100.33,127.501 1100.5,22.5 Z"/></g>
<g><path style="opacity:0.995" fill="#8b8f91" d="M 1491.5,22.5 C 1556.83,22.3333 1622.17,22.5 1687.5,23C 1718.08,23.647 1747.08,30.647 1774.5,44C 1806.04,63.5336 1826.54,91.367 1836,127.5C 1846.92,180.402 1833.08,225.569 1794.5,263C 1870.62,297.418 1899.12,355.585 1880,437.5C 1869.71,470.772 1850.54,497.606 1822.5,518C 1821.67,518.688 1821,518.521 1820.5,517.5C 1814.13,498.08 1804.63,480.414 1792,464.5C 1782,451.833 1772,439.167 1762,426.5C 1764.9,417.428 1767.24,408.095 1769,398.5C 1771.29,361.23 1754.79,336.73 1719.5,325C 1696.2,323.729 1672.87,323.063 1649.5,323C 1645.76,320.045 1641.92,317.211 1638,314.5C 1637.5,285.502 1637.33,256.502 1637.5,227.5C 1652.5,227.667 1667.5,227.5 1682.5,227C 1711.54,220.455 1727.2,202.288 1729.5,172.5C 1727.12,142.876 1711.79,123.709 1683.5,115C 1657.17,114.5 1630.84,114.333 1604.5,114.5C 1604.83,175.837 1604.5,237.17 1603.5,298.5C 1575.99,290.698 1548.99,292.198 1522.5,303C 1512.33,308.916 1502.33,315.083 1492.5,321.5C 1491.5,221.836 1491.17,122.169 1491.5,22.5 Z"/></g>
<g><path style="opacity:0.99" fill="#1334c9" d="M 553.5,274.5 C 578.903,272.94 603.569,276.44 627.5,285C 628.428,285.388 629.095,286.055 629.5,287C 625.704,304.991 621.537,322.824 617,340.5C 593.58,329.012 569.08,325.845 543.5,331C 537.157,333.355 531.991,337.189 528,342.5C 524.513,351.362 526.679,358.529 534.5,364C 552.331,374.081 569.998,384.414 587.5,395C 617.051,417.687 624.884,446.52 611,481.5C 597.396,508.083 575.896,524.583 546.5,531C 507.402,539.106 469.069,536.439 431.5,523C 430.978,522.439 430.645,521.772 430.5,521C 434.412,503.186 438.245,485.353 442,467.5C 442.414,467.043 442.914,466.709 443.5,466.5C 470.701,481.201 499.368,485.368 529.5,479C 543.378,474.711 549.211,465.544 547,451.5C 544.925,447.421 542.092,443.921 538.5,441C 525.488,433.159 512.154,425.826 498.5,419C 453.995,392.144 445.495,356.644 473,312.5C 487.801,295.343 506.301,284.177 528.5,279C 536.936,277.262 545.27,275.762 553.5,274.5 Z"/></g>
<g><path style="opacity:0.989" fill="#1333c9" d="M 41.5,279.5 C 81.5014,279.333 121.501,279.5 161.5,280C 172.333,283.5 179.5,290.667 183,301.5C 192.205,350.527 201.539,399.527 211,448.5C 233.265,392.54 255.431,336.54 277.5,280.5C 300.826,279.334 324.16,279.167 347.5,280C 312.143,363.735 276.976,447.568 242,531.5C 218.575,532.494 195.075,532.827 171.5,532.5C 153.783,461.299 135.283,390.299 116,319.5C 110.588,312.031 103.422,306.864 94.5,304C 77.2654,297.108 59.5988,291.608 41.5,287.5C 40.5508,284.874 40.5508,282.208 41.5,279.5 Z"/></g>
<g><path style="opacity:0.988" fill="#1334c9" d="M 374.5,279.5 C 396.5,279.5 418.5,279.5 440.5,279.5C 422.861,363.193 405.028,446.86 387,530.5C 365.064,532.483 342.898,533.15 320.5,532.5C 338.245,448.108 356.245,363.775 374.5,279.5 Z"/></g>
<g><path style="opacity:0.989" fill="#1333c9" d="M 731.5,279.5 C 753.232,278.851 774.732,279.518 796,281.5C 813.183,364.913 830.683,448.247 848.5,531.5C 828.175,532.666 807.842,532.833 787.5,532C 784.39,519.618 781.723,507.118 779.5,494.5C 751.831,494.333 724.165,494.5 696.5,495C 691.833,507.333 687.167,519.667 682.5,532C 659.502,532.5 636.502,532.667 613.5,532.5C 645.429,453.97 677.929,375.636 711,297.5C 715.256,288.402 722.089,282.402 731.5,279.5 Z M 747.5,351.5 C 749.463,353.967 750.629,356.967 751,360.5C 756.696,387.812 762.196,415.145 767.5,442.5C 750.154,442.833 732.821,442.5 715.5,441.5C 726.745,411.683 737.411,381.683 747.5,351.5 Z"/></g>
<g><path style="opacity:0.99" fill="#48ad47" d="M 2076.5,316.5 C 2110.5,316.333 2144.5,316.5 2178.5,317C 2200.53,319.368 2213.03,331.535 2216,353.5C 2216.67,388.5 2216.67,423.5 2216,458.5C 2212.45,480.379 2199.62,492.212 2177.5,494C 2144.17,494.667 2110.83,494.667 2077.5,494C 2053.54,491.71 2040.71,478.543 2039,454.5C 2038.05,419.14 2038.39,383.807 2040,348.5C 2044.62,329.121 2056.79,318.454 2076.5,316.5 Z"/></g>
<g><path style="opacity:0.994" fill="#8b8f91" d="M 975.5,318.5 C 983.982,322.908 991.982,328.075 999.5,334C 1003.5,336 1007.5,338 1011.5,340C 1023.44,342.922 1035.44,345.588 1047.5,348C 1061.59,351.129 1074.09,357.296 1085,366.5C 1095.85,381.68 1097.18,397.68 1089,414.5C 1074.45,431.387 1058.28,446.554 1040.5,460C 1029.33,468.826 1020.83,479.659 1015,492.5C 1005.94,526.091 1018.11,547.591 1051.5,557C 1062.75,557.821 1073.75,556.488 1084.5,553C 1102.55,545.813 1119.55,536.813 1135.5,526C 1152.46,511.383 1170.79,498.716 1190.5,488C 1207.67,482.193 1225.34,478.86 1243.5,478C 1256.66,475.753 1268.66,470.753 1279.5,463C 1289.79,455.043 1299.79,446.71 1309.5,438C 1321.66,428.831 1335.33,423.165 1350.5,421C 1360.22,420.289 1369.89,419.289 1379.5,418C 1389.76,410.414 1399.42,402.081 1408.5,393C 1417.39,386.384 1427.06,381.05 1437.5,377C 1456.01,371.123 1474.35,364.79 1492.5,358C 1508.7,348.4 1525.04,339.067 1541.5,330C 1567.01,321.959 1591.34,324.625 1614.5,338C 1619.17,341 1623.83,344 1628.5,347C 1653.54,368.377 1678.88,389.377 1704.5,410C 1731.61,439.098 1756.44,469.932 1779,502.5C 1783.44,510.041 1786.77,518.041 1789,526.5C 1793.87,572.988 1804.87,617.988 1822,661.5C 1827.67,667.5 1833.33,673.5 1839,679.5C 1846.27,691.768 1853.94,703.768 1862,715.5C 1869.83,724.659 1879.33,731.492 1890.5,736C 1894.04,738.282 1894.37,740.949 1891.5,744C 1877.57,747.611 1864.57,745.278 1852.5,737C 1846.41,732.911 1840.91,728.078 1836,722.5C 1829.49,710.807 1821.99,699.807 1813.5,689.5C 1808.95,684.974 1803.78,681.307 1798,678.5C 1797.68,679.908 1798.02,681.241 1799,682.5C 1804.5,690.164 1809.5,698.164 1814,706.5C 1818.01,715.867 1822.01,725.201 1826,734.5C 1830.42,740.127 1835.58,744.96 1841.5,749C 1849.84,754.505 1858.51,759.505 1867.5,764C 1870.17,766.667 1870.17,769.333 1867.5,772C 1836.06,775.189 1810.06,764.855 1789.5,741C 1786.67,738.834 1783.5,737.334 1780,736.5C 1771.13,744.36 1761.29,750.86 1750.5,756C 1747.83,756.667 1745.17,757.333 1742.5,758C 1734.18,757.689 1725.85,757.189 1717.5,756.5C 1712.13,756.595 1706.79,757.095 1701.5,758C 1686.42,763.469 1671.09,768.136 1655.5,772C 1647.47,773.356 1639.8,772.356 1632.5,769C 1629.89,767.062 1628.06,764.562 1627,761.5C 1625.99,755.139 1624.83,748.806 1623.5,742.5C 1623.84,740.133 1624.34,737.8 1625,735.5C 1628.5,729.833 1632,724.167 1635.5,718.5C 1635.11,717.28 1634.28,716.613 1633,716.5C 1629.31,718.218 1625.48,718.718 1621.5,718C 1620,712.217 1620.83,706.717 1624,701.5C 1630.29,692.871 1637.63,685.205 1646,678.5C 1648.41,666.692 1653.24,656.025 1660.5,646.5C 1659.33,646.167 1658.17,645.833 1657,645.5C 1645.63,648.028 1634.13,649.528 1622.5,650C 1611.09,655.519 1599.09,657.853 1586.5,657C 1580.94,655.593 1579.11,652.093 1581,646.5C 1595.58,625.97 1599.92,603.636 1594,579.5C 1589.94,601.681 1581.94,622.348 1570,641.5C 1566.86,643.986 1563.36,645.819 1559.5,647C 1551.43,648.747 1543.43,650.747 1535.5,653C 1532.52,654.145 1530.86,656.312 1530.5,659.5C 1531.3,664.079 1532.8,668.413 1535,672.5C 1545.28,688.062 1554.28,704.395 1562,721.5C 1562.67,726.833 1562.67,732.167 1562,737.5C 1560.76,745.917 1559.43,754.251 1558,762.5C 1566.55,754.256 1573.22,744.59 1578,733.5C 1578.87,728.303 1578.2,723.303 1576,718.5C 1566.58,700.656 1557.41,682.656 1548.5,664.5C 1551.03,660.222 1554.86,658.222 1560,658.5C 1566.33,659.666 1572.49,661.333 1578.5,663.5C 1584.53,680.884 1592.69,697.218 1603,712.5C 1606.41,721.621 1606.08,730.621 1602,739.5C 1596.13,751.354 1589.46,762.687 1582,773.5C 1578.63,776.269 1574.8,778.102 1570.5,779C 1562.54,780.057 1554.54,780.723 1546.5,781C 1520,794.722 1492.17,804.889 1463,811.5C 1450.71,811.021 1440.71,806.021 1433,796.5C 1428.88,789.081 1424.38,781.914 1419.5,775C 1412.61,773.74 1405.61,773.074 1398.5,773C 1389.59,761.188 1381.92,748.521 1375.5,735C 1375.73,731.601 1377.4,729.268 1380.5,728C 1393,724.805 1405.67,723.138 1418.5,723C 1426.82,724.325 1433.32,728.492 1438,735.5C 1443.84,744.508 1449.17,753.841 1454,763.5C 1462.9,773.838 1473.73,776.338 1486.5,771C 1493.83,768.779 1500.83,765.779 1507.5,762C 1516.97,756.239 1520.13,748.073 1517,737.5C 1512.28,725.556 1504.78,715.723 1494.5,708C 1476.99,699.16 1461.83,687.327 1449,672.5C 1445.01,664.877 1442.01,656.877 1440,648.5C 1438.06,647.14 1436.4,647.473 1435,649.5C 1434.5,651 1434,652.5 1433.5,654C 1436.21,662.003 1437.71,670.17 1438,678.5C 1434.85,681.667 1431.01,683.501 1426.5,684C 1416.15,684.518 1405.81,684.184 1395.5,683C 1379.15,679.463 1362.65,676.963 1346,675.5C 1329.66,677.168 1313.33,678.835 1297,680.5C 1279.33,682.513 1268.99,674.847 1266,657.5C 1263.57,639.354 1264.41,621.354 1268.5,603.5C 1266.84,598.769 1264.67,598.436 1262,602.5C 1258.9,617.754 1256.24,633.087 1254,648.5C 1244.2,695.635 1215.37,721.802 1167.5,727C 1151.47,727.984 1135.47,729.317 1119.5,731C 1092.81,734.257 1071.31,746.423 1055,767.5C 1053.45,770.312 1052.62,773.312 1052.5,776.5C 1053.55,776.649 1054.55,776.483 1055.5,776C 1077.4,752.057 1104.73,739.39 1137.5,738C 1158.79,738.758 1179.79,736.758 1200.5,732C 1216.79,727.44 1230.63,718.94 1242,706.5C 1248.51,697.462 1255.01,688.462 1261.5,679.5C 1266.03,683.192 1270.69,686.692 1275.5,690C 1270.04,704.76 1262.87,718.593 1254,731.5C 1249.8,736.034 1245.3,740.201 1240.5,744C 1228.5,750.333 1216.5,756.667 1204.5,763C 1198.23,765.453 1191.73,766.62 1185,766.5C 1169.87,764.308 1154.7,762.308 1139.5,760.5C 1128.58,760.14 1118.92,763.306 1110.5,770C 1101.53,780.308 1090.86,788.308 1078.5,794C 1073.35,795.997 1068.02,797.164 1062.5,797.5C 1055.98,796.563 1049.48,795.563 1043,794.5C 1040.37,794.464 1037.87,794.964 1035.5,796C 1029.3,804.239 1023.46,812.739 1018,821.5C 1011.35,828.441 1003.19,831.774 993.5,831.5C 982.387,830.378 971.387,828.544 960.5,826C 962.409,811.939 966.909,798.772 974,786.5C 980.132,784.833 985.966,782.333 991.5,779C 996.982,773.03 1001.98,766.697 1006.5,760C 1018.32,754.341 1028.82,746.841 1038,737.5C 1044.26,724.65 1050.26,711.65 1056,698.5C 1057.17,697.333 1058.33,696.167 1059.5,695C 1081.78,695.685 1101.78,689.352 1119.5,676C 1121.85,673.867 1122.85,671.2 1122.5,668C 1117.95,655.004 1113.78,641.837 1110,628.5C 1109.3,613.001 1107.97,597.668 1106,582.5C 1084.25,589.844 1062.08,591.344 1039.5,587C 996.022,573.496 976.522,543.996 981,498.5C 982.209,489.208 985.209,480.541 990,472.5C 1007.89,450.943 1028.06,431.777 1050.5,415C 1056.72,407.401 1055.05,402.068 1045.5,399C 1006.21,402.357 981.044,385.19 970,347.5C 968.699,337.176 970.532,327.509 975.5,318.5 Z M 1582.5,430.5 C 1587.33,431.165 1591.16,433.498 1594,437.5C 1603.2,451.502 1606.53,466.835 1604,483.5C 1603.52,487.531 1602.85,491.531 1602,495.5C 1601.8,497.286 1600.97,498.619 1599.5,499.5C 1596.33,486.822 1592.83,474.155 1589,461.5C 1585.43,454.263 1581.43,447.263 1577,440.5C 1576,435.491 1577.83,432.158 1582.5,430.5 Z M 1732.5,563.5 C 1737.9,562.785 1742.4,564.452 1746,568.5C 1750.9,576.73 1756.56,584.396 1763,591.5C 1771.64,602.744 1774.97,615.411 1773,629.5C 1772.26,633.062 1770.76,636.228 1768.5,639C 1766.56,639.743 1764.73,639.576 1763,638.5C 1763.68,620.025 1756.51,605.525 1741.5,595C 1736.42,592.679 1731.75,593.345 1727.5,597C 1724.5,600.667 1721.5,604.333 1718.5,608C 1717.55,608.617 1716.72,608.451 1716,607.5C 1714.06,601.081 1714.39,594.747 1717,588.5C 1720,582.167 1723,575.833 1726,569.5C 1728.06,567.266 1730.23,565.266 1732.5,563.5 Z M 1726.5,698.5 C 1732.97,696.725 1736.64,699.058 1737.5,705.5C 1737.36,711.433 1735.36,716.599 1731.5,721C 1723.9,723.758 1716.23,724.092 1708.5,722C 1707.83,721.333 1707.17,720.667 1706.5,720C 1710.29,710.043 1716.96,702.877 1726.5,698.5 Z"/></g>
<g><path style="opacity:1" fill="#fcfdfc" d="M 2132.5,347.5 C 2138.51,347.334 2144.51,347.501 2150.5,348C 2151.06,348.725 2151.39,349.558 2151.5,350.5C 2150.18,354.094 2149.68,357.761 2150,361.5C 2156.2,364.017 2162.03,367.183 2167.5,371C 2168.58,372.726 2168.74,374.559 2168,376.5C 2165.25,379.762 2162.08,382.429 2158.5,384.5C 2149.16,377.003 2138.49,373.836 2126.5,375C 2116.49,378.42 2115.15,383.753 2122.5,391C 2132.75,394.75 2142.75,399.083 2152.5,404C 2164.1,414.482 2165.6,426.316 2157,439.5C 2149.22,447.486 2139.72,451.486 2128.5,451.5C 2127.85,455.622 2126.52,459.455 2124.5,463C 2119.17,463.667 2113.83,463.667 2108.5,463C 2107.06,461.874 2106.39,460.374 2106.5,458.5C 2106.85,455.558 2107.52,452.725 2108.5,450C 2099.35,447.643 2092.02,442.81 2086.5,435.5C 2088.88,430.953 2092.38,427.62 2097,425.5C 2102.75,429.291 2108.91,432.458 2115.5,435C 2122.7,436.054 2129.7,435.388 2136.5,433C 2140.93,429.222 2141.6,424.888 2138.5,420C 2128.05,415.608 2117.71,410.941 2107.5,406C 2095.5,396.464 2093.34,384.964 2101,371.5C 2108.23,363.135 2117.4,358.969 2128.5,359C 2129.3,354.935 2130.64,351.102 2132.5,347.5 Z"/></g>
<g><path style="opacity:0.923" fill="#000000" d="M 2328.5,357.5 C 2344.39,356.292 2357.55,361.625 2368,373.5C 2370.15,376.216 2369.98,378.716 2367.5,381C 2364.65,383.173 2361.49,384.673 2358,385.5C 2353.3,381.817 2348.3,378.484 2343,375.5C 2327.28,371.193 2316.28,376.527 2310,391.5C 2306.2,403.732 2307.54,415.399 2314,426.5C 2324.06,437.222 2335.56,439.055 2348.5,432C 2351.42,428.573 2354.75,425.739 2358.5,423.5C 2362.61,424.721 2366.28,426.721 2369.5,429.5C 2370.43,430.768 2370.59,432.101 2370,433.5C 2358.11,449.773 2342.28,455.606 2322.5,451C 2302.42,444.568 2291.59,430.735 2290,409.5C 2288.33,381.047 2301.17,363.714 2328.5,357.5 Z"/></g>
<g><path style="opacity:0.928" fill="#000000" d="M 2508.5,359.5 C 2513.18,359.334 2517.85,359.501 2522.5,360C 2523,360.5 2523.5,361 2524,361.5C 2524.33,370.833 2524.67,380.167 2525,389.5C 2533.09,381.584 2542.59,379.417 2553.5,383C 2560.68,386.183 2564.85,391.683 2566,399.5C 2566.67,415.833 2566.67,432.167 2566,448.5C 2565.5,449 2565,449.5 2564.5,450C 2560.17,450.667 2555.83,450.667 2551.5,450C 2551,449.5 2550.5,449 2550,448.5C 2549.67,433.833 2549.33,419.167 2549,404.5C 2544.92,396.277 2538.75,394.444 2530.5,399C 2527.53,401.1 2525.7,403.934 2525,407.5C 2524.67,421.167 2524.33,434.833 2524,448.5C 2523.5,449 2523,449.5 2522.5,450C 2518.17,450.667 2513.83,450.667 2509.5,450C 2509,449.5 2508.5,449 2508,448.5C 2507.18,418.762 2507.34,389.095 2508.5,359.5 Z"/></g>
<g><path style="opacity:0.932" fill="#000000" d="M 2636.5,359.5 C 2643.42,359.188 2650.26,359.521 2657,360.5C 2667.3,389.077 2677.8,417.577 2688.5,446C 2688.22,447.892 2687.22,449.225 2685.5,450C 2680.45,450.781 2675.45,450.614 2670.5,449.5C 2667.45,442.69 2664.78,435.69 2662.5,428.5C 2651.19,427.501 2639.85,427.168 2628.5,427.5C 2626.67,434.831 2624.33,441.998 2621.5,449C 2616.62,450.555 2611.62,450.888 2606.5,450C 2604.97,449.3 2603.97,448.134 2603.5,446.5C 2614.26,417.334 2625.26,388.334 2636.5,359.5 Z M 2645.5,377.5 C 2646.12,377.611 2646.62,377.944 2647,378.5C 2650.61,390.101 2654.44,401.601 2658.5,413C 2650.51,413.5 2642.51,413.666 2634.5,413.5C 2638.17,401.5 2641.83,389.5 2645.5,377.5 Z"/></g>
<g><path style="opacity:0.917" fill="#000000" d="M 2462.5,380.5 C 2474.58,379.278 2485.42,382.278 2495,389.5C 2495.48,393.734 2493.98,397.234 2490.5,400C 2485.8,400.163 2481.46,398.83 2477.5,396C 2471.35,393.785 2465.35,394.118 2459.5,397C 2456.87,401.426 2458.2,404.426 2463.5,406C 2472.42,407.449 2481.08,409.783 2489.5,413C 2498.73,419.556 2501.23,428.056 2497,438.5C 2493.68,444.141 2488.85,447.974 2482.5,450C 2467.72,453.903 2454.22,451.403 2442,442.5C 2441.33,440.833 2441.33,439.167 2442,437.5C 2443.69,434.305 2446.19,431.972 2449.5,430.5C 2458.25,437.254 2467.92,439.087 2478.5,436C 2484.17,431.703 2483.84,428.036 2477.5,425C 2467.72,423.817 2458.38,421.15 2449.5,417C 2440.31,408.647 2439.14,399.147 2446,388.5C 2450.87,384.315 2456.37,381.648 2462.5,380.5 Z"/></g>
<g><path style="opacity:0.921" fill="#000000" d="M 2397.5,381.5 C 2405.67,380.95 2413.67,381.783 2421.5,384C 2426.06,386.227 2429.23,389.727 2431,394.5C 2432.6,412.122 2432.93,429.789 2432,447.5C 2431.63,448.416 2431.13,449.25 2430.5,450C 2426.17,450.667 2421.83,450.667 2417.5,450C 2416.75,448.266 2416.25,446.433 2416,444.5C 2408.74,451.049 2400.24,453.216 2390.5,451C 2376.69,446.903 2371.53,437.737 2375,423.5C 2378.18,416.331 2383.68,412.164 2391.5,411C 2397.2,410.185 2402.87,409.185 2408.5,408C 2414.73,407.141 2416.57,403.974 2414,398.5C 2409.52,395.778 2404.69,394.945 2399.5,396C 2394.48,396.963 2389.64,398.463 2385,400.5C 2383.89,400.415 2382.89,400.081 2382,399.5C 2379.49,396.181 2378.49,392.514 2379,388.5C 2384.89,385.126 2391.06,382.793 2397.5,381.5 Z M 2413.5,418.5 C 2414.5,418.5 2415.5,418.5 2416.5,418.5C 2417.32,433.858 2410.32,440.025 2395.5,437C 2389.8,431.429 2390.47,426.763 2397.5,423C 2403.04,421.801 2408.38,420.301 2413.5,418.5 Z"/></g>
<g><path style="opacity:0.934" fill="#000000" d="M 2725.5,381.5 C 2745.58,379.944 2757.74,388.944 2762,408.5C 2764.42,423.025 2760.58,435.525 2750.5,446C 2742.6,451.212 2733.93,452.879 2724.5,451C 2720.13,449.733 2716.3,447.567 2713,444.5C 2712.94,453.601 2712.28,462.601 2711,471.5C 2706.59,472.632 2702.09,472.799 2697.5,472C 2696.17,457.388 2695.51,442.554 2695.5,427.5C 2695.67,412.833 2695.83,398.167 2696,383.5C 2700.75,382.365 2705.58,382.198 2710.5,383C 2712.07,384.826 2712.91,386.993 2713,389.5C 2716.37,385.41 2720.53,382.744 2725.5,381.5 Z M 2725.5,396.5 C 2735.06,396.029 2741.23,400.362 2744,409.5C 2746.52,419.57 2744.02,428.07 2736.5,435C 2721.32,439.203 2713.32,433.203 2712.5,417C 2712.21,407.048 2716.54,400.214 2725.5,396.5 Z"/></g>
<g><path style="opacity:0.932" fill="#000000" d="M 2801.5,381.5 C 2821.32,379.489 2833.49,388.155 2838,407.5C 2841.26,424.075 2836.42,437.575 2823.5,448C 2813.5,452.667 2803.5,452.667 2793.5,448C 2792,446.5 2790.5,445 2789,443.5C 2788.67,452.5 2788.33,461.5 2788,470.5C 2787.5,471 2787,471.5 2786.5,472C 2782.17,472.667 2777.83,472.667 2773.5,472C 2773,471.5 2772.5,471 2772,470.5C 2771.33,441.833 2771.33,413.167 2772,384.5C 2772.5,384 2773,383.5 2773.5,383C 2777.83,382.333 2782.17,382.333 2786.5,383C 2788.07,384.826 2788.91,386.993 2789,389.5C 2792.67,385.923 2796.84,383.256 2801.5,381.5 Z M 2801.5,396.5 C 2814.39,396.719 2821.05,403.385 2821.5,416.5C 2821.25,427.89 2815.75,434.89 2805,437.5C 2796.13,436.299 2790.8,431.299 2789,422.5C 2786.55,410.407 2790.72,401.74 2801.5,396.5 Z"/></g>
<g><path style="opacity:0.981" fill="#8b8f91" d="M 1481.5,716.5 C 1485.19,715.971 1488.36,716.971 1491,719.5C 1493.82,728.947 1497.32,738.114 1501.5,747C 1501.02,750.15 1499.36,752.484 1496.5,754C 1488.16,759.569 1479.16,761.569 1469.5,760C 1464.18,753.194 1460.01,745.694 1457,737.5C 1454.04,733.534 1450.7,729.867 1447,726.5C 1446.24,724.231 1446.41,722.064 1447.5,720C 1458.99,719.033 1470.33,717.866 1481.5,716.5 Z"/></g>
<g><path style="opacity:0.972" fill="#8b8f91" d="M 987.5,730.5 C 994.074,730.544 998.907,733.544 1002,739.5C 1002.67,741.167 1002.67,742.833 1002,744.5C 996.271,756.229 987.771,765.396 976.5,772C 974.167,772.667 971.833,772.667 969.5,772C 955.186,764.801 953.853,755.801 965.5,745C 972.761,739.882 980.094,735.049 987.5,730.5 Z"/></g>
<g><path style="opacity:0.979" fill="#8b8f91" d="M 942.5,768.5 C 950.645,771.305 956.645,776.639 960.5,784.5C 956.032,797.736 951.866,811.07 948,824.5C 947.32,826.513 945.987,827.846 944,828.5C 937.038,826.718 930.204,824.551 923.5,822C 919.175,819.871 918.341,816.704 921,812.5C 923.403,810.695 925.07,808.362 926,805.5C 927.513,797.18 928.846,788.847 930,780.5C 933.403,775.595 937.57,771.595 942.5,768.5 Z"/></g>
<g><path style="opacity:0.935" fill="#8b8f91" d="M 1151.5,891.5 C 1168.75,889.439 1178.42,896.939 1180.5,914C 1178.21,930.288 1168.88,937.621 1152.5,936C 1141.14,932.808 1135.14,925.308 1134.5,913.5C 1135.4,902.322 1141.07,894.988 1151.5,891.5 Z M 1155.5,898.5 C 1170.32,900.475 1175.15,908.475 1170,922.5C 1161.62,931.52 1153.28,931.52 1145,922.5C 1140.08,910.684 1143.58,902.684 1155.5,898.5 Z"/></g>
<g><path style="opacity:0.941" fill="#8b8f91" d="M 1488.5,891.5 C 1510.59,890.419 1519.75,900.752 1516,922.5C 1508.63,935.728 1497.79,939.561 1483.5,934C 1471.89,925.513 1469.05,914.68 1475,901.5C 1478.53,896.795 1483.03,893.462 1488.5,891.5 Z M 1492.5,898.5 C 1507.34,900.527 1512.18,908.527 1507,922.5C 1498.62,931.52 1490.28,931.52 1482,922.5C 1477.06,910.725 1480.56,902.725 1492.5,898.5 Z"/></g>
<g><path style="opacity:0.905" fill="#8c9092" d="M 1095.5,892.5 C 1104.17,892.5 1112.83,892.5 1121.5,892.5C 1121.5,894.833 1121.5,897.167 1121.5,899.5C 1115.5,899.5 1109.5,899.5 1103.5,899.5C 1103.5,903.5 1103.5,907.5 1103.5,911.5C 1109.5,911.5 1115.5,911.5 1121.5,911.5C 1121.5,913.5 1121.5,915.5 1121.5,917.5C 1115.5,917.5 1109.5,917.5 1103.5,917.5C 1103.5,923.5 1103.5,929.5 1103.5,935.5C 1100.83,935.5 1098.17,935.5 1095.5,935.5C 1095.5,921.167 1095.5,906.833 1095.5,892.5 Z"/></g>
<g><path style="opacity:0.939" fill="#8b8f91" d="M 1196.5,892.5 C 1204.25,892.104 1211.92,892.604 1219.5,894C 1226.67,900.702 1227.34,908.035 1221.5,916C 1220.17,916.667 1218.83,917.333 1217.5,918C 1221.17,923.667 1224.83,929.333 1228.5,935C 1225.5,935.667 1222.5,935.667 1219.5,935C 1216.04,929.918 1212.71,924.752 1209.5,919.5C 1207.95,918.548 1206.29,918.215 1204.5,918.5C 1204.5,924.167 1204.5,929.833 1204.5,935.5C 1201.83,935.5 1199.17,935.5 1196.5,935.5C 1196.5,921.167 1196.5,906.833 1196.5,892.5 Z M 1204.5,898.5 C 1207.98,898.184 1211.31,898.684 1214.5,900C 1218.11,903.315 1218.44,906.982 1215.5,911C 1211.97,912.337 1208.31,912.837 1204.5,912.5C 1204.5,907.833 1204.5,903.167 1204.5,898.5 Z"/></g>
<g><path style="opacity:0.934" fill="#8b8f91" d="M 1243.5,892.5 C 1247.11,892.211 1250.61,892.544 1254,893.5C 1257.47,903.577 1261.14,913.577 1265,923.5C 1269.72,913.512 1273.55,903.179 1276.5,892.5C 1280.17,892.5 1283.83,892.5 1287.5,892.5C 1287.5,906.833 1287.5,921.167 1287.5,935.5C 1284.83,935.5 1282.17,935.5 1279.5,935.5C 1279.67,926.161 1279.5,916.827 1279,907.5C 1275.47,916.423 1272.14,925.423 1269,934.5C 1266.04,936.077 1263.38,935.744 1261,933.5C 1257.86,924.423 1254.53,915.423 1251,906.5C 1250.5,916.161 1250.33,925.828 1250.5,935.5C 1248.17,935.5 1245.83,935.5 1243.5,935.5C 1243.5,921.167 1243.5,906.833 1243.5,892.5 Z"/></g>
<g><path style="opacity:0.943" fill="#8b8f91" d="M 1306.5,892.5 C 1308.83,892.5 1311.17,892.5 1313.5,892.5C 1313.1,903.231 1313.6,913.898 1315,924.5C 1320.79,931.408 1326.13,931.074 1331,923.5C 1332.37,913.223 1332.87,902.889 1332.5,892.5C 1334.83,892.5 1337.17,892.5 1339.5,892.5C 1339.67,903.505 1339.5,914.505 1339,925.5C 1336.3,932.861 1330.96,936.528 1323,936.5C 1315.23,936.399 1309.9,932.732 1307,925.5C 1306.5,914.505 1306.33,903.505 1306.5,892.5 Z"/></g>
<g><path style="opacity:0.928" fill="#8a8e91" d="M 1358.5,892.5 C 1360.83,892.5 1363.17,892.5 1365.5,892.5C 1365.5,904.5 1365.5,916.5 1365.5,928.5C 1371.17,928.5 1376.83,928.5 1382.5,928.5C 1382.5,930.833 1382.5,933.167 1382.5,935.5C 1374.5,935.5 1366.5,935.5 1358.5,935.5C 1358.5,921.167 1358.5,906.833 1358.5,892.5 Z"/></g>
<g><path style="opacity:0.929" fill="#8b8f91" d="M 1408.5,892.5 C 1411.57,892.183 1414.57,892.516 1417.5,893.5C 1422.94,907.311 1428.27,921.144 1433.5,935C 1430.52,935.498 1427.52,935.665 1424.5,935.5C 1424,932.171 1423,929.005 1421.5,926C 1415.8,925.17 1410.14,925.337 1404.5,926.5C 1402.9,929.314 1401.9,932.314 1401.5,935.5C 1398.48,935.665 1395.48,935.498 1392.5,935C 1398.33,921.009 1403.66,906.842 1408.5,892.5 Z M 1412.5,901.5 C 1415,906.986 1417.34,912.652 1419.5,918.5C 1415.2,919.661 1410.87,919.828 1406.5,919C 1409.2,913.409 1411.2,907.576 1412.5,901.5 Z"/></g>
<g><path style="opacity:0.949" fill="#8b8f91" d="M 1533.5,892.5 C 1536.57,892.183 1539.57,892.516 1542.5,893.5C 1548,902.5 1553.5,911.5 1559,920.5C 1559.5,911.173 1559.67,901.839 1559.5,892.5C 1562.17,892.5 1564.83,892.5 1567.5,892.5C 1567.5,906.833 1567.5,921.167 1567.5,935.5C 1564.43,935.817 1561.43,935.484 1558.5,934.5C 1552.67,924.833 1546.83,915.167 1541,905.5C 1540.5,915.494 1540.33,925.494 1540.5,935.5C 1538.17,935.5 1535.83,935.5 1533.5,935.5C 1533.5,921.167 1533.5,906.833 1533.5,892.5 Z"/></g>
<g><path style="opacity:0.918" fill="#8b8f90" d="M 1586.5,892.5 C 1595.17,892.5 1603.83,892.5 1612.5,892.5C 1612.5,894.5 1612.5,896.5 1612.5,898.5C 1606.17,898.5 1599.83,898.5 1593.5,898.5C 1593.5,902.167 1593.5,905.833 1593.5,909.5C 1599.5,909.5 1605.5,909.5 1611.5,909.5C 1611.5,911.833 1611.5,914.167 1611.5,916.5C 1605.5,916.5 1599.5,916.5 1593.5,916.5C 1593.5,920.5 1593.5,924.5 1593.5,928.5C 1600.17,928.5 1606.83,928.5 1613.5,928.5C 1613.5,930.833 1613.5,933.167 1613.5,935.5C 1604.5,935.5 1595.5,935.5 1586.5,935.5C 1586.5,921.167 1586.5,906.833 1586.5,892.5 Z"/></g>
<g><path style="opacity:0.949" fill="#8b8e91" d="M 1651.5,892.5 C 1662.5,892.5 1673.5,892.5 1684.5,892.5C 1684.5,894.833 1684.5,897.167 1684.5,899.5C 1680.17,899.5 1675.83,899.5 1671.5,899.5C 1671.5,911.5 1671.5,923.5 1671.5,935.5C 1668.83,935.5 1666.17,935.5 1663.5,935.5C 1663.5,923.5 1663.5,911.5 1663.5,899.5C 1659.5,899.5 1655.5,899.5 1651.5,899.5C 1651.5,897.167 1651.5,894.833 1651.5,892.5 Z"/></g>
<g><path style="opacity:0.931" fill="#8a8f90" d="M 1699.5,892.5 C 1708.17,892.5 1716.83,892.5 1725.5,892.5C 1725.5,894.5 1725.5,896.5 1725.5,898.5C 1719.5,898.5 1713.5,898.5 1707.5,898.5C 1707.5,902.167 1707.5,905.833 1707.5,909.5C 1713.5,909.5 1719.5,909.5 1725.5,909.5C 1725.5,911.833 1725.5,914.167 1725.5,916.5C 1719.5,916.5 1713.5,916.5 1707.5,916.5C 1707.5,920.5 1707.5,924.5 1707.5,928.5C 1713.83,928.5 1720.17,928.5 1726.5,928.5C 1726.5,930.833 1726.5,933.167 1726.5,935.5C 1717.5,935.5 1708.5,935.5 1699.5,935.5C 1699.5,921.167 1699.5,906.833 1699.5,892.5 Z"/></g>
<g><path style="opacity:0.931" fill="#8b8f91" d="M 1754.5,892.5 C 1757.78,892.216 1760.94,892.549 1764,893.5C 1768.87,907.283 1774.04,920.95 1779.5,934.5C 1776.57,935.484 1773.57,935.817 1770.5,935.5C 1770,932.171 1769,929.005 1767.5,926C 1761.8,925.17 1756.14,925.337 1750.5,926.5C 1749.5,929.167 1748.5,931.833 1747.5,934.5C 1744.91,935.48 1742.25,935.813 1739.5,935.5C 1744.3,921.091 1749.3,906.758 1754.5,892.5 Z M 1758.5,901.5 C 1761.1,907.131 1763.44,912.964 1765.5,919C 1761.51,919.499 1757.51,919.666 1753.5,919.5C 1755.17,913.5 1756.83,907.5 1758.5,901.5 Z"/></g>
<g><path style="opacity:0.94" fill="#8b8f91" d="M 1794.5,892.5 C 1797.9,892.18 1801.23,892.513 1804.5,893.5C 1808.33,903.833 1812.17,914.167 1816,924.5C 1819.93,914.205 1823.76,903.872 1827.5,893.5C 1830.77,892.513 1834.1,892.18 1837.5,892.5C 1837.5,906.833 1837.5,921.167 1837.5,935.5C 1835.17,935.5 1832.83,935.5 1830.5,935.5C 1830.67,925.828 1830.5,916.161 1830,906.5C 1826.86,915.577 1823.53,924.577 1820,933.5C 1817.82,935.637 1815.32,935.971 1812.5,934.5C 1808.71,925.283 1805.21,915.95 1802,906.5C 1801.5,916.161 1801.33,925.828 1801.5,935.5C 1799.17,935.5 1796.83,935.5 1794.5,935.5C 1794.5,921.167 1794.5,906.833 1794.5,892.5 Z"/></g>
</svg>
